<?xml version="1.0" standalone="no"?>
<!DOCTYPE svg PUBLIC "-//W3C//DTD SVG 1.1//EN" "http://www.w3.org/Graphics/SVG/1.1/DTD/svg11.dtd" >
<svg xmlns="http://www.w3.org/2000/svg" xmlns:xlink="http://www.w3.org/1999/xlink" version="1.1">
<metadata>
Created by FontForge 20170731 at Tue Feb 28 02:07:30 2012
 By Aleksey,,,
Copyright (c) 2012 by Juri Zaech. All rights reserved.
</metadata>
<defs>
<font id="Frontage-Regular" horiz-adv-x="590" >
  <font-face 
    font-family="Frontage Regular"
    font-weight="400"
    font-stretch="normal"
    units-per-em="1000"
    panose-1="2 0 5 5 0 0 0 2 0 4"
    ascent="750"
    descent="-250"
    x-height="700"
    cap-height="700"
    bbox="0 -175 1351 950"
    underline-thickness="50"
    underline-position="-200"
    unicode-range="U+0020-2212"
  />
<missing-glyph horiz-adv-x="699" 
 />
    <glyph glyph-name=".notdef" horiz-adv-x="699" 
 />
    <glyph glyph-name=".null" horiz-adv-x="0" 
 />
    <glyph glyph-name="nonmarkingreturn" horiz-adv-x="333" 
 />
    <glyph glyph-name="space" unicode=" " horiz-adv-x="550" 
 />
    <glyph glyph-name="exclam" unicode="!" 
d="M395 198h-100v502h100v-502zM395 0h-100v100h100v-100z" />
    <glyph glyph-name="quotedbl" unicode="&#x22;" horiz-adv-x="675" 
d="M325 500h-100v200h100v-200zM550 500h-100v200h100v-200z" />
    <glyph glyph-name="numbersign" unicode="#" horiz-adv-x="1000" 
d="M849 525l-24 -100h-95l-36 -150h95l-25 -100h-95l-42 -175h-103l43 175h-118l-42 -175h-103l42 175h-95l24 100h95l36 150h-95l24 100h95l42 175h103l-42 -175h118l42 175h103l-42 -175h95zM473 275h118l36 150h-118z" />
    <glyph glyph-name="dollar" unicode="$" horiz-adv-x="780" 
d="M645 200q0 -69 -42.5 -123t-107.5 -71v-85h-100v85q-49 13 -85.5 46.5t-53.5 80.5l95 34q10 -30 35.5 -48.5t58.5 -18.5q41 0 70.5 29.5t29.5 70.5t-29.5 70.5t-70.5 29.5q-83 0 -141.5 58.5t-58.5 141.5q0 69 42.5 123t107.5 71v80h100v-80q48 -13 84.5 -46.5
t53.5 -80.5l-94 -34q-11 30 -36.5 48.5t-57.5 18.5q-41 0 -70.5 -29.5t-29.5 -70.5t29.5 -70.5t70.5 -29.5q83 0 141.5 -59t58.5 -141z" />
    <glyph glyph-name="percent" unicode="%" horiz-adv-x="1031" 
d="M495 575q0 -52 -36.5 -88.5t-88.5 -36.5t-88.5 36.5t-36.5 88.5t36.5 88.5t88.5 36.5t88.5 -36.5t36.5 -88.5zM370 650q-31 0 -53 -22t-22 -53t22 -53t53 -22t53 22t22 53t-22 53t-53 22zM329 -14l-60 45l517 684l60 -46zM886 125q0 -52 -36.5 -88.5t-88.5 -36.5
t-88.5 36.5t-36.5 88.5t36.5 88.5t88.5 36.5t88.5 -36.5t36.5 -88.5zM761 200q-31 0 -53 -22t-22 -53t22 -53t53 -22t53 22t22 53t-22 53t-53 22z" />
    <glyph glyph-name="ampersand" unicode="&#x26;" horiz-adv-x="960" 
d="M593 196l-142 142l-67 -67q-29 -29 -29 -71t29 -71t71 -29t71 29zM663 126l-67 -67q-58 -59 -141 -59t-142 59t-59 141t59 141l68 68l-36 35q-43 44 -43 106t43 106q44 44 106 44t106 -44t44 -106t-44 -106l-35 -35l141 -142l91 91l71 -71l-91 -91l91 -90l-71 -71z
M451 479l36 36q14 14 14 35t-14 35q-15 15 -36 15t-35 -15q-15 -14 -15 -35t15 -35z" />
    <glyph glyph-name="quotesingle" unicode="'" horiz-adv-x="450" 
d="M325 500h-100v200h100v-200z" />
    <glyph glyph-name="parenleft" unicode="(" horiz-adv-x="548" 
d="M413 675q-87 -152 -87 -325t87 -325l-87 -50q-100 175 -100 375t100 375z" />
    <glyph glyph-name="parenright" unicode=")" horiz-adv-x="547" 
d="M234 675l87 50q100 -172 100 -375t-100 -375l-87 50q87 149 87 325t-87 325z" />
    <glyph glyph-name="asterisk" unicode="*" horiz-adv-x="1004" 
d="M830 568l50 -86l-228 -132l228 -132l-50 -86l-228 131v-263h-100v263l-228 -131l-50 86l228 132l-228 132l50 86l228 -131v263h100v-263z" />
    <glyph glyph-name="plus" unicode="+" horiz-adv-x="850" 
d="M525 400h200v-100h-200v-200h-100v200h-200v100h200v200h100v-200z" />
    <glyph glyph-name="comma" unicode="," horiz-adv-x="450" 
d="M325 0l-50 -100h-50v200h100v-100z" />
    <glyph glyph-name="hyphen" unicode="-" 
d="M495 300h-300v100h300v-100z" />
    <glyph glyph-name="period" unicode="." horiz-adv-x="450" 
d="M325 0h-100v100h100v-100z" />
    <glyph glyph-name="slash" unicode="/" horiz-adv-x="710" 
d="M251 -23l-87 50l395 696l87 -50z" />
    <glyph glyph-name="zero" unicode="0" horiz-adv-x="990" 
d="M895 350q0 -145 -102.5 -247.5t-247.5 -102.5t-247.5 102.5t-102.5 247.5t102.5 247.5t247.5 102.5t247.5 -102.5t102.5 -247.5zM545 600q-103 0 -176.5 -73t-73.5 -177t73.5 -177t176.5 -73t176.5 73t73.5 177t-73.5 177t-176.5 73z" />
    <glyph glyph-name="one" unicode="1" 
d="M395 0h-100v700h100v-700z" />
    <glyph glyph-name="two" unicode="2" horiz-adv-x="839" 
d="M632 330l-193 -230h245v-100h-460l331 394q29 35 29 80q0 52 -36.5 88.5t-88.5 36.5t-88.5 -36.5t-36.5 -88.5q0 -30 14 -56l-90 -44q-24 48 -24 100q0 94 66 159.5t159 65.5q94 0 159.5 -65.5t65.5 -159.5q0 -83 -52 -144z" />
    <glyph glyph-name="three" unicode="3" horiz-adv-x="830" 
d="M673 700l-171 -259q71 -21 116 -80.5t45 -135.5q0 -93 -66 -159t-159 -66q-61 0 -113 30.5t-82 81.5l87 50q16 -28 45 -45t63 -17q52 0 88.5 36.5t36.5 88.5t-36.5 88.5t-88.5 36.5h-116l165 250h-210v100h396z" />
    <glyph glyph-name="four" unicode="4" horiz-adv-x="895" 
d="M650 275h100v-100h-100v-175h-100v175h-299l125 533l97 -23l-96 -410h173v300h100v-300z" />
    <glyph glyph-name="five" unicode="5" horiz-adv-x="838" 
d="M458 450q93 0 159 -66t66 -159t-66 -159t-159 -66q-61 0 -113 30.5t-82 81.5l87 50q16 -28 45 -45t63 -17q52 0 88.5 36.5t36.5 88.5t-36.5 88.5t-88.5 36.5q-63 0 -101 -51l-94 38l43 363h327v-100h-238l-20 -166q42 16 83 16z" />
    <glyph glyph-name="six" unicode="6" horiz-adv-x="820" 
d="M235 225q0 55 25 103l197 399l90 -44l-116 -235q18 2 29 2q93 0 159 -66t66 -159t-66 -159t-159 -66t-159 66t-66 159zM460 350q-36 0 -65.5 -19t-46.5 -51q-13 -26 -13 -55q0 -52 36.5 -88.5t88.5 -36.5t88.5 36.5t36.5 88.5t-36.5 88.5t-88.5 36.5z" />
    <glyph glyph-name="seven" unicode="7" horiz-adv-x="848" 
d="M245 700h475l-174 -400h61v-100h-105l-91 -208l-91 40l73 168h-61v100h105l130 300h-322v100z" />
    <glyph glyph-name="eight" unicode="8" horiz-adv-x="800" 
d="M580 408q44 -30 69.5 -78.5t25.5 -104.5q0 -93 -66 -159t-159 -66t-159 66t-66 159q0 56 25.5 104t68.5 79q-44 51 -44 117q0 73 51 124t124 51t124 -51t51 -124q0 -67 -45 -117zM375 525q0 -31 22 -53t53 -22t53 22t22 53t-22 53t-53 22t-53 -22t-22 -53zM450 100
q52 0 88.5 36.5t36.5 88.5t-36.5 88.5t-88.5 36.5t-88.5 -36.5t-36.5 -88.5t36.5 -88.5t88.5 -36.5z" />
    <glyph glyph-name="nine" unicode="9" horiz-adv-x="780" 
d="M665 475q0 -55 -25 -103l-197 -399l-90 44l116 235q-20 -2 -29 -2q-93 0 -159 66t-66 159t66 159t159 66t159 -66t66 -159zM440 350q36 0 65.5 18.5t45.5 49.5l1 2q13 26 13 55q0 52 -36.5 88.5t-88.5 36.5t-88.5 -36.5t-36.5 -88.5t36.5 -88.5t88.5 -36.5z" />
    <glyph glyph-name="colon" unicode=":" horiz-adv-x="450" 
d="M325 0h-100v100h100v-100zM325 400h-100v100h100v-100z" />
    <glyph glyph-name="semicolon" unicode=";" horiz-adv-x="450" 
d="M325 0l-50 -100h-50v200h100v-100zM325 400h-100v100h100v-100z" />
    <glyph glyph-name="less" unicode="&#x3c;" horiz-adv-x="822" 
d="M245 400l359 176l44 -90l-278 -136l278 -136l-44 -90l-359 176v100z" />
    <glyph glyph-name="equal" unicode="=" horiz-adv-x="850" 
d="M725 400h-500v100h500v-100zM725 200h-500v100h500v-100z" />
    <glyph glyph-name="greater" unicode="&#x3e;" horiz-adv-x="822" 
d="M318 576l359 -176v-100l-359 -176l-44 90l278 136l-278 136z" />
    <glyph glyph-name="question" unicode="?" horiz-adv-x="703" 
d="M445 0h-100v100h100v-100zM395 700q88 0 150.5 -62t62.5 -150q0 -74 -46 -132t-117 -75v-81h-100v175h50q47 0 80 33t33 80t-33 79.5t-80 32.5q-33 0 -61 -18t-41 -48l-92 40q25 57 77.5 91.5t116.5 34.5z" />
    <glyph glyph-name="at" unicode="@" horiz-adv-x="1030" 
d="M565 700q145 0 247.5 -102.5t102.5 -247.5q0 -83 -58.5 -141.5t-141.5 -58.5q-77 0 -133 51q-6 -1 -17 -1q-62 0 -106 44t-44 106t44 106t106 44t106 -44t44 -106q0 -53 -33 -94q15 -6 33 -6q41 0 70.5 29.5t29.5 70.5q0 104 -73.5 177t-176.5 73t-176.5 -73t-73.5 -177
t73.5 -177t176.5 -73q50 0 102 21l40 -91q-68 -30 -142 -30q-145 0 -247.5 102.5t-102.5 247.5t102.5 247.5t247.5 102.5zM515 350q0 -21 14.5 -35.5t35.5 -14.5t35.5 14.5t14.5 35.5t-14.5 35.5t-35.5 14.5t-35.5 -14.5t-14.5 -35.5z" />
    <glyph glyph-name="A" unicode="A" horiz-adv-x="1085" 
d="M869 0l-69 125h-416l-68 -125h-114l390 714l391 -714h-114zM439 225h307l-154 281z" />
    <glyph glyph-name="B" unicode="B" horiz-adv-x="1030" 
d="M798 371q44 -27 70.5 -72t26.5 -99q0 -83 -58.5 -141.5t-141.5 -58.5h-400v700h350q83 0 141.5 -59t58.5 -141q0 -72 -47 -129zM645 600h-250v-200h250q41 0 70.5 29.5t29.5 70.5t-29.5 70.5t-70.5 29.5zM395 100h300q41 0 70.5 29.5t29.5 70.5t-29.5 70.5t-70.5 29.5
h-300v-200z" />
    <glyph glyph-name="C" unicode="C" horiz-adv-x="939" 
d="M555 100q60 0 112.5 26.5t87.5 73.5l79 -61q-49 -64 -122 -101.5t-157 -37.5q-145 0 -247.5 102.5t-102.5 247.5t102.5 247.5t247.5 102.5q84 0 157 -37.5t122 -101.5l-79 -61q-35 47 -87.5 73.5t-112.5 26.5q-103 0 -176.5 -73t-73.5 -177t73.5 -177t176.5 -73z" />
    <glyph glyph-name="D" unicode="D" horiz-adv-x="1000" 
d="M545 0h-250v700h250q145 0 247.5 -102.5t102.5 -247.5t-102.5 -247.5t-247.5 -102.5zM395 100h150q103 0 176.5 73t73.5 177t-73.5 177t-176.5 73h-150v-500z" />
    <glyph glyph-name="E" unicode="E" horiz-adv-x="980" 
d="M795 600h-400v-275h300v-100h-300v-125h400v-100h-500v700h500v-100z" />
    <glyph glyph-name="F" unicode="F" horiz-adv-x="930" 
d="M795 600h-400v-275h300v-100h-300v-225h-100v700h500v-100z" />
    <glyph glyph-name="G" unicode="G" horiz-adv-x="989" 
d="M740 171v79h-175v100h275v-217q-49 -62 -121 -97.5t-154 -35.5q-145 0 -247.5 102.5t-102.5 247.5t102.5 247.5t247.5 102.5q84 0 157 -37.5t122 -101.5l-79 -61q-35 47 -87.5 73.5t-112.5 26.5q-103 0 -176.5 -73t-73.5 -177t73.5 -177t176.5 -73q102 0 175 71z" />
    <glyph glyph-name="H" unicode="H" horiz-adv-x="1090" 
d="M795 700h100v-700h-100v225h-400v-225h-100v700h100v-375h400v375z" />
    <glyph glyph-name="I" unicode="I" 
d="M395 700v-700h-100v700h100z" />
    <glyph glyph-name="J" unicode="J" horiz-adv-x="848" 
d="M563 250v450h100v-450q0 -104 -73.5 -177t-176.5 -73q-123 0 -198 98l79 60q45 -58 119 -58q62 0 106 44t44 106z" />
    <glyph glyph-name="K" unicode="K" horiz-adv-x="995" 
d="M845 0h-118l-220 351l-112 -122v-229h-100v700h100v-324l297 324h136l-250 -273z" />
    <glyph glyph-name="L" unicode="L" horiz-adv-x="920" 
d="M395 700v-600h400v-100h-500v700h100z" />
    <glyph glyph-name="M" unicode="M" horiz-adv-x="1134" 
d="M857 0l-36 468l-203 -220l-204 220l-36 -468h-100l54 700h4l282 -304l281 304h5l54 -700h-101z" />
    <glyph glyph-name="N" unicode="N" horiz-adv-x="1090" 
d="M795 700h100v-700h-6l-494 472v-472h-100v700h5l495 -472v472z" />
    <glyph glyph-name="O" unicode="O" horiz-adv-x="990" 
d="M895 350q0 -145 -102.5 -247.5t-247.5 -102.5t-247.5 102.5t-102.5 247.5t102.5 247.5t247.5 102.5t247.5 -102.5t102.5 -247.5zM545 600q-103 0 -176.5 -73t-73.5 -177t73.5 -177t176.5 -73t176.5 73t73.5 177t-73.5 177t-176.5 73z" />
    <glyph glyph-name="P" unicode="P" horiz-adv-x="900" 
d="M295 700h250q103 0 176.5 -73t73.5 -177t-73.5 -177t-176.5 -73h-150v-200h-100v700zM395 300h150q62 0 106 44t44 106t-44 106t-106 44h-150v-300z" />
    <glyph glyph-name="Q" unicode="Q" horiz-adv-x="1040" 
d="M905 350q0 -152 -111 -256l62 -94h-120l-24 37q-72 -37 -157 -37q-145 0 -247.5 102.5t-102.5 247.5t102.5 247.5t247.5 102.5t247.5 -102.5t102.5 -247.5zM555 100q51 0 101 21l-60 93h119l23 -34q67 72 67 170q0 104 -73.5 177t-176.5 73t-176.5 -73t-73.5 -177
t73.5 -177t176.5 -73z" />
    <glyph glyph-name="R" unicode="R" horiz-adv-x="963" 
d="M654 225l148 -225h-120l-131 200h-6h-150v-200h-100v700h250q103 0 176.5 -73t73.5 -177q0 -73 -38.5 -133.5t-102.5 -91.5zM395 600v-300h150q62 0 106 44t44 106t-44 106t-106 44h-150z" />
    <glyph glyph-name="S" unicode="S" horiz-adv-x="780" 
d="M445 600q-41 0 -70.5 -29.5t-29.5 -70.5t29.5 -70.5t70.5 -29.5q83 0 141.5 -59t58.5 -141q0 -83 -58.5 -141.5t-141.5 -58.5q-64 0 -116 37t-73 96l95 34q10 -30 35.5 -48.5t58.5 -18.5q41 0 70.5 29.5t29.5 70.5t-29.5 70.5t-70.5 29.5q-83 0 -141.5 58.5t-58.5 141.5
t58.5 141.5t141.5 58.5q64 0 116 -37t73 -96l-95 -34q-10 29 -36 48t-58 19z" />
    <glyph glyph-name="T" unicode="T" horiz-adv-x="950" 
d="M225 700h600v-100h-250v-600h-100v600h-250v100z" />
    <glyph glyph-name="U" unicode="U" horiz-adv-x="1050" 
d="M875 300q0 -124 -87.5 -212t-212.5 -88t-212.5 88t-87.5 212v400h100v-400q0 -83 58.5 -141.5t141.5 -58.5t141.5 58.5t58.5 141.5v400h100v-400z" />
    <glyph glyph-name="V" unicode="V" horiz-adv-x="985" 
d="M819 700h114l-383 -700h-15l-383 700h114l277 -506z" />
    <glyph glyph-name="W" unicode="W" horiz-adv-x="1133" 
d="M617 420l-161 -420h-11l-268 700h107l166 -435l167 435l166 -435l167 435h107l-268 -700h-11z" />
    <glyph glyph-name="X" unicode="X" horiz-adv-x="940" 
d="M579 360l226 -360h-118l-167 266l-167 -266h-118l226 360l-214 340h119l154 -246l154 246h118z" />
    <glyph glyph-name="Y" unicode="Y" horiz-adv-x="893" 
d="M710 700h118l-282 -449v-251h-100v251l-281 449h118l213 -340z" />
    <glyph glyph-name="Z" unicode="Z" horiz-adv-x="864" 
d="M247 700h485l-331 -600h331v-100h-500l331 600h-316v100z" />
    <glyph glyph-name="bracketleft" unicode="[" horiz-adv-x="595" 
d="M450 800v-100h-75v-700h75v-100h-175v900h175z" />
    <glyph glyph-name="backslash" unicode="\" horiz-adv-x="710" 
d="M646 27l-87 -50l-395 696l87 50z" />
    <glyph glyph-name="bracketright" unicode="]" horiz-adv-x="595" 
d="M245 700v100h175v-900h-175v100h75v700h-75z" />
    <glyph glyph-name="asciicircum" unicode="^" horiz-adv-x="616" 
d="M358 388l127 -39l-15 -48l-112 35l-112 -35l-15 48z" />
    <glyph glyph-name="underscore" unicode="_" horiz-adv-x="700" 
d="M700 -175h-700v100h700v-100z" />
    <glyph glyph-name="grave" unicode="`" horiz-adv-x="616" 
d="M470 789l-239 74l15 48l239 -74z" />
    <glyph glyph-name="a" unicode="a" horiz-adv-x="1085" 
d="M869 0l-69 125h-416l-68 -125h-114l390 714l391 -714h-114zM439 225h307l-154 281z" />
    <glyph glyph-name="b" unicode="b" horiz-adv-x="1030" 
d="M798 371q44 -27 70.5 -72t26.5 -99q0 -83 -58.5 -141.5t-141.5 -58.5h-400v700h350q83 0 141.5 -59t58.5 -141q0 -72 -47 -129zM645 600h-250v-200h250q41 0 70.5 29.5t29.5 70.5t-29.5 70.5t-70.5 29.5zM395 100h300q41 0 70.5 29.5t29.5 70.5t-29.5 70.5t-70.5 29.5
h-300v-200z" />
    <glyph glyph-name="c" unicode="c" horiz-adv-x="939" 
d="M555 100q60 0 112.5 26.5t87.5 73.5l79 -61q-49 -64 -122 -101.5t-157 -37.5q-145 0 -247.5 102.5t-102.5 247.5t102.5 247.5t247.5 102.5q84 0 157 -37.5t122 -101.5l-79 -61q-35 47 -87.5 73.5t-112.5 26.5q-103 0 -176.5 -73t-73.5 -177t73.5 -177t176.5 -73z" />
    <glyph glyph-name="d" unicode="d" horiz-adv-x="1000" 
d="M545 0h-250v700h250q145 0 247.5 -102.5t102.5 -247.5t-102.5 -247.5t-247.5 -102.5zM395 100h150q103 0 176.5 73t73.5 177t-73.5 177t-176.5 73h-150v-500zM295 725h1l-1 -1v1z" />
    <glyph glyph-name="e" unicode="e" horiz-adv-x="980" 
d="M795 600h-400v-275h300v-100h-300v-125h400v-100h-500v700h500v-100z" />
    <glyph glyph-name="f" unicode="f" horiz-adv-x="930" 
d="M795 600h-400v-275h300v-100h-300v-225h-100v700h500v-100z" />
    <glyph glyph-name="g" unicode="g" horiz-adv-x="989" 
d="M740 171v79h-175v100h275v-217q-49 -62 -121 -97.5t-154 -35.5q-145 0 -247.5 102.5t-102.5 247.5t102.5 247.5t247.5 102.5q84 0 157 -37.5t122 -101.5l-79 -61q-35 47 -87.5 73.5t-112.5 26.5q-103 0 -176.5 -73t-73.5 -177t73.5 -177t176.5 -73q102 0 175 71z" />
    <glyph glyph-name="h" unicode="h" horiz-adv-x="1090" 
d="M795 700h100v-700h-100v225h-400v-225h-100v700h100v-375h400v375z" />
    <glyph glyph-name="i" unicode="i" 
d="M395 0h-100v700h100v-700z" />
    <glyph glyph-name="j" unicode="j" horiz-adv-x="848" 
d="M563 250v450h100v-450q0 -104 -73.5 -177t-176.5 -73q-123 0 -198 98l79 60q45 -58 119 -58q62 0 106 44t44 106z" />
    <glyph glyph-name="k" unicode="k" horiz-adv-x="995" 
d="M845 0h-118l-220 351l-112 -122v-229h-100v700h100v-324l297 324h136l-250 -273z" />
    <glyph glyph-name="l" unicode="l" horiz-adv-x="920" 
d="M395 700v-600h400v-100h-500v700h100z" />
    <glyph glyph-name="m" unicode="m" horiz-adv-x="1134" 
d="M857 0l-36 468l-203 -220l-204 220l-36 -468h-100l54 700h4l282 -304l281 304h5l54 -700h-101z" />
    <glyph glyph-name="n" unicode="n" horiz-adv-x="1090" 
d="M795 700h100v-700h-6l-494 472v-472h-100v700h5l495 -472v472z" />
    <glyph glyph-name="o" unicode="o" horiz-adv-x="990" 
d="M895 350q0 -145 -102.5 -247.5t-247.5 -102.5t-247.5 102.5t-102.5 247.5t102.5 247.5t247.5 102.5t247.5 -102.5t102.5 -247.5zM545 600q-103 0 -176.5 -73t-73.5 -177t73.5 -177t176.5 -73t176.5 73t73.5 177t-73.5 177t-176.5 73z" />
    <glyph glyph-name="p" unicode="p" horiz-adv-x="900" 
d="M295 700h250q103 0 176.5 -73t73.5 -177t-73.5 -177t-176.5 -73h-150v-200h-100v700zM395 300h150q62 0 106 44t44 106t-44 106t-106 44h-150v-300z" />
    <glyph glyph-name="q" unicode="q" horiz-adv-x="1040" 
d="M905 350q0 -152 -111 -256l62 -94h-120l-24 37q-72 -37 -157 -37q-145 0 -247.5 102.5t-102.5 247.5t102.5 247.5t247.5 102.5t247.5 -102.5t102.5 -247.5zM555 100q51 0 101 21l-60 93h119l23 -34q67 72 67 170q0 104 -73.5 177t-176.5 73t-176.5 -73t-73.5 -177
t73.5 -177t176.5 -73z" />
    <glyph glyph-name="r" unicode="r" horiz-adv-x="963" 
d="M654 225l148 -225h-120l-131 200h-6h-150v-200h-100v700h250q103 0 176.5 -73t73.5 -177q0 -73 -38.5 -133.5t-102.5 -91.5zM395 600v-300h150q62 0 106 44t44 106t-44 106t-106 44h-150z" />
    <glyph glyph-name="s" unicode="s" horiz-adv-x="780" 
d="M445 600q-41 0 -70.5 -29.5t-29.5 -70.5t29.5 -70.5t70.5 -29.5q83 0 141.5 -59t58.5 -141q0 -83 -58.5 -141.5t-141.5 -58.5q-64 0 -116 37t-73 96l95 34q10 -30 35.5 -48.5t58.5 -18.5q41 0 70.5 29.5t29.5 70.5t-29.5 70.5t-70.5 29.5q-83 0 -141.5 58.5t-58.5 141.5
t58.5 141.5t141.5 58.5q64 0 116 -37t73 -96l-95 -34q-10 29 -36 48t-58 19z" />
    <glyph glyph-name="t" unicode="t" horiz-adv-x="950" 
d="M225 700h600v-100h-250v-600h-100v600h-250v100z" />
    <glyph glyph-name="u" unicode="u" horiz-adv-x="1050" 
d="M875 300q0 -124 -87.5 -212t-212.5 -88t-212.5 88t-87.5 212v400h100v-400q0 -83 58.5 -141.5t141.5 -58.5t141.5 58.5t58.5 141.5v400h100v-400z" />
    <glyph glyph-name="v" unicode="v" horiz-adv-x="985" 
d="M819 700h114l-383 -700h-15l-383 700h114l277 -506z" />
    <glyph glyph-name="w" unicode="w" horiz-adv-x="1133" 
d="M617 420l-161 -420h-11l-268 700h107l166 -435l167 435l166 -435l167 435h107l-268 -700h-11z" />
    <glyph glyph-name="x" unicode="x" horiz-adv-x="940" 
d="M579 360l226 -360h-118l-167 266l-167 -266h-118l226 360l-214 340h119l154 -246l154 246h118z" />
    <glyph glyph-name="y" unicode="y" horiz-adv-x="893" 
d="M710 700h118l-282 -449v-251h-100v251l-281 449h118l213 -340z" />
    <glyph glyph-name="z" unicode="z" horiz-adv-x="864" 
d="M247 700h485l-331 -600h331v-100h-500l331 600h-316v100z" />
    <glyph glyph-name="braceleft" unicode="{" horiz-adv-x="646" 
d="M324 426v174q0 67 40 119.5t102 71.5l29 -95q-31 -10 -51 -36.5t-20 -59.5v-174q0 -42 -15 -76q15 -36 15 -76v-174q0 -33 20 -59.5t51 -36.5l-29 -95q-62 19 -102 71.5t-40 119.5v174q0 47 -35 76q35 29 35 76z" />
    <glyph glyph-name="bar" unicode="|" 
d="M395 -100h-100v900h100v-900z" />
    <glyph glyph-name="braceright" unicode="}" horiz-adv-x="645" 
d="M421 600v-174q0 -47 36 -76q-36 -29 -36 -76v-174q0 -67 -39.5 -119.5t-101.5 -71.5l-29 95q31 10 50.5 36.5t19.5 59.5v174q0 36 15 76q-15 38 -15 76v174q0 33 -19.5 59.5t-50.5 36.5l29 95q62 -19 101.5 -71.5t39.5 -119.5z" />
    <glyph glyph-name="asciitilde" unicode="~" horiz-adv-x="677" 
d="M491 317q-61 -18 -114 11q-38 20 -77 7q-17 -6 -34 -18l-31 39q23 18 51 27q58 18 114 -11q37 -20 76 -7q19 5 34 18l32 -39q-27 -20 -51 -27z" />
    <glyph glyph-name="exclamdown" unicode="&#xa1;" 
d="M295 502h100v-502h-100v502zM295 700h100v-100h-100v100z" />
    <glyph glyph-name="cent" unicode="&#xa2;" horiz-adv-x="787" 
d="M475 100q73 0 119 58l79 -60q-57 -75 -148 -93v-80h-100v80q-86 17 -143 86t-57 159t57 159t143 86v80h100v-80q91 -18 148 -93l-79 -61q-46 59 -119 59q-62 0 -106 -44t-44 -106t44 -106t106 -44z" />
    <glyph glyph-name="sterling" unicode="&#xa3;" horiz-adv-x="910" 
d="M456 100h309v-100h-500v100h50q21 0 35.5 14.5t14.5 35.5v50h-100v100h100v225q0 73 51 124t124 51q56 0 101.5 -32.5t63.5 -84.5l-94 -33q-8 22 -27.5 36t-43.5 14q-31 0 -53 -22t-22 -53v-225h100v-100h-100v-50q0 -26 -9 -50z" />
    <glyph glyph-name="currency" unicode="&#xa4;" horiz-adv-x="830" 
d="M637 248l58 -57l-71 -71l-58 58q-46 -28 -101 -28t-102 28l-57 -58l-71 71l57 57q-27 47 -27 102t27 102l-57 57l71 71l57 -58q47 28 101.5 28t101.5 -28l58 58l71 -71l-58 -57q28 -47 28 -102t-28 -102zM394 279q29 -29 70.5 -29t70.5 29q30 29 30 71t-30 71
q-29 29 -70.5 29t-70.5 -29t-29 -71t29 -71z" />
    <glyph glyph-name="yen" unicode="&#xa5;" horiz-adv-x="993" 
d="M760 700h118l-188 -300h81v-100h-144l-31 -49v-51h175v-100h-175v-100h-100v100h-175v100h175v51l-30 49h-145v100h82l-188 300h118l213 -340z" />
    <glyph glyph-name="brokenbar" unicode="&#xa6;" 
d="M395 450h-100v350h100v-350zM395 -100h-100v350h100v-350z" />
    <glyph glyph-name="section" unicode="&#xa7;" horiz-adv-x="840" 
d="M695 350q0 -84 -54 -146q29 -50 29 -104q0 -83 -58.5 -141.5t-141.5 -58.5q-64 0 -116 37t-73 96l95 34q10 -30 35.5 -48.5t58.5 -18.5q41 0 70.5 29.5t29.5 70.5q0 21 -10 44q-44 -19 -90 -19q-93 0 -159 66t-66 159q0 84 54 146q-29 48 -29 104q0 83 58.5 141.5
t141.5 58.5q64 0 116 -37t73 -96l-95 -34q-10 29 -36 48t-58 19q-41 0 -70.5 -29.5t-29.5 -70.5q0 -22 10 -44q44 19 90 19q93 0 159 -66t66 -159zM345 350q0 -52 36.5 -88.5t88.5 -36.5t88.5 36.5t36.5 88.5t-36.5 88.5t-88.5 36.5t-88.5 -36.5t-36.5 -88.5z" />
    <glyph glyph-name="dieresis" unicode="&#xa8;" horiz-adv-x="750" 
d="M325 850q0 -21 -14.5 -35.5t-35.5 -14.5t-35.5 14.5t-14.5 35.5t14.5 35.5t35.5 14.5t35.5 -14.5t14.5 -35.5zM625 850q0 -21 -14.5 -35.5t-35.5 -14.5t-35.5 14.5t-14.5 35.5t14.5 35.5t35.5 14.5t35.5 -14.5t14.5 -35.5z" />
    <glyph glyph-name="copyright" unicode="&#xa9;" 
d="M495 550q0 -62 -44 -106t-106 -44t-106 44t-44 106t44 106t106 44t106 -44t44 -106zM245 549q0 -42 29.5 -72t71.5 -30q51 0 81 41l4 5l-33 25l-4 -6q-18 -24 -48 -24q-25 0 -43 18t-18 43t18 42.5t43 17.5q30 0 48 -24l4 -5l33 24l-4 6q-30 40 -81 40q-42 0 -71.5 -29.5
t-29.5 -71.5z" />
    <glyph glyph-name="ordfeminine" unicode="&#xaa;" horiz-adv-x="612" 
d="M356 714l144 -264h-57l-18 33h-138l-18 -33h-57zM314 533h84l-42 77z" />
    <glyph glyph-name="guillemotleft" unicode="&#xab;" horiz-adv-x="738" 
d="M334 555l82 -58l-103 -147l103 -147l-82 -58l-143 205zM561 555l82 -58l-103 -147l103 -147l-82 -58l-143 205z" />
    <glyph glyph-name="logicalnot" unicode="&#xac;" horiz-adv-x="910" 
d="M235 300v100h500v-250h-100v150h-400z" />
    <glyph glyph-name="registered" unicode="&#xae;" 
d="M495 550q0 -62 -44 -106t-106 -44t-106 44t-44 106t44 106t106 44t106 -44t44 -106zM316 542v68h34q14 0 24 -10t10 -24t-10 -24t-24 -10h-34zM389 513q35 22 35 63q0 31 -21.5 52.5t-52.5 21.5h-74v-202h40v54h32l35 -54h48z" />
    <glyph glyph-name="degree" unicode="&#xb0;" horiz-adv-x="490" 
d="M395 600q0 -41 -29.5 -70.5t-70.5 -29.5t-70.5 29.5t-29.5 70.5t29.5 70.5t70.5 29.5t70.5 -29.5t29.5 -70.5zM295 650q-21 0 -35.5 -14.5t-14.5 -35.5t14.5 -35.5t35.5 -14.5t35.5 14.5t14.5 35.5t-14.5 35.5t-35.5 14.5z" />
    <glyph glyph-name="plusminus" unicode="&#xb1;" horiz-adv-x="850" 
d="M725 50h-500v100h500v-100zM525 525h200v-100h-200v-200h-100v200h-200v100h200v200h100v-200z" />
    <glyph glyph-name="twosuperior" unicode="&#xb2;" horiz-adv-x="470" 
d="M375 617q0 -31 -20 -54l-53 -63h73v-50h-180l122 145q8 10 8 22q0 14 -10 23.5t-24 9.5q-13 0 -23 -10t-10 -23q0 -9 3 -15l4 -8l-45 -22l-3 7q-9 16 -9 38q0 35 24 59t59 24t59.5 -24.5t24.5 -58.5z" />
    <glyph glyph-name="threesuperior" unicode="&#xb3;" horiz-adv-x="467" 
d="M372 700l-60 -91q49 -22 49 -76q0 -35 -24.5 -59t-58.5 -24q-54 0 -76 49l44 25q7 -24 32 -24q14 0 23.5 10t9.5 23q0 14 -9.5 24t-23.5 10h-54l55 83h-63v50h156z" />
    <glyph glyph-name="acute" unicode="&#xb4;" horiz-adv-x="616" 
d="M485 863l-239 -74l-15 48l239 74z" />
    <glyph glyph-name="mu" unicode="&#xb5;" horiz-adv-x="1090" 
d="M595 440l179 260h121v-700h-100v554l-200 -291l-200 291v-554h-100v700h121z" />
    <glyph glyph-name="mu" unicode="&#x3bc;" horiz-adv-x="1090" 
d="M595 440l179 260h121v-700h-100v554l-200 -291l-200 291v-554h-100v700h121z" />
    <glyph glyph-name="paragraph" unicode="&#xb6;" horiz-adv-x="860" 
d="M405 700h300v-100h-50v-600h-100v600h-50v-600h-100v300q-83 0 -141.5 58.5t-58.5 141.5t58.5 141.5t141.5 58.5z" />
    <glyph glyph-name="periodcentered" unicode="&#xb7;" horiz-adv-x="390" 
d="M295 350q0 -21 -14.5 -35.5t-35.5 -14.5t-35.5 14.5t-14.5 35.5t14.5 35.5t35.5 14.5t35.5 -14.5t14.5 -35.5z" />
    <glyph glyph-name="cedilla" unicode="&#xb8;" horiz-adv-x="425" 
d="M250 -75v75h50v-100h-75v25h25z" />
    <glyph glyph-name="onesuperior" unicode="&#xb9;" horiz-adv-x="340" 
d="M245 450h-50v250h50v-250z" />
    <glyph glyph-name="ordmasculine" unicode="&#xba;" horiz-adv-x="600" 
d="M475 575q0 -52 -36.5 -88.5t-88.5 -36.5t-88.5 36.5t-36.5 88.5t36.5 88.5t88.5 36.5t88.5 -36.5t36.5 -88.5zM350 650q-31 0 -53 -22t-22 -53t22 -53t53 -22t53 22t22 53t-22 53t-53 22z" />
    <glyph glyph-name="guillemotright" unicode="&#xbb;" horiz-adv-x="738" 
d="M196 497l82 58l143 -205l-143 -205l-82 58l103 147zM423 497l82 58l143 -205l-143 -205l-82 58l103 147z" />
    <glyph glyph-name="onequarter" unicode="&#xbc;" horiz-adv-x="1007" 
d="M334 450h-50v250h50v-250zM315 -14l-60 45l518 684l59 -46zM722 254l49 -11l-31 -135h38v100h50v-100h34v-50h-34v-58h-50v58h-101z" />
    <glyph glyph-name="onehalf" unicode="&#xbd;" horiz-adv-x="1005" 
d="M334 450h-50v250h50v-250zM314 -14l-59 45l517 684l60 -46zM860 167q0 -31 -20 -54l-53 -63h73v-50h-180l122 145q8 10 8 22q0 14 -10 23.5t-24 9.5t-23.5 -10t-9.5 -23q0 -9 4 -16l3 -7l-44 -22l-4 7q-9 17 -9 38q0 35 24.5 59t58.5 24q35 0 59.5 -24.5t24.5 -58.5z" />
    <glyph glyph-name="threequarters" unicode="&#xbe;" horiz-adv-x="1022" 
d="M422 700l-60 -91q22 -10 36 -30.5t14 -45.5q0 -34 -24.5 -58.5t-59.5 -24.5q-52 0 -76 49l44 25q7 -24 32 -24q14 0 24 9.5t10 23.5t-10 24t-24 10h-54l55 83h-63v50h156zM330 -14l-60 45l518 684l59 -46zM737 254l49 -11l-31 -135h38v100h50v-100h34v-50h-34v-58h-50v58
h-101z" />
    <glyph glyph-name="questiondown" unicode="&#xbf;" horiz-adv-x="703" 
d="M357 700h100v-100h-100v100zM407 -1q-88 0 -150 62.5t-62 150.5q0 74 46 132t116 75v81h100v-176h-50q-47 0 -79.5 -33t-32.5 -79q0 -47 33 -80t79 -33q34 0 62 18.5t41 48.5l92 -40q-25 -57 -78 -92t-117 -35z" />
    <glyph glyph-name="Agrave" unicode="&#xc0;" horiz-adv-x="1085" 
d="M717 837l-14 -48l-239 74l14 48zM869 0l-68 125h-416l-69 -125h-114l391 714l390 -714h-114zM439 225h307l-153 281z" />
    <glyph glyph-name="Aacute" unicode="&#xc1;" horiz-adv-x="1085" 
d="M479 789l-15 48l239 74l15 -48zM869 0l-68 125h-416l-69 -125h-114l391 714l390 -714h-114zM439 225h307l-153 281z" />
    <glyph glyph-name="Acircumflex" unicode="&#xc2;" horiz-adv-x="1085" 
d="M719 837l-14 -48l-113 35l-112 -35l-14 48l126 39zM869 0l-68 125h-417l-68 -125h-114l390 714l391 -714h-114zM439 225h307l-154 281z" />
    <glyph glyph-name="Atilde" unicode="&#xc3;" horiz-adv-x="1085" 
d="M695 806q-60 -18 -114 11q-37 20 -76 7q-20 -7 -34 -18l-32 39q24 18 51 27q60 18 114 -11q38 -20 77 -7q18 4 33 18l32 -39q-25 -20 -51 -27zM869 0l-68 125h-416l-69 -125h-114l391 714l390 -714h-114zM439 225h307l-153 281z" />
    <glyph glyph-name="Adieresis" unicode="&#xc4;" horiz-adv-x="1085" 
d="M492 850q0 -21 -14.5 -35.5t-35.5 -14.5q-20 0 -35 14.5t-15 35.5q0 20 15 35t35 15q21 0 35.5 -15t14.5 -35zM792 850q0 -21 -14.5 -35.5t-35.5 -14.5q-20 0 -35 14.5t-15 35.5q0 20 15 35t35 15q21 0 35.5 -15t14.5 -35zM869 0l-69 125h-416l-68 -125h-114l390 714
l391 -714h-114zM439 225h307l-154 281z" />
    <glyph glyph-name="Aring" unicode="&#xc5;" horiz-adv-x="1085" 
d="M667 875q0 -31 -22 -53t-53 -22t-53 22t-22 53t22 53t53 22t53 -22t22 -53zM592 900q-10 0 -17.5 -7t-7.5 -18t7.5 -18t17.5 -7t17.5 7t7.5 18t-7.5 18t-17.5 7zM868 0l-68 125h-416l-68 -125h-114l390 714l390 -714h-114zM439 225h306l-153 281z" />
    <glyph glyph-name="AE" unicode="&#xc6;" horiz-adv-x="1348" 
d="M1163 600h-400v-275h300v-100h-300v-125h400v-100h-500v100h-292l-55 -100h-114l382 700h579v-100zM425 200h238v400h-19z" />
    <glyph glyph-name="Ccedilla" unicode="&#xc7;" horiz-adv-x="939" 
d="M555 100q60 0 112.5 26.5t87.5 73.5l79 -61q-45 -60 -111 -96.5t-143 -41.5v-101h-75v25h25v76q-137 10 -231 110.5t-94 238.5q0 145 102.5 247.5t247.5 102.5q84 0 157 -37.5t122 -101.5l-79 -61q-35 47 -87.5 73.5t-112.5 26.5q-103 0 -176.5 -73t-73.5 -177t73.5 -177
t176.5 -73z" />
    <glyph glyph-name="Egrave" unicode="&#xc8;" horiz-adv-x="980" 
d="M672 837l-15 -48l-239 74l15 48zM795 600h-400v-275h300v-100h-300v-125h400v-100h-500v700h500v-100z" />
    <glyph glyph-name="Eacute" unicode="&#xc9;" horiz-adv-x="980" 
d="M433 789l-15 48l239 74l15 -48zM795 600h-400v-275h300v-100h-300v-125h400v-100h-500v700h500v-100z" />
    <glyph glyph-name="Ecircumflex" unicode="&#xca;" horiz-adv-x="980" 
d="M672 837l-15 -48l-112 35l-112 -35l-15 48l127 39zM795 600h-400v-275h300v-100h-300v-125h400v-100h-500v700h500v-100z" />
    <glyph glyph-name="Edieresis" unicode="&#xcb;" horiz-adv-x="980" 
d="M445 850q0 -21 -14.5 -35.5t-35.5 -14.5q-20 0 -35 14.5t-15 35.5t15 35.5t35 14.5q21 0 35.5 -14.5t14.5 -35.5zM745 850q0 -21 -14.5 -35.5t-35.5 -14.5q-20 0 -35 14.5t-15 35.5t15 35.5t35 14.5q21 0 35.5 -14.5t14.5 -35.5zM795 600h-400v-275h300v-100h-300v-125
h400v-100h-500v700h500v-100z" />
    <glyph glyph-name="Igrave" unicode="&#xcc;" 
d="M457 789l-239 74l15 48l239 -74zM395 0h-100v700h100v-700z" />
    <glyph glyph-name="Iacute" unicode="&#xcd;" 
d="M472 863l-239 -74l-15 48l239 74zM395 0h-100v700h100v-700z" />
    <glyph glyph-name="Icircumflex" unicode="&#xce;" 
d="M345 876l127 -39l-15 -48l-112 35l-112 -35l-15 48zM395 0h-100v700h100v-700z" />
    <glyph glyph-name="Idieresis" unicode="&#xcf;" 
d="M245 850q0 -21 -14.5 -35.5t-35.5 -14.5t-35.5 14.5t-14.5 35.5t14.5 35.5t35.5 14.5t35.5 -14.5t14.5 -35.5zM545 850q0 -21 -14.5 -35.5t-35.5 -14.5t-35.5 14.5t-14.5 35.5t14.5 35.5t35.5 14.5t35.5 -14.5t14.5 -35.5zM395 0h-100v700h100v-700z" />
    <glyph glyph-name="Eth" unicode="&#xd0;" horiz-adv-x="1050" 
d="M345 700h250q145 0 247.5 -102.5t102.5 -247.5t-102.5 -247.5t-247.5 -102.5h-250v200h-100v100h100v400zM445 100h150q103 0 176.5 73t73.5 177t-73.5 177t-176.5 73h-150v-300h100v-100h-100v-100z" />
    <glyph glyph-name="Ntilde" unicode="&#xd1;" horiz-adv-x="1090" 
d="M698 806q-59 -18 -115 11q-36 20 -76 7q-19 -5 -34 -18l-31 39q25 20 50 27q61 18 115 -11q36 -20 76 -7q20 7 34 18l31 -39q-22 -18 -50 -27zM795 700h100v-700h-6l-494 472v-472h-100v700h5l495 -472v472z" />
    <glyph glyph-name="Ograve" unicode="&#xd2;" horiz-adv-x="990" 
d="M657 789l-239 74l15 48l239 -74zM895 350q0 -145 -102.5 -247.5t-247.5 -102.5t-247.5 102.5t-102.5 247.5t102.5 247.5t247.5 102.5t247.5 -102.5t102.5 -247.5zM545 600q-103 0 -176.5 -73t-73.5 -177t73.5 -177t176.5 -73t176.5 73t73.5 177t-73.5 177t-176.5 73z" />
    <glyph glyph-name="Oacute" unicode="&#xd3;" horiz-adv-x="990" 
d="M672 863l-239 -74l-15 48l239 74zM895 350q0 -145 -102.5 -247.5t-247.5 -102.5t-247.5 102.5t-102.5 247.5t102.5 247.5t247.5 102.5t247.5 -102.5t102.5 -247.5zM545 600q-103 0 -176.5 -73t-73.5 -177t73.5 -177t176.5 -73t176.5 73t73.5 177t-73.5 177t-176.5 73z
" />
    <glyph glyph-name="Ocircumflex" unicode="&#xd4;" horiz-adv-x="990" 
d="M545 876l127 -39l-15 -48l-112 35l-112 -35l-15 48zM895 350q0 -145 -102.5 -247.5t-247.5 -102.5t-247.5 102.5t-102.5 247.5t102.5 247.5t247.5 102.5t247.5 -102.5t102.5 -247.5zM545 600q-103 0 -176.5 -73t-73.5 -177t73.5 -177t176.5 -73t176.5 73t73.5 177
t-73.5 177t-176.5 73z" />
    <glyph glyph-name="Otilde" unicode="&#xd5;" horiz-adv-x="990" 
d="M647 806q-60 -18 -114 11q-36 20 -76 7q-17 -4 -34 -18l-31 39q22 18 50 27q61 18 115 -11q36 -20 76 -7q17 4 34 18l31 -39q-22 -18 -51 -27zM895 350q0 -145 -102.5 -247.5t-247.5 -102.5t-247.5 102.5t-102.5 247.5t102.5 247.5t247.5 102.5t247.5 -102.5
t102.5 -247.5zM545 600q-103 0 -176.5 -73t-73.5 -177t73.5 -177t176.5 -73t176.5 73t73.5 177t-73.5 177t-176.5 73z" />
    <glyph glyph-name="Odieresis" unicode="&#xd6;" horiz-adv-x="990" 
d="M445 850q0 -21 -14.5 -35.5t-35.5 -14.5t-35.5 14.5t-14.5 35.5t14.5 35.5t35.5 14.5t35.5 -14.5t14.5 -35.5zM745 850q0 -21 -14.5 -35.5t-35.5 -14.5t-35.5 14.5t-14.5 35.5t14.5 35.5t35.5 14.5t35.5 -14.5t14.5 -35.5zM895 350q0 -145 -102.5 -247.5t-247.5 -102.5
t-247.5 102.5t-102.5 247.5t102.5 247.5t247.5 102.5t247.5 -102.5t102.5 -247.5zM545 600q-103 0 -176.5 -73t-73.5 -177t73.5 -177t176.5 -73t176.5 73t73.5 177t-73.5 177t-176.5 73z" />
    <glyph glyph-name="multiply" unicode="&#xd7;" horiz-adv-x="817" 
d="M470 421l141 141l71 -71l-141 -141l141 -141l-71 -71l-141 141l-141 -141l-71 71l141 141l-141 141l71 71z" />
    <glyph glyph-name="Oslash" unicode="&#xd8;" horiz-adv-x="1038" 
d="M852 704l71 -71l-74 -73q70 -94 70 -210q0 -145 -102.5 -247.5t-247.5 -102.5q-116 0 -210 70l-73 -74l-71 71l74 73q-70 94 -70 210q0 145 102.5 247.5t247.5 102.5q116 0 210 -70zM319 350q0 -75 41 -138l347 347q-63 41 -138 41q-103 0 -176.5 -73t-73.5 -177z
M819 350q0 75 -41 138l-347 -347q63 -41 138 -41q103 0 176.5 73t73.5 177z" />
    <glyph glyph-name="Ugrave" unicode="&#xd9;" horiz-adv-x="1050" 
d="M687 789l-239 74l15 48l239 -74zM875 300q0 -124 -87.5 -212t-212.5 -88t-212.5 88t-87.5 212v400h100v-400q0 -83 58.5 -141.5t141.5 -58.5t141.5 58.5t58.5 141.5v400h100v-400z" />
    <glyph glyph-name="Uacute" unicode="&#xda;" horiz-adv-x="1050" 
d="M702 863l-239 -74l-15 48l239 74zM875 300q0 -124 -87.5 -212t-212.5 -88t-212.5 88t-87.5 212v400h100v-400q0 -83 58.5 -141.5t141.5 -58.5t141.5 58.5t58.5 141.5v400h100v-400z" />
    <glyph glyph-name="Ucircumflex" unicode="&#xdb;" horiz-adv-x="1050" 
d="M575 876l127 -39l-15 -48l-112 35l-112 -35l-15 48zM875 300q0 -124 -87.5 -212t-212.5 -88t-212.5 88t-87.5 212v400h100v-400q0 -83 58.5 -141.5t141.5 -58.5t141.5 58.5t58.5 141.5v400h100v-400z" />
    <glyph glyph-name="Udieresis" unicode="&#xdc;" horiz-adv-x="1050" 
d="M475 850q0 -21 -14.5 -35.5t-35.5 -14.5t-35.5 14.5t-14.5 35.5t14.5 35.5t35.5 14.5t35.5 -14.5t14.5 -35.5zM775 850q0 -21 -14.5 -35.5t-35.5 -14.5t-35.5 14.5t-14.5 35.5t14.5 35.5t35.5 14.5t35.5 -14.5t14.5 -35.5zM875 300q0 -124 -87.5 -212t-212.5 -88
t-212.5 88t-87.5 212v400h100v-400q0 -83 58.5 -141.5t141.5 -58.5t141.5 58.5t58.5 141.5v400h100v-400z" />
    <glyph glyph-name="Yacute" unicode="&#xdd;" horiz-adv-x="893" 
d="M623 863l-239 -74l-15 48l239 74zM710 700h118l-282 -449v-251h-100v251l-281 449h118l213 -340z" />
    <glyph glyph-name="Thorn" unicode="&#xde;" horiz-adv-x="930" 
d="M395 600h150q103 0 176.5 -73t73.5 -177t-73.5 -177t-176.5 -73h-150v-100h-100v700h100v-100zM395 200h150q62 0 106 44t44 106t-44 106t-106 44h-150v-300z" />
    <glyph glyph-name="germandbls" unicode="&#xdf;" horiz-adv-x="890" 
d="M636 217q59 -59 59 -141v-76h-100v76q0 41 -29 70q-58 59 -58 141.5t58 141.5q29 29 29 71q0 41 -29.5 70.5t-70.5 29.5t-70.5 -29.5t-29.5 -70.5v-500h-100v500q0 83 58.5 141.5t141.5 58.5t141.5 -59t58.5 -141q0 -84 -59 -141q-29 -30 -29 -71.5t29 -70.5z" />
    <glyph glyph-name="agrave" unicode="&#xe0;" horiz-adv-x="1085" 
d="M717 837l-14 -48l-239 74l14 48zM869 0l-68 125h-416l-69 -125h-114l391 714l390 -714h-114zM439 225h307l-153 281z" />
    <glyph glyph-name="aacute" unicode="&#xe1;" horiz-adv-x="1085" 
d="M479 789l-15 48l239 74l15 -48zM869 0l-68 125h-416l-69 -125h-114l391 714l390 -714h-114zM439 225h307l-153 281z" />
    <glyph glyph-name="acircumflex" unicode="&#xe2;" horiz-adv-x="1085" 
d="M719 837l-14 -48l-113 35l-112 -35l-14 48l126 39zM869 0l-68 125h-417l-68 -125h-114l390 714l391 -714h-114zM439 225h307l-154 281z" />
    <glyph glyph-name="atilde" unicode="&#xe3;" horiz-adv-x="1085" 
d="M695 806q-60 -18 -114 11q-37 20 -76 7q-20 -7 -34 -18l-32 39q24 18 51 27q60 18 114 -11q38 -20 77 -7q18 4 33 18l32 -39q-25 -20 -51 -27zM869 0l-68 125h-416l-69 -125h-114l391 714l390 -714h-114zM439 225h307l-153 281z" />
    <glyph glyph-name="adieresis" unicode="&#xe4;" horiz-adv-x="1085" 
d="M492 850q0 -21 -14.5 -35.5t-35.5 -14.5q-20 0 -35 14.5t-15 35.5q0 20 15 35t35 15q21 0 35.5 -15t14.5 -35zM792 850q0 -21 -14.5 -35.5t-35.5 -14.5q-20 0 -35 14.5t-15 35.5q0 20 15 35t35 15q21 0 35.5 -15t14.5 -35zM869 0l-69 125h-416l-68 -125h-114l390 714
l391 -714h-114zM439 225h307l-154 281z" />
    <glyph glyph-name="aring" unicode="&#xe5;" horiz-adv-x="1085" 
d="M667 875q0 -31 -22 -53t-53 -22t-53 22t-22 53t22 53t53 22t53 -22t22 -53zM592 900q-10 0 -17.5 -7t-7.5 -18t7.5 -18t17.5 -7t17.5 7t7.5 18t-7.5 18t-17.5 7zM868 0l-68 125h-416l-68 -125h-114l390 714l390 -714h-114zM439 225h306l-153 281z" />
    <glyph glyph-name="ae" unicode="&#xe6;" horiz-adv-x="1348" 
d="M1163 600h-400v-275h300v-100h-300v-125h400v-100h-500v100h-292l-55 -100h-114l382 700h579v-100zM425 200h238v400h-19z" />
    <glyph glyph-name="ccedilla" unicode="&#xe7;" horiz-adv-x="939" 
d="M555 100q60 0 112.5 26.5t87.5 73.5l79 -61q-45 -60 -111 -96.5t-143 -41.5v-101h-75v25h25v76q-137 10 -231 110.5t-94 238.5q0 145 102.5 247.5t247.5 102.5q84 0 157 -37.5t122 -101.5l-79 -61q-35 47 -87.5 73.5t-112.5 26.5q-103 0 -176.5 -73t-73.5 -177t73.5 -177
t176.5 -73z" />
    <glyph glyph-name="egrave" unicode="&#xe8;" horiz-adv-x="980" 
d="M672 837l-15 -48l-239 74l15 48zM795 600h-400v-275h300v-100h-300v-125h400v-100h-500v700h500v-100z" />
    <glyph glyph-name="eacute" unicode="&#xe9;" horiz-adv-x="980" 
d="M433 789l-15 48l239 74l15 -48zM795 600h-400v-275h300v-100h-300v-125h400v-100h-500v700h500v-100z" />
    <glyph glyph-name="ecircumflex" unicode="&#xea;" horiz-adv-x="980" 
d="M672 837l-15 -48l-112 35l-112 -35l-15 48l127 39zM795 600h-400v-275h300v-100h-300v-125h400v-100h-500v700h500v-100z" />
    <glyph glyph-name="edieresis" unicode="&#xeb;" horiz-adv-x="980" 
d="M445 850q0 -21 -14.5 -35.5t-35.5 -14.5q-20 0 -35 14.5t-15 35.5t15 35.5t35 14.5q21 0 35.5 -14.5t14.5 -35.5zM745 850q0 -21 -14.5 -35.5t-35.5 -14.5q-20 0 -35 14.5t-15 35.5t15 35.5t35 14.5q21 0 35.5 -14.5t14.5 -35.5zM795 600h-400v-275h300v-100h-300v-125
h400v-100h-500v700h500v-100z" />
    <glyph glyph-name="igrave" unicode="&#xec;" horiz-adv-x="565" 
d="M457 789l-239 74l15 48l239 -74zM395 0h-100v700h100v-700z" />
    <glyph glyph-name="iacute" unicode="&#xed;" 
d="M472 863l-239 -74l-15 48l239 74zM395 0h-100v700h100v-700z" />
    <glyph glyph-name="icircumflex" unicode="&#xee;" 
d="M345 876l127 -39l-15 -48l-112 35l-112 -35l-15 48zM395 0h-100v700h100v-700z" />
    <glyph glyph-name="idieresis" unicode="&#xef;" 
d="M245 850q0 -21 -14.5 -35.5t-35.5 -14.5t-35.5 14.5t-14.5 35.5t14.5 35.5t35.5 14.5t35.5 -14.5t14.5 -35.5zM545 850q0 -21 -14.5 -35.5t-35.5 -14.5t-35.5 14.5t-14.5 35.5t14.5 35.5t35.5 14.5t35.5 -14.5t14.5 -35.5zM395 0h-100v700h100v-700z" />
    <glyph glyph-name="eth" unicode="&#xf0;" horiz-adv-x="1050" 
d="M345 700h250q145 0 247.5 -102.5t102.5 -247.5t-102.5 -247.5t-247.5 -102.5h-250v200h-100v100h100v400zM445 100h150q103 0 176.5 73t73.5 177t-73.5 177t-176.5 73h-150v-300h100v-100h-100v-100z" />
    <glyph glyph-name="ntilde" unicode="&#xf1;" horiz-adv-x="1090" 
d="M698 806q-59 -18 -115 11q-36 20 -76 7q-19 -5 -34 -18l-31 39q25 20 50 27q61 18 115 -11q36 -20 76 -7q20 7 34 18l31 -39q-22 -18 -50 -27zM795 700h100v-700h-6l-494 472v-472h-100v700h5l495 -472v472z" />
    <glyph glyph-name="ograve" unicode="&#xf2;" horiz-adv-x="990" 
d="M657 789l-239 74l15 48l239 -74zM895 350q0 -145 -102.5 -247.5t-247.5 -102.5t-247.5 102.5t-102.5 247.5t102.5 247.5t247.5 102.5t247.5 -102.5t102.5 -247.5zM545 600q-103 0 -176.5 -73t-73.5 -177t73.5 -177t176.5 -73t176.5 73t73.5 177t-73.5 177t-176.5 73z" />
    <glyph glyph-name="oacute" unicode="&#xf3;" horiz-adv-x="990" 
d="M672 863l-239 -74l-15 48l239 74zM895 350q0 -145 -102.5 -247.5t-247.5 -102.5t-247.5 102.5t-102.5 247.5t102.5 247.5t247.5 102.5t247.5 -102.5t102.5 -247.5zM545 600q-103 0 -176.5 -73t-73.5 -177t73.5 -177t176.5 -73t176.5 73t73.5 177t-73.5 177t-176.5 73z
" />
    <glyph glyph-name="ocircumflex" unicode="&#xf4;" horiz-adv-x="990" 
d="M545 876l127 -39l-15 -48l-112 35l-112 -35l-15 48zM895 350q0 -145 -102.5 -247.5t-247.5 -102.5t-247.5 102.5t-102.5 247.5t102.5 247.5t247.5 102.5t247.5 -102.5t102.5 -247.5zM545 600q-103 0 -176.5 -73t-73.5 -177t73.5 -177t176.5 -73t176.5 73t73.5 177
t-73.5 177t-176.5 73z" />
    <glyph glyph-name="otilde" unicode="&#xf5;" horiz-adv-x="990" 
d="M647 806q-60 -18 -114 11q-36 20 -76 7q-17 -4 -34 -18l-31 39q22 18 50 27q61 18 115 -11q36 -20 76 -7q17 4 34 18l31 -39q-22 -18 -51 -27zM895 350q0 -145 -102.5 -247.5t-247.5 -102.5t-247.5 102.5t-102.5 247.5t102.5 247.5t247.5 102.5t247.5 -102.5
t102.5 -247.5zM545 600q-103 0 -176.5 -73t-73.5 -177t73.5 -177t176.5 -73t176.5 73t73.5 177t-73.5 177t-176.5 73z" />
    <glyph glyph-name="odieresis" unicode="&#xf6;" horiz-adv-x="990" 
d="M445 850q0 -21 -14.5 -35.5t-35.5 -14.5t-35.5 14.5t-14.5 35.5t14.5 35.5t35.5 14.5t35.5 -14.5t14.5 -35.5zM745 850q0 -21 -14.5 -35.5t-35.5 -14.5t-35.5 14.5t-14.5 35.5t14.5 35.5t35.5 14.5t35.5 -14.5t14.5 -35.5zM895 350q0 -145 -102.5 -247.5t-247.5 -102.5
t-247.5 102.5t-102.5 247.5t102.5 247.5t247.5 102.5t247.5 -102.5t102.5 -247.5zM545 600q-103 0 -176.5 -73t-73.5 -177t73.5 -177t176.5 -73t176.5 73t73.5 177t-73.5 177t-176.5 73z" />
    <glyph glyph-name="divide" unicode="&#xf7;" horiz-adv-x="850" 
d="M550 550q0 -31 -22 -53t-53 -22t-53 22t-22 53t22 53t53 22t53 -22t22 -53zM725 300h-500v100h500v-100zM550 150q0 -31 -22 -53t-53 -22t-53 22t-22 53t22 53t53 22t53 -22t22 -53z" />
    <glyph glyph-name="oslash" unicode="&#xf8;" horiz-adv-x="1038" 
d="M852 704l71 -71l-74 -73q70 -94 70 -210q0 -145 -102.5 -247.5t-247.5 -102.5q-116 0 -210 70l-73 -74l-71 71l74 73q-70 94 -70 210q0 145 102.5 247.5t247.5 102.5q116 0 210 -70zM319 350q0 -75 41 -138l347 347q-63 41 -138 41q-103 0 -176.5 -73t-73.5 -177z
M819 350q0 75 -41 138l-347 -347q63 -41 138 -41q103 0 176.5 73t73.5 177z" />
    <glyph glyph-name="ugrave" unicode="&#xf9;" horiz-adv-x="1050" 
d="M687 789l-239 74l15 48l239 -74zM875 300q0 -124 -87.5 -212t-212.5 -88t-212.5 88t-87.5 212v400h100v-400q0 -83 58.5 -141.5t141.5 -58.5t141.5 58.5t58.5 141.5v400h100v-400z" />
    <glyph glyph-name="uacute" unicode="&#xfa;" horiz-adv-x="1050" 
d="M702 863l-239 -74l-15 48l239 74zM875 300q0 -124 -87.5 -212t-212.5 -88t-212.5 88t-87.5 212v400h100v-400q0 -83 58.5 -141.5t141.5 -58.5t141.5 58.5t58.5 141.5v400h100v-400z" />
    <glyph glyph-name="ucircumflex" unicode="&#xfb;" horiz-adv-x="1050" 
d="M575 876l127 -39l-15 -48l-112 35l-112 -35l-15 48zM875 300q0 -124 -87.5 -212t-212.5 -88t-212.5 88t-87.5 212v400h100v-400q0 -83 58.5 -141.5t141.5 -58.5t141.5 58.5t58.5 141.5v400h100v-400z" />
    <glyph glyph-name="udieresis" unicode="&#xfc;" horiz-adv-x="1050" 
d="M475 850q0 -21 -14.5 -35.5t-35.5 -14.5t-35.5 14.5t-14.5 35.5t14.5 35.5t35.5 14.5t35.5 -14.5t14.5 -35.5zM775 850q0 -21 -14.5 -35.5t-35.5 -14.5t-35.5 14.5t-14.5 35.5t14.5 35.5t35.5 14.5t35.5 -14.5t14.5 -35.5zM875 300q0 -124 -87.5 -212t-212.5 -88
t-212.5 88t-87.5 212v400h100v-400q0 -83 58.5 -141.5t141.5 -58.5t141.5 58.5t58.5 141.5v400h100v-400z" />
    <glyph glyph-name="yacute" unicode="&#xfd;" horiz-adv-x="893" 
d="M623 863l-239 -74l-15 48l239 74zM710 700h118l-282 -449v-251h-100v251l-281 449h118l213 -340z" />
    <glyph glyph-name="thorn" unicode="&#xfe;" horiz-adv-x="930" 
d="M395 600h150q103 0 176.5 -73t73.5 -177t-73.5 -177t-176.5 -73h-150v-100h-100v700h100v-100zM395 200h150q62 0 106 44t44 106t-44 106t-106 44h-150v-300z" />
    <glyph glyph-name="ydieresis" unicode="&#xff;" horiz-adv-x="893" 
d="M396 850q0 -21 -14.5 -35.5t-35.5 -14.5q-20 0 -35 14.5t-15 35.5t15 35.5t35 14.5q21 0 35.5 -14.5t14.5 -35.5zM696 850q0 -21 -14.5 -35.5t-35.5 -14.5q-20 0 -35 14.5t-15 35.5t15 35.5t35 14.5q21 0 35.5 -14.5t14.5 -35.5zM710 700h118l-282 -449v-251h-100v251
l-281 449h118l213 -340z" />
    <glyph glyph-name="dotlessi" unicode="&#x131;" 
d="M395 700v-700h-100v700h100z" />
    <glyph glyph-name="Lslash" unicode="&#x141;" horiz-adv-x="1000" 
d="M475 313v-213h400v-100h-500v283l-100 -30v105l100 29v313h100v-283l100 30v-105z" />
    <glyph glyph-name="lslash" unicode="&#x142;" horiz-adv-x="1000" 
d="M475 313v-213h400v-100h-500v283l-100 -30v105l100 29v313h100v-283l100 30v-105z" />
    <glyph glyph-name="OE" unicode="&#x152;" horiz-adv-x="1305" 
d="M1120 600h-400v-275h300v-100h-300v-125h400v-100h-575q-145 0 -247.5 102.5t-102.5 247.5t102.5 247.5t247.5 102.5h575v-100zM545 100h75v500h-75q-103 0 -176.5 -73t-73.5 -177t73.5 -177t176.5 -73z" />
    <glyph glyph-name="oe" unicode="&#x153;" horiz-adv-x="1305" 
d="M1120 600h-400v-275h300v-100h-300v-125h400v-100h-575q-145 0 -247.5 102.5t-102.5 247.5t102.5 247.5t247.5 102.5h575v-100zM545 100h75v500h-75q-103 0 -176.5 -73t-73.5 -177t73.5 -177t176.5 -73z" />
    <glyph glyph-name="Scaron" unicode="&#x160;" horiz-adv-x="780" 
d="M572 823l-127 -39l-127 39l15 48l112 -34l112 34zM445 600q-41 0 -70.5 -29.5t-29.5 -70.5t29.5 -70.5t70.5 -29.5q83 0 141.5 -59t58.5 -141q0 -83 -58.5 -141.5t-141.5 -58.5q-64 0 -116 37t-73 96l95 34q10 -30 35.5 -48.5t58.5 -18.5q41 0 70.5 29.5t29.5 70.5
t-29.5 70.5t-70.5 29.5q-83 0 -141.5 58.5t-58.5 141.5t58.5 141.5t141.5 58.5q64 0 116 -37t73 -96l-95 -34q-10 29 -36 48t-58 19z" />
    <glyph glyph-name="scaron" unicode="&#x161;" horiz-adv-x="780" 
d="M572 823l-127 -39l-127 39l15 48l112 -34l112 34zM445 600q-41 0 -70.5 -29.5t-29.5 -70.5t29.5 -70.5t70.5 -29.5q83 0 141.5 -59t58.5 -141q0 -83 -58.5 -141.5t-141.5 -58.5q-64 0 -116 37t-73 96l95 34q10 -30 35.5 -48.5t58.5 -18.5q41 0 70.5 29.5t29.5 70.5
t-29.5 70.5t-70.5 29.5q-83 0 -141.5 58.5t-58.5 141.5t58.5 141.5t141.5 58.5q64 0 116 -37t73 -96l-95 -34q-10 29 -36 48t-58 19z" />
    <glyph glyph-name="Ydieresis" unicode="&#x178;" horiz-adv-x="893" 
d="M396 850q0 -21 -14.5 -35.5t-35.5 -14.5q-20 0 -35 14.5t-15 35.5t15 35.5t35 14.5q21 0 35.5 -14.5t14.5 -35.5zM696 850q0 -21 -14.5 -35.5t-35.5 -14.5q-20 0 -35 14.5t-15 35.5t15 35.5t35 14.5q21 0 35.5 -14.5t14.5 -35.5zM710 700h118l-282 -449v-251h-100v251
l-281 449h118l213 -340z" />
    <glyph glyph-name="Zcaron" unicode="&#x17d;" horiz-adv-x="864" 
d="M617 823l-127 -39l-127 39l15 48l112 -34l112 34zM247 700h485l-331 -600h331v-100h-500l331 600h-316v100z" />
    <glyph glyph-name="zcaron" unicode="&#x17e;" horiz-adv-x="864" 
d="M617 823l-127 -39l-127 39l15 48l112 -34l112 34zM247 700h485l-331 -600h331v-100h-500l331 600h-316v100z" />
    <glyph glyph-name="florin" unicode="&#x192;" horiz-adv-x="774" 
d="M520 579l-18 -129h129l-14 -100h-129l-34 -245q-9 -61 -58.5 -98.5t-111.5 -29.5q-48 7 -82.5 40t-43.5 79l98 20q7 -35 42 -40q20 -2 37 10.5t19 32.5l33 231h-99l14 100h99l20 143q8 62 58 99.5t111 28.5q48 -7 82.5 -39.5t43.5 -78.5l-98 -20q-7 34 -42 39
q-20 3 -36.5 -9.5t-19.5 -33.5z" />
    <glyph glyph-name="circumflex" unicode="&#x2c6;" horiz-adv-x="616" 
d="M358 876l127 -39l-15 -48l-112 35l-112 -35l-15 48z" />
    <glyph glyph-name="caron" unicode="&#x2c7;" horiz-adv-x="616" 
d="M485 823l-127 -39l-127 39l15 48l112 -34l112 34z" />
    <glyph glyph-name="dotaccent" unicode="&#x2d9;" horiz-adv-x="450" 
d="M325 850q0 -21 -14.5 -35.5t-35.5 -14.5t-35.5 14.5t-14.5 35.5t14.5 35.5t35.5 14.5t35.5 -14.5t14.5 -35.5z" />
    <glyph glyph-name="ring" unicode="&#x2da;" horiz-adv-x="502" 
d="M376 875q0 -31 -22 -53t-53 -22t-53 22t-22 53t22 53t53 22t53 -22t22 -53zM301 900q-11 0 -18 -7t-7 -18t7 -18t18 -7t18 7t7 18t-7 18t-18 7z" />
    <glyph glyph-name="tilde" unicode="&#x2dc;" horiz-adv-x="676" 
d="M490 806q-60 -18 -114 11q-36 20 -76 7q-17 -4 -34 -18l-31 39q22 18 50 27q61 18 115 -11q36 -20 76 -7q17 4 34 18l31 -39q-23 -18 -51 -27z" />
    <glyph glyph-name="endash" unicode="&#x2013;" horiz-adv-x="850" 
d="M725 300h-500v100h500v-100z" />
    <glyph glyph-name="emdash" unicode="&#x2014;" horiz-adv-x="1350" 
d="M1225 300h-1000v100h1000v-100z" />
    <glyph glyph-name="quoteleft" unicode="&#x2018;" horiz-adv-x="450" 
d="M225 600l50 100h50v-200h-100v100z" />
    <glyph glyph-name="quoteright" unicode="&#x2019;" horiz-adv-x="450" 
d="M325 600l-50 -100h-50v200h100v-100z" />
    <glyph glyph-name="quotesinglbase" unicode="&#x201a;" horiz-adv-x="450" 
d="M325 0l-50 -100h-50v200h100v-100z" />
    <glyph glyph-name="quotedblleft" unicode="&#x201c;" horiz-adv-x="650" 
d="M425 600l50 100h50v-200h-100v100zM225 600l50 100h50v-200h-100v100z" />
    <glyph glyph-name="quotedblright" unicode="&#x201d;" horiz-adv-x="650" 
d="M525 600l-50 -100h-50v200h100v-100zM325 600l-50 -100h-50v200h100v-100z" />
    <glyph glyph-name="quotedblbase" unicode="&#x201e;" horiz-adv-x="650" 
d="M525 0l-50 -100h-50v200h100v-100zM325 0l-50 -100h-50v200h100v-100z" />
    <glyph glyph-name="dagger" unicode="&#x2020;" horiz-adv-x="750" 
d="M475 550h150v-100h-150v-450h-100v450h-150v100h150v150h100v-150z" />
    <glyph glyph-name="daggerdbl" unicode="&#x2021;" horiz-adv-x="750" 
d="M625 550v-100h-150v-200h150v-100h-150v-150h-100v150h-150v100h150v200h-150v100h150v150h100v-150h150z" />
    <glyph glyph-name="bullet" unicode="&#x2022;" horiz-adv-x="550" 
d="M425 350q0 -41 -29.5 -70.5t-70.5 -29.5t-70.5 29.5t-29.5 70.5t29.5 70.5t70.5 29.5t70.5 -29.5t29.5 -70.5z" />
    <glyph glyph-name="ellipsis" unicode="&#x2026;" horiz-adv-x="1000" 
d="M325 0h-100v100h100v-100zM600 0h-100v100h100v-100zM875 0h-100v100h100v-100z" />
    <glyph glyph-name="perthousand" unicode="&#x2030;" horiz-adv-x="1389" 
d="M495 575q0 -52 -36.5 -88.5t-88.5 -36.5t-88.5 36.5t-36.5 88.5t36.5 88.5t88.5 36.5t88.5 -36.5t36.5 -88.5zM370 650q-31 0 -53 -22t-22 -53t22 -53t53 -22t53 22t22 53t-22 53t-53 22zM329 -14l-60 45l517 684l60 -46zM1244 125q0 -52 -36.5 -88.5t-88.5 -36.5
t-88.5 36.5t-36.5 88.5t36.5 88.5t88.5 36.5t88.5 -36.5t36.5 -88.5zM1119 200q-31 0 -53 -22t-22 -53t22 -53t53 -22t53 22t22 53t-22 53t-53 22zM886 125q0 -52 -36.5 -88.5t-88.5 -36.5t-88.5 36.5t-36.5 88.5t36.5 88.5t88.5 36.5t88.5 -36.5t36.5 -88.5zM761 200
q-31 0 -53 -22t-22 -53t22 -53t53 -22t53 22t22 53t-22 53t-53 22z" />
    <glyph glyph-name="guilsinglleft" unicode="&#x2039;" horiz-adv-x="511" 
d="M334 555l82 -58l-103 -147l103 -147l-82 -58l-143 205z" />
    <glyph glyph-name="guilsinglright" unicode="&#x203a;" horiz-adv-x="511" 
d="M195 497l82 58l143 -205l-143 -205l-82 58l103 147z" />
    <glyph glyph-name="fraction" unicode="&#x2044;" horiz-adv-x="807" 
d="M225 -14l-60 45l518 684l59 -46z" />
    <glyph glyph-name="Euro" unicode="&#x20ac;" horiz-adv-x="1039" 
d="M655 100q60 0 112.5 26.5t87.5 73.5l79 -61q-49 -64 -122 -101.5t-157 -37.5q-103 0 -188 55t-128 145h-127l25 100h71q-3 24 -3 50t3 50h-78l25 100h84q43 90 128 145t188 55q84 0 157 -37.5t122 -101.5l-79 -61q-35 47 -87.5 73.5t-112.5 26.5t-112.5 -26.5
t-87.5 -73.5h150l-25 -100h-170q-5 -27 -5 -50t5 -50h177l-25 -100h-107q35 -47 87.5 -73.5t112.5 -26.5z" />
    <glyph glyph-name="afii61352" unicode="&#x2116;" horiz-adv-x="1496" 
d="M1291 65h-257v100h257v-100zM1251 418q0 34 -24 57.5t-57 23.5q-34 0 -57.5 -23.5t-23.5 -57.5t23.5 -57.5t57.5 -23.5q33 0 57 23.5t24 57.5zM1170 599q75 0 128 -53t53 -128t-53 -128t-128 -53t-128 53t-53 128t53 128t128 53zM841 0l-96 -15l-191 466
q-27 -262 -111.5 -380t-227.5 -116v100q68 -4 117.5 41t77.5 133t41 199t13 252l97 19l202 -493q6 50 16 128t41 233t61 207l87 -50q-30 -63 -66.5 -257.5t-60.5 -466.5z" />
    <glyph glyph-name="trademark" unicode="&#x2122;" horiz-adv-x="676" 
d="M262 660h-67v40h174v-40h-67v-161h-40v161zM494 635l44 65h43v-201h-40v134l-47 -69l-47 69v-134h-40v201h43z" />
    <glyph glyph-name="minus" unicode="&#x2212;" horiz-adv-x="850" 
d="M725 400v-100h-500v100h500z" />
    </font>
</defs>
</svg>
