<?xml version="1.0" standalone="no"?>
<!DOCTYPE svg PUBLIC "-//W3C//DTD SVG 1.1//EN" "http://www.w3.org/Graphics/SVG/1.1/DTD/svg11.dtd" >
<svg xmlns="http://www.w3.org/2000/svg" xmlns:xlink="http://www.w3.org/1999/xlink" version="1.1">
<metadata>
Created by FontForge 20170731 at Tue Aug 14 04:21:46 2018
 By Aleksey,,,
Copyright (c) 2018 by Kurniadi Saputra. All rights reserved.
</metadata>
<defs>
<font id="MelindaScript" horiz-adv-x="406" >
  <font-face 
    font-family="Melinda Script"
    font-weight="400"
    font-stretch="normal"
    units-per-em="1000"
    panose-1="2 0 5 7 3 0 0 2 0 4"
    ascent="800"
    descent="-200"
    x-height="513.5"
    cap-height="1033"
    bbox="-514.582 -215 2362 1100.15"
    underline-thickness="50"
    underline-position="-150"
    unicode-range="U+0020-20AC"
  />
<missing-glyph 
 />
    <glyph glyph-name=".notdef" 
 />
    <glyph glyph-name=".null" horiz-adv-x="0" 
 />
    <glyph glyph-name="nonmarkingreturn" horiz-adv-x="333" 
 />
    <glyph glyph-name="space" unicode=" " 
 />
    <glyph glyph-name="exclam" unicode="!" horiz-adv-x="344" 
d="M255 651l-165 -334q-6 -11 -19 -12.5t-28 0.5q49 88 85.5 169.5t74.5 155.5q12 22 25 22t27 -1zM24 243q11 0 18 -7t7 -17t-7 -17t-18 -7q-10 0 -17 7t-7 17t7 17t17 7z" />
    <glyph glyph-name="quotedbl" unicode="&#x22;" horiz-adv-x="233" 
d="M105 591q7 4 10.5 16t6.5 27t6.5 30t9.5 26l35 -1q-9 -12 -12.5 -30.5t-8 -34.5t-14.5 -26.5t-33 -6.5zM35 591q7 4 10.5 16t6.5 27t6.5 30t9.5 26l35 -1q-10 -12 -13 -30.5t-7.5 -34.5t-14.5 -26.5t-33 -6.5z" />
    <glyph glyph-name="numbersign" unicode="#" horiz-adv-x="737" 
d="M108 363q14 21 35 34t46.5 19t55 7t60.5 -1q16 36 32 70t33 64q7 15 14.5 21.5t15 8t15 0t15.5 -1.5l-80 -166q24 -1 48.5 -3.5t47.5 -4.5l71 146q8 15 15.5 21.5t15 8t15.5 0t16 -1.5l-88 -178q47 -1 81.5 8.5t47.5 41.5q7 -4 11.5 -6t5.5 -4.5t-1.5 -6.5t-8.5 -13
q-21 -29 -60 -36.5t-87 -5.5l-42 -84q31 -3 59.5 -3.5t51.5 4t39.5 15t24.5 29.5q7 -3 11.5 -5t6 -4.5t-0.5 -7t-9 -13.5q-13 -17 -33 -26t-45.5 -12.5t-55 -3t-59.5 3.5l-82 -165q-7 -14 -22 -16.5t-33 0.5q24 46 47.5 92t45.5 91q-49 7 -98 9l-87 -176q-8 -14 -23.5 -16.5
t-32.5 0.5q26 48 50.5 96t48.5 98q-45 -2 -80.5 -15.5t-52.5 -48.5q-13 9 -15 11t9 17q22 33 61.5 46t87.5 13l41 87q-30 1 -57 -1t-50.5 -8.5t-41.5 -19.5t-28 -35q-12 8 -15.5 10t7.5 17zM396 304l40 82q-26 2 -50 4.5t-48 4.5l-40 -82z" />
    <glyph glyph-name="dollar" unicode="$" horiz-adv-x="441" 
d="M351 604l-20 -42q19 -22 26.5 -60t-8.5 -98q-2 -5 -5 -6.5t-6 -1t-5.5 2t-3.5 1.5q15 52 11.5 88t-17.5 56q-20 -42 -41 -82.5t-43 -82.5q34 -59 36 -109t-18.5 -83t-58.5 -44.5t-82 8.5l-14 -27q-6 -14 -16.5 -12t-15.5 5l27 48q-23 24 -27 68q-1 15 5.5 15.5t12.5 -1.5
q0 -39 19 -63l101 188q-9 18 -17.5 40t-13.5 45.5t-4 46t12 41.5q10 16 25 26.5t32.5 15t36 2.5t33.5 -12q4 12 11 21q5 13 13 10.5t15 -4.5zM219 343l-93 -175q34 -17 62 -8t43 34.5t14 64.5t-26 84zM224 405q22 39 41.5 78.5t38.5 77.5q-12 9 -26 11t-27.5 -1.5t-24.5 -12
t-18 -21.5q-8 -15 -9 -32.5t2.5 -35t10 -34t12.5 -30.5z" />
    <glyph glyph-name="percent" unicode="%" horiz-adv-x="833" 
d="M390 602q-31 -62 -69 -128t-78.5 -133t-80.5 -133t-75 -127q-4 -6 -10 -8.5t-12 -2.5t-11.5 1t-8.5 2q35 61 75.5 127t81 133t78.5 134t70 129q8 12 19 10t21 -4zM209 471q-17 3 -22.5 15t-1.5 26t15.5 25t29.5 11q19 0 25.5 -12.5t2.5 -27.5t-17 -27t-32 -10zM204 118
q-16 2 -21.5 14.5t-1.5 26t15.5 24.5t28.5 11q19 1 25.5 -12t2 -28t-17.5 -26.5t-31 -9.5zM211 489q10 -1 17.5 5.5t10.5 14.5t1.5 15t-10.5 7q-6 0 -12.5 -6t-10.5 -13.5t-4 -14.5t8 -8zM208 135q9 -1 16 5.5t10.5 14.5t1.5 15t-11 7q-5 -1 -11.5 -7t-10.5 -13.5t-3.5 -14
t8.5 -7.5z" />
    <glyph glyph-name="ampersand" unicode="&#x26;" horiz-adv-x="526" 
d="M348 485q12 14 22.5 32.5t13 36t-5 30t-30.5 14.5q-16 1 -31 -7.5t-27 -22t-20 -31t-10.5 -34t1.5 -30.5t17 -21l-3 -15q-40 -5 -72 -26t-54.5 -51t-34 -63.5t-9 -62t19 -47.5t50.5 -20q29 -1 54 11t43.5 31.5t31 43.5t16 46.5t-1.5 41t-21 27.5q-28 15 -49 9.5
t-32.5 -19t-12 -27.5t14.5 -17q17 -2 27 10.5t10 26.5q1 0 3.5 0.5t5.5 -0.5t5.5 -3t1.5 -8q-5 -20 -20 -32t-37 -10q-20 3 -26 21t3.5 36.5t36 30t72.5 2.5q13 -2 34 -4.5t41 -1t35.5 9.5t17.5 28q1 10 -6.5 13.5t-16 0.5t-15.5 -11t-6 -20q-1 0 -4 -0.5t-6 -0.5t-5 2t-1 7
q3 17 15.5 27.5t27 12t25 -6t8.5 -25.5q-2 -21 -15 -32.5t-31 -16t-38.5 -4.5t-37.5 2q21 -28 15.5 -65.5t-28 -71t-58.5 -57.5t-76 -24q-45 0 -70 19.5t-32.5 49.5t1.5 65.5t32.5 69t60.5 59.5t85 36q-21 16 -22 44.5t13 56.5t41.5 47.5t64.5 16.5q27 -2 38.5 -15t12.5 -32
t-7.5 -40.5t-22.5 -40.5q-4 -5 -7.5 -6t-6.5 0t-5 3t-3 2z" />
    <glyph glyph-name="quotesingle" unicode="'" horiz-adv-x="165" 
d="M28 591q7 4 10.5 16t6.5 27t6.5 30t9.5 26l35 -1q-10 -12 -13 -30.5t-7.5 -34.5t-14.5 -26.5t-33 -6.5z" />
    <glyph glyph-name="parenleft" unicode="(" horiz-adv-x="346" 
d="M328 787q-39 -12 -76.5 -58.5t-68.5 -112.5t-54 -144t-32 -152t-3 -136.5t32 -97.5q-1 -1 -3 -3.5t-5 -4t-7 -0.5t-8 7q-33 39 -43 102.5t-3 137t30 150t57 143t76.5 115.5t89.5 67q14 5 16 -2t2 -11z" />
    <glyph glyph-name="parenright" unicode=")" horiz-adv-x="347" 
d="M-27 90q39 12 76.5 58.5t68.5 112.5t54 144t32 152t3 136.5t-32 97.5q1 1 3 3.5t5 4t6.5 0.5t8.5 -7q32 -40 42.5 -103t3.5 -136.5t-30 -150t-57 -143t-76.5 -115.5t-89.5 -67q-14 -5 -16 2t-2 11z" />
    <glyph glyph-name="asterisk" unicode="*" horiz-adv-x="375" 
d="M135 736q1 -12 10 -34t20 -48q15 20 30 38t26 30q4 -4 8.5 -7.5t7.5 -7.5t2 -9t-8 -13q-8 -9 -15 -18t-14 -19q50 3 80 0q-1 -6 -0.5 -11t-0.5 -8.5t-5 -6.5t-13 -4q-20 -3 -38.5 -5t-37.5 -4l36 -80q-11 -5 -21 -6t-18 16q-7 14 -12.5 27t-12.5 24q-10 -14 -20.5 -25.5
t-24.5 -22.5q-16 -14 -23 -8.5t-12 19.5q9 6 22 20t27 31q-19 0 -36 1t-34 4q-19 4 -21 13t2 23q13 -2 38.5 -1t55.5 2q-7 15 -12.5 30.5t-10.5 29.5q-5 20 2 24.5t23 5.5z" />
    <glyph glyph-name="plus" unicode="+" horiz-adv-x="543" 
d="M92 378h141l36 119q2 9 10 13t16 3.5t13.5 -5.5t1.5 -15l-33 -115h124q10 0 15.5 -7t5.5 -15t-6 -15t-18 -7h-133l-39 -132q-3 -10 -10.5 -13.5t-15 -2t-13 7t-3.5 12.5l38 128h-130q-11 0 -15 7t-3 15t6 15t12 7z" />
    <glyph glyph-name="comma" unicode="," horiz-adv-x="145" 
d="M60 298q1 -13 -3 -25.5t-11.5 -22.5t-19 -16t-26.5 -5q15 9 22 23.5t-3 28.5q-5 6 -1.5 11.5t10.5 8.5t16 2.5t16 -5.5z" />
    <glyph glyph-name="hyphen" unicode="-" horiz-adv-x="455" 
d="M329 376q6 0 6.5 -5t-3.5 -11t-11.5 -11t-15.5 -5h-227q-8 0 -8 5t5 11t12 11t13 5h229z" />
    <glyph glyph-name="period" unicode="." horiz-adv-x="196" 
d="M75 308q11 0 18 -7t7 -17t-7 -17t-18 -7q-10 0 -17 7t-7 17t7 17t17 7z" />
    <glyph glyph-name="slash" unicode="/" horiz-adv-x="421" 
d="M348 790q-99 -189 -207.5 -374t-219.5 -372q-6 -10 -12 -13.5t-12 -3.5t-11.5 2t-9.5 3q109 187 218.5 372t210.5 377q5 9 10 12t10.5 3t11 -2.5t11.5 -3.5z" />
    <glyph glyph-name="zero" unicode="0" horiz-adv-x="320" 
d="M43 148q-38 3 -55.5 35.5t-18 80t14.5 101.5t43 100t68 76.5t88 29.5q41 -1 58 -33.5t15 -80.5t-20.5 -103.5t-47.5 -102.5t-66.5 -76.5t-78.5 -26.5zM44 162q28 -2 54.5 13.5t50 42.5t42.5 63t31.5 73.5t17.5 74t1 65t-18 46.5t-41 18q-35 -1 -65 -30t-53.5 -73
t-38 -94.5t-18.5 -94.5t5 -73.5t32 -30.5z" />
    <glyph glyph-name="one" unicode="1" horiz-adv-x="272" 
d="M239 570l-215 -414h-45l175 336q-46 -41 -108 -57q-11 -3 -12 2t-2 8q47 11 86.5 36.5t64.5 67.5q6 12 9.5 16.5t12.5 4.5h34z" />
    <glyph glyph-name="two" unicode="2" horiz-adv-x="421" 
d="M17 208q32 3 58 -1.5t47.5 -11t41 -12.5t37.5 -5q17 0 34.5 9t37.5 32q2 -2 6 -5.5t-1 -9.5q-21 -20 -38 -29t-34 -11q-28 -3 -59.5 1t-60 7.5t-51 3.5t-31.5 -9l-34 -3q-8 13 10.5 34.5t51.5 48t74.5 56.5t79.5 61t67.5 61.5t37.5 56.5q9 35 1.5 55t-42.5 22
q-41 2 -72.5 -16.5t-53.5 -49t-35 -68t-16 -71.5q-10 -2 -13 1t-1 19q6 36 21.5 72.5t39.5 65t57 46t74 15.5q21 -1 38 -8.5t28 -20t15 -29.5t-1 -38q-7 -24 -27 -48.5t-48.5 -49t-62 -48.5t-66.5 -46t-62 -41.5t-48 -35.5z" />
    <glyph glyph-name="three" unicode="3" horiz-adv-x="403" 
d="M131 451q-11 10 -11.5 31.5t11.5 42t37.5 34.5t65.5 10q37 -6 50.5 -26t9 -43.5t-23 -45t-46.5 -29.5q38 -12 53 -37.5t12 -57t-22.5 -64.5t-51 -60.5t-73 -44.5t-88.5 -15q-46 2 -65.5 29t-16 61.5t29 67t68.5 45.5q12 4 13.5 -1t2.5 -8q-28 -6 -48.5 -21t-33.5 -34.5
t-17 -41t2 -40t22 -30.5t44 -13q41 -2 75.5 15.5t59.5 45t39.5 61t16 62.5t-11.5 50t-44 24q1 5 1 13q18 0 36 18t27.5 40t6 42t-28.5 25q-39 4 -61 -10.5t-31 -33.5t-6.5 -36t12.5 -18q1 -5 -3.5 -9t-11.5 2z" />
    <glyph glyph-name="four" unicode="4" horiz-adv-x="374" 
d="M335 570l-105 -256q11 -2 21 -4.5t19 -5.5q10 -4 8.5 -8t-3.5 -8q-18 10 -50 13l-66 -163h-45l67 166q-20 0 -44 -0.5t-48 -2t-47 -3.5t-41 -4q-2 7 -1 19.5t12 16.5q26 9 55.5 29t59.5 45t58 52.5t50 51t37 41t18 21.5h45zM38 326q34 1 73.5 0t76.5 -6l86 209
q-15 -18 -44 -49t-63 -62t-68.5 -57t-60.5 -35z" />
    <glyph glyph-name="five" unicode="5" horiz-adv-x="378" 
d="M185 524q-17 -28 -27.5 -49t-24.5 -45q48 -2 75 -23t36 -51t1.5 -64t-28 -63t-52 -47.5t-70.5 -17.5t-62.5 21t-30.5 48t4.5 59t41.5 54q10 8 13 3.5l5 -7.5q-31 -20 -43.5 -47.5t-8.5 -53t24.5 -44t56.5 -19.5q28 1 51 17.5t38.5 41.5t22 54.5t1 55.5t-24 45t-52.5 23
q-11 1 -20.5 1.5t-21.5 0.5q18 29 36.5 64t35.5 64q4 5 19 3.5t34.5 -5t41.5 -6.5t40.5 -2t31 9t13.5 26l14 -1q-2 -28 -21.5 -39t-46.5 -13t-55.5 1.5t-46.5 5.5z" />
    <glyph glyph-name="six" unicode="6" horiz-adv-x="339" 
d="M268 564q-45 -6 -84.5 -35t-70 -69t-50.5 -85t-26 -84.5t4 -67.5t40 -32q-11 34 -5.5 69t22.5 62t43 42t58 11q19 -3 28 -18t8 -36t-10.5 -45t-26.5 -45t-41 -35.5t-54 -17.5q7 -25 18 -32l-3 -13q-22 13 -33 44q-44 1 -64.5 28t-21 67t17.5 88t51.5 92t80 77.5
t103.5 45.5q10 2 13 -2t3 -9zM100 191q39 3 67.5 28.5t42.5 55.5t12 55.5t-24 30.5q-26 3 -46.5 -14.5t-33.5 -44t-18 -57t0 -54.5z" />
    <glyph glyph-name="seven" unicode="7" horiz-adv-x="353" 
d="M65 543q19 -2 43.5 -4t53 -1t61 7t68.5 21q14 6 17 1t8 -13q-33 -35 -62.5 -74.5t-54.5 -80.5q17 1 35.5 1.5t35.5 2.5v-13q-20 -2 -40 -3t-40 -1q-42 -70 -69.5 -131.5t-36.5 -93.5l-36 1q11 38 37 98.5t64 124.5l-66 3l2 13q11 -1 29.5 -1.5t41.5 -0.5q23 38 46.5 73
t49.5 64q-47 -14 -91.5 -12.5t-97.5 6.5z" />
    <glyph glyph-name="eight" unicode="8" horiz-adv-x="332" 
d="M162 383q18 -29 33 -60t14 -66q-1 -33 -19 -56t-43.5 -35t-54 -12.5t-51 10.5t-34.5 34t-4 59q7 34 37 68t88 58q-16 32 -27.5 63.5t-6.5 61.5q4 25 20 41.5t37 24.5t44 7.5t41.5 -9.5t29.5 -26t8 -42q-3 -19 -14.5 -37.5t-28 -34.5t-35 -29t-34.5 -20zM175 257
q1 24 -12 53t-29 61q-52 -22 -80 -52.5t-36 -60.5t0.5 -50.5t26 -31.5t39.5 -11.5t42 9.5t34 31t15 52zM115 509q-5 -30 8.5 -57.5t31.5 -56.5q14 7 31.5 18.5t33.5 26.5t27.5 31.5t13.5 33.5q4 29 -16.5 45.5t-47.5 18t-51.5 -13t-30.5 -46.5z" />
    <glyph glyph-name="nine" unicode="9" horiz-adv-x="335" 
d="M-30 171q51 -2 97.5 26.5t82.5 73t60 96t30.5 96t-7 73.5t-51.5 28t-64 -19t-39.5 -43.5t-14 -53t12 -47.5t38 -27t64.5 9q2 -4 2.5 -8.5t-12.5 -9.5q-48 -15 -78 -5t-43.5 33.5t-11 55t20 60t49 48t75.5 20.5q52 1 74 -31t18.5 -80t-28 -104t-66 -102.5t-95.5 -76.5
t-116 -26q0 4 0.5 7t1.5 7z" />
    <glyph glyph-name="colon" unicode=":" horiz-adv-x="307" 
d="M123 410q11 0 17 -7t4 -17q-2 -11 -10 -18t-19 -7q-9 0 -15 7t-4 18q2 10 9.5 17t17.5 7zM144 531q11 0 17 -7t4 -17t-10 -17t-19 -7q-10 0 -16 7t-4 17t10 17t18 7z" />
    <glyph glyph-name="semicolon" unicode=";" horiz-adv-x="262" 
d="M147 403q-1 -12 -6.5 -25t-15 -22.5t-21.5 -15.5t-27 -5q16 8 25.5 22.5t1.5 28.5q-4 6 0 11.5t11.5 8.5t16.5 2.5t15 -5.5zM143 531q11 0 16.5 -7t3.5 -17t-9.5 -17t-18.5 -7q-10 0 -16 7t-4 17t10 17t18 7z" />
    <glyph glyph-name="less" unicode="&#x3c;" horiz-adv-x="431" 
d="M243 191q-8 19 -28.5 42.5t-46 45.5t-50.5 41t-41 30q-5 2 -12.5 10t1.5 15q19 9 56 36t77 59.5t76.5 65t55.5 53.5q4 -20 -20 -52.5t-59.5 -67t-73.5 -64t-61 -42.5q15 -15 40.5 -38t48 -48t35 -48t2.5 -38z" />
    <glyph glyph-name="equal" unicode="=" horiz-adv-x="568" 
d="M104 282h253q7 0 8.5 -6t-1 -13.5t-9 -13.5t-15.5 -6h-251q-9 0 -10 6t2.5 13.5t10 13.5t12.5 6zM163 431h251q7 0 9.5 -6t0 -13.5t-9 -13.5t-15.5 -6h-250q-9 0 -10.5 6t2 13.5t10 13.5t12.5 6z" />
    <glyph glyph-name="greater" unicode="&#x3e;" horiz-adv-x="402" 
d="M120 589q7 -20 28 -43t46.5 -45t50.5 -41t41 -30q5 -2 12.5 -10t-1.5 -15q-19 -9 -56 -36t-77 -59.5t-76.5 -65t-55.5 -53.5q-3 13 7.5 32.5t29 41.5t43 45.5t49.5 44t47.5 37t37.5 25.5q-15 15 -40.5 38t-48 48t-35.5 48t-2 38z" />
    <glyph glyph-name="question" unicode="?" horiz-adv-x="466" 
d="M135 521q-5 27 4.5 55t28.5 50.5t45.5 36.5t55.5 12q44 -3 64.5 -27t14.5 -61q-5 -31 -22.5 -58t-41 -51t-50.5 -46.5t-50.5 -42.5t-40.5 -39.5t-21 -37.5q-2 -8 -11.5 -7.5t-19.5 1.5q2 24 17.5 47t38.5 46t49 45.5t50 46t42.5 48.5t24.5 51t-2.5 46t-43.5 25
q-26 3 -50.5 -11.5t-42 -37.5t-25 -51t1.5 -51q-5 -2 -9.5 -2.5t-6.5 13.5zM88 243q11 0 18 -7t7 -17t-7 -17t-18 -7q-10 0 -17 7t-7 17t7 17t17 7z" />
    <glyph glyph-name="at" unicode="@" horiz-adv-x="720" 
d="M375 216q42 2 86 34.5t77.5 79t49.5 98t2 90.5q-11 29 -40 48t-82 22q-62 4 -114.5 -15t-94 -53t-71.5 -79t-46 -92.5t-17.5 -93t13.5 -82t47.5 -58.5t84.5 -22q27 0 57.5 6t60 16.5t56 25.5t47.5 33q5 -5 7.5 -9.5t-8.5 -14.5q-22 -17 -48.5 -31t-55.5 -23.5t-59 -15
t-57 -5.5q-57 0 -93.5 23.5t-53.5 62.5t-16.5 88t17 100t48 99t75.5 84.5t100 57t122 16.5q60 -5 92.5 -27t44.5 -55q10 -30 5.5 -65.5t-20.5 -72t-41 -70.5t-55.5 -60.5t-63.5 -42t-65 -14.5q-27 0 -39 12.5t-13.5 31.5t4.5 41.5t15 42.5q-17 -19 -32 -29t-32 -12
q-29 0 -35 23.5t4.5 51.5t36 49t61.5 15q8 -2 19.5 -8t16.5 -22q1 3 3 5.5t4 5.5q6 6 15 5t26 -9q-7 -10 -19 -27.5t-25 -38.5t-23 -42.5t-13 -39t4.5 -28.5t30.5 -10zM359 378q-1 16 -7.5 22.5t-14.5 6.5q-23 1 -39.5 -15t-25.5 -36t-10 -36.5t8 -16.5q12 -1 24.5 6.5
t24 19t22 25t18.5 24.5z" />
    <glyph glyph-name="A" unicode="A" horiz-adv-x="1198" 
d="M616 474q-55 -74 -108.5 -147.5t-105.5 -141t-102.5 -126t-98.5 -102t-94.5 -70.5t-89.5 -30q-7 -1 -10.5 2t-5 7t-1.5 8t1 7q44 2 90 26.5t94 66.5t97 98t100 122t103 138t105 146q-75 11 -131.5 9.5t-78.5 -27.5q-5 2 -9 7.5t2 10.5q28 25 88 25t139 -12
q60 83 122.5 163t126 149t129 123t133.5 86q-63 -15 -141 -36.5t-161.5 -43.5t-168.5 -42t-163 -31.5t-144.5 -11t-113 18t-68.5 56.5t-11 104q-2 3 -3 10.5t0.5 15.5t6 14t14.5 6q11 0 12.5 -6.5t-1.5 -14.5t-8 -15.5t-7 -8.5q-12 -70 17 -107.5t87.5 -50.5t139.5 -6
t173 25t188 43.5t183.5 49.5t160.5 42t120 22q80 11 159 -20q-12 -13 -35 -44t-54 -75t-67 -99.5t-75 -117.5t-78 -128.5t-75 -132.5q60 -4 111 0.5t89 23.5q8 5 15.5 9.5t14.5 10.5l9 -10q-40 -34 -104 -43t-142 -3q-50 -94 -89.5 -181.5t-57.5 -156t-9 -110.5t54 -46
q29 -2 52.5 12t37.5 40q5 -2 11 -5t-3 -15q-17 -23 -43.5 -35t-55.5 -10q-38 3 -57 24t-23.5 56.5t4 83t27.5 103.5t46 118t59 126q-82 9 -167 25.5t-161 28.5zM1319 1026q-58 12 -116.5 -2t-117 -48.5t-116.5 -87t-116 -116.5t-115 -137t-113 -148q77 -13 161 -29t164 -25
q33 65 70 130.5t73.5 127t71.5 116t65 98.5t53 75.5t36 45.5z" />
    <glyph glyph-name="B" unicode="B" horiz-adv-x="1656" 
d="M18 1027q-12 -70 11.5 -107t72 -51.5t117 -9.5t145 19.5t156.5 35t152.5 38t131.5 27.5t94 3q51 -10 72 -51t19 -103t-22 -139.5t-51 -161t-68 -167t-73 -157t-67 -132t-48 -91.5q9 7 22.5 27.5t29 48t31 58t29 58.5t24 50.5t15.5 32.5q39 81 83.5 170.5t92.5 175.5
t99.5 163.5t106.5 135.5t111.5 90.5t115.5 29.5q76 -5 122.5 -46.5t60.5 -100.5t-4.5 -126.5t-70.5 -126t-139 -99t-210 -43.5q33 -20 56.5 -46t38.5 -58q87 35 190.5 61.5t225.5 40.5l2 -14q-121 -13 -223.5 -39t-189.5 -61q20 -50 21 -106.5t-14.5 -113t-47.5 -108.5
t-77.5 -91.5t-103.5 -63t-126 -23.5q-45 0 -71 13.5t-37 35t-8 50t17 58.5q25 57 70 108.5t99.5 95t114.5 79t116 60.5q-13 43 -38.5 76t-64.5 52q-2 4 -1 8.5t4 4.5q88 0 157 21t119.5 56t84 79.5t49.5 91.5t16 92.5t-15.5 82t-46.5 60.5t-77 27q-56 3 -111.5 -29.5
t-108.5 -90t-104 -134t-98.5 -161.5t-91 -173.5t-82.5 -169.5q-3 -7 -13.5 -30.5t-25.5 -55t-32.5 -66t-35.5 -64t-35 -49.5t-29 -21q-4 0 -11.5 0.5t-16 2t-16.5 2.5t-12 2q12 22 39.5 75t63.5 124t76 155t75.5 169.5t62 166t36.5 145.5t-1.5 108t-51.5 53
q-34 8 -93.5 -1.5t-132.5 -26.5t-154 -38t-159.5 -35.5t-148 -19t-119 11t-73.5 55.5t-12 114q-2 3 -3 10.5t0.5 15.5t6 14t14.5 6q11 0 12.5 -6.5t-1.5 -14.5t-8 -15.5t-7 -8.5zM931 -130q57 0 105.5 22t86.5 59t65 85.5t41.5 101t16.5 105.5t-10 100q-55 -25 -113.5 -59.5
t-112 -77.5t-97.5 -93t-69 -105q-13 -29 -16 -54t7 -44t33.5 -29.5t62.5 -10.5z" />
    <glyph glyph-name="C" unicode="C" horiz-adv-x="1209" 
d="M21 1072q6 0 8.5 -5.5t1.5 -13t-5 -14.5t-10 -10q-10 -57 14.5 -101t69.5 -78t105 -58t122 -40t119 -25t97 -13q56 71 117.5 129.5t129 99.5t142 62t157.5 16q80 -5 121.5 -40t36.5 -85q-10 -48 -51.5 -82t-101 -57t-130 -36t-139.5 -19t-129 -6.5t-98 1.5
q-65 -83 -119 -175t-94.5 -182t-67 -172.5t-36 -146.5t0 -104.5t40.5 -45.5q63 -9 140.5 20t161 81.5t169 121t166.5 138t152.5 134t127.5 107.5l9 -11q-43 -33 -94.5 -78t-109.5 -96t-120.5 -105t-126.5 -104t-128 -93.5t-125.5 -74t-118 -45.5t-105.5 -8q-41 6 -59 47.5
t-16.5 107t22.5 149.5t58.5 176t90 185.5t118.5 178.5q-43 4 -101.5 13.5t-120.5 26.5t-122 42t-105 60.5t-68.5 81.5t-13.5 105q-3 4 -3 10.5t2.5 13.5t7.5 12t11 5zM1088 1006q-69 1 -133 -20t-123.5 -60t-115 -94.5t-108.5 -121.5q36 -2 92.5 -1t121.5 7.5t131.5 19.5
t122.5 35t95 54t49 77q5 40 -27.5 71.5t-104.5 32.5z" />
    <glyph glyph-name="D" unicode="D" horiz-adv-x="1841" 
d="M596 -30q12 22 39.5 75t63.5 124t76 155t75.5 169.5t62 166t36.5 145.5t-1.5 108t-51.5 53q-34 8 -93.5 -1.5t-132.5 -26.5t-154 -38t-159.5 -35.5t-148 -19t-119 11t-73.5 55.5t-12 114q-2 3 -3 10.5t0.5 15.5t6 14t14.5 6q11 0 12.5 -6.5t-1.5 -14.5t-8 -15.5t-7 -8.5
q-12 -70 11.5 -107t72 -51.5t117 -9.5t145 19.5t156.5 35t152.5 38t131.5 27.5t94 3q51 -10 72 -50.5t19.5 -101.5t-21 -137.5t-50 -159t-67.5 -165.5t-73 -156.5t-67 -132.5t-49 -94q12 11 27 34t30.5 51t31.5 58.5t28.5 56.5t21.5 45t12 25q39 81 83.5 170.5t93.5 176
t102 164.5t108 136.5t112.5 92t116.5 30.5q45 -2 77 -28t50.5 -70.5t24.5 -103.5t0.5 -127t-22.5 -142.5t-44 -149.5q85 24 175.5 42.5t185.5 29.5l2 -14q-97 -11 -189.5 -29.5t-179.5 -44.5q-39 -104 -96 -200.5t-130.5 -170.5t-162 -118.5t-188.5 -42.5q-42 0 -69 13.5
t-39 35.5t-8.5 50.5t21.5 59.5q24 41 65.5 80t94 74.5t112.5 68t120 59.5t117 49t103 37q28 75 47 150t28.5 144t9 129.5t-12.5 105t-35 71t-58 28.5q-56 3 -112 -30t-110 -91t-106 -135t-100 -162.5t-92.5 -174.5t-82.5 -169q-5 -9 -16 -32.5t-26 -53.5t-32.5 -63
t-35.5 -61.5t-34.5 -49t-28.5 -24.5q-3 -1 -11 -0.5t-17.5 1.5t-17.5 2.5t-10 1.5zM933 -130q85 -2 161.5 39t141 110t116.5 159.5t90 188.5q-44 -15 -99.5 -36t-114 -48.5t-117.5 -59t-110.5 -67t-91.5 -73.5t-62 -77q-16 -28 -18.5 -53t8.5 -43.5t35 -29t61 -10.5z" />
    <glyph glyph-name="E" unicode="E" horiz-adv-x="1211" 
d="M21 1072q6 0 8.5 -5.5t1.5 -13t-5 -14.5t-10 -10q-10 -61 18 -108t80 -81.5t119.5 -58.5t137 -39t132 -22.5t104.5 -9.5q16 55 58.5 111t106 101t145 73t176.5 26q25 0 53.5 -8t52.5 -23t38.5 -38.5t11.5 -55.5q-7 -44 -42.5 -76t-89 -54.5t-118.5 -36.5t-129 -22
t-122 -10.5t-97 -1.5q-10 -29 -10 -55.5t11.5 -47.5t35.5 -36t63 -22v-13q-82 -4 -151.5 -35t-126 -78t-98.5 -105.5t-68.5 -119t-37 -118t-3.5 -102t32 -71t70 -25.5q43 1 94 21t108 53t118 77t122.5 93t121.5 100t115.5 99t105 90t89.5 73l8 -11q-54 -42 -124.5 -102.5
t-149 -128t-161.5 -134.5t-163 -121t-153.5 -88t-131.5 -35q-57 -1 -91.5 25.5t-49 71.5t-9 103t28 120t62.5 122.5t95 111t124.5 85t151.5 43.5q-53 21 -70.5 64.5t-5.5 97.5q-44 2 -108.5 10t-135 23.5t-139 40.5t-120.5 61.5t-80 85.5t-17 113q-3 4 -3 10.5t2.5 13.5
t7.5 12t11 5zM1222 901q3 27 -7 46.5t-28.5 32t-43 19t-50.5 7.5q-44 1 -89 -10.5t-89 -33t-84.5 -50.5t-74.5 -62.5t-60 -69.5t-40 -71q37 -1 91 1.5t114.5 10t121.5 21t111.5 35t85 52t42.5 72.5z" />
    <glyph glyph-name="F" unicode="F" horiz-adv-x="1200" 
d="M457 438q5 22 25.5 33t49 15t62.5 1.5t66 -6.5t59 -9t42 -7q29 85 61 166.5t71 152.5q-78 -7 -159.5 -18.5t-162 -31t-158 -49.5t-147 -73.5t-129 -103t-104.5 -138.5q1 -5 0 -11.5t-4.5 -12t-8.5 -9.5t-11 -3q-7 1 -8.5 7.5t1 14t8 14t12.5 7.5q46 81 107 142t132 105.5
t150 74.5t161.5 50t166 31.5t162.5 18.5q30 52 64 95.5t74 75.5t86 50.5t99 20.5q54 2 97.5 -12.5t65 -38.5t13.5 -54.5t-57.5 -59t-146.5 -52.5t-255 -36q-38 -72 -70.5 -156.5t-62.5 -172.5q54 -7 108 -11t97.5 -0.5t70.5 15.5t28 38h12t6 -12q-6 -26 -37 -38t-77 -15.5
t-101.5 0t-110.5 10.5q-36 -108 -72 -212t-77 -186t-90.5 -133.5t-113.5 -54.5q-50 -4 -85 13t-54 46t-21 66t15 74.5t54.5 72t97.5 57.5q2 5 7 9.5t11.5 7t13 2.5t10.5 -4q5 -5 2 -11t-9.5 -10.5t-14.5 -6.5t-14 1q-56 -22 -91.5 -53.5t-52.5 -66.5t-16 -69t18 -61
t49.5 -42t78.5 -12q52 5 93 56t76 132t68 183t69 209q-12 1 -37.5 6t-56.5 9t-64 6t-60 -1t-44.5 -14t-17.5 -33h-13t-6 12zM1224 1027q-45 -2 -83.5 -19.5t-72.5 -47t-64 -70t-56 -88.5q141 12 230 34.5t136 49t57 53t-6 47.5t-54 33t-87 8z" />
    <glyph glyph-name="G" unicode="G" horiz-adv-x="1232" 
d="M890 256q20 48 33.5 93t18.5 83q-69 -20 -119 -25t-93 -1q-63 6 -100 33t-52 67t-9.5 90t27.5 103q-43 2 -107 9.5t-133.5 23t-137.5 40.5t-119.5 61.5t-79 85.5t-16.5 113q-3 4 -2.5 11t3.5 13.5t7.5 11t10.5 4.5q7 0 9 -6t1 -13.5t-5.5 -15t-10.5 -9.5q-10 -61 18 -108
t79.5 -81.5t119 -58t136 -38t130.5 -21.5t103 -9q28 61 75.5 120.5t109 106.5t135.5 76.5t154 30.5q58 0 95.5 -23t50 -57t-1 -74.5t-58.5 -75.5q-32 -25 -74 -43t-89.5 -31.5t-97 -22.5t-95.5 -14t-85.5 -7t-67.5 -1q-20 -44 -29.5 -86t-3.5 -77t29 -60.5t67 -37t112 -6
t164 32.5q-12 -92 -47 -184q86 38 164.5 86.5t153.5 107.5l8 -11q-78 -61 -160 -111t-173 -89q-32 -77 -78.5 -148t-105 -126t-126 -90.5t-141.5 -42.5q-50 -5 -73 12t-24 44.5t17.5 59.5t51.5 57q46 35 99 67t108.5 60.5t112.5 54t111 46.5zM1075 1029q-56 0 -116 -27.5
t-116.5 -72.5t-104.5 -102.5t-79 -116.5q25 0 63 2t83 7t93.5 13.5t94.5 22t86.5 32t68.5 43.5q33 30 43.5 64.5t0 64.5t-40.5 50t-76 20zM882 239q-50 -19 -105 -44t-110 -53.5t-106.5 -60t-93.5 -63.5q-27 -21 -45 -48.5t-19 -51.5t18 -39t65 -11q63 6 121.5 40t109.5 86
t93 116t72 129z" />
    <glyph glyph-name="H" unicode="H" horiz-adv-x="1246" 
d="M1065 -118q20 -2 38.5 9t32.5 26l10 -9q-15 -17 -36.5 -29t-45.5 -11q-43 2 -66 30.5t-31 74.5t-3 104.5t17.5 121.5t30 126t35 116.5t32.5 94t23 58.5q-121 -98 -243.5 -191.5t-243.5 -192.5q-6 -13 -17 -37t-25.5 -51.5t-32 -56t-37 -51.5t-40 -37t-40.5 -13
q-25 5 -26.5 21.5t10 37.5t32 44.5t41 43t35.5 32.5t16 14q34 71 72 156t72 171.5t59.5 169t34 148.5t-4 110t-53.5 54t-95 2.5t-114.5 -23t-123.5 -34.5t-121.5 -32.5t-109 -18t-86 9.5t-52 51t-6.5 105q-2 3 -2.5 10.5t1 15.5t6 14t14.5 6t11.5 -6.5t-1.5 -14.5t-8 -15.5
t-7 -8.5q-10 -65 6 -99.5t50 -47t83 -7t106 20t119 33.5t122 34.5t114 23t96 -2.5q49 -11 70.5 -50.5t23.5 -98t-13.5 -131.5t-41.5 -152.5t-58.5 -159.5t-65.5 -153q121 98 242.5 192t242.5 191q39 86 81.5 162.5t85 133.5t82 90t71.5 33q32 -3 39 -20t-3.5 -43.5
t-35 -59.5t-55.5 -67t-64 -67t-61.5 -59.5t-47.5 -43.5t-22 -19q-7 -15 -24 -56t-38.5 -97.5t-44.5 -124.5t-42 -137t-31 -133.5t-11 -115t18 -81.5t55 -33zM1432 1025q-18 0 -44.5 -25.5t-58 -71t-65.5 -107t-68 -132.5q26 23 60 55.5t68.5 68.5t64.5 71.5t47.5 65.5
t18.5 50t-23 25zM517 126q-2 -2 -14 -13t-27.5 -27t-31 -34.5t-25 -34t-9 -26t17.5 -10.5q11 0 23.5 16.5t24.5 39.5t22.5 47.5t18.5 41.5z" />
    <glyph glyph-name="I" unicode="I" horiz-adv-x="772" 
d="M33 481q3 -10 -5 -23.5t-19 -11.5q-7 1 -8.5 7.5t1 14t8 14t12.5 6.5q57 81 133.5 131t163 82t179 51.5t182.5 39.5q24 54 49 99t49.5 77t50 49t51.5 16q31 -2 46.5 -17.5t18 -38t-6 -47.5t-26.5 -44q-17 -19 -40 -34.5t-48 -27.5t-50.5 -21t-47.5 -15q-34 -85 -70 -187
t-74.5 -205t-80.5 -200t-87.5 -172t-94.5 -120t-102 -44q-45 0 -67.5 27.5t-24 70.5t16.5 95.5t53 103t86 93.5t115 67q1 5 6.5 9.5t12 7t13 2t10.5 -4.5q5 -5 2 -10.5t-9 -10t-14 -6.5t-14 1q-60 -22 -108.5 -62t-83 -87.5t-53.5 -97t-19.5 -90.5t18.5 -67.5t61 -27.5
q40 -1 78.5 41.5t76.5 114t75.5 165.5t75 194.5t74.5 201t75 186.5q-87 -19 -177 -38t-174.5 -50t-159 -80t-129.5 -127zM881 1020q-18 1 -36 -14.5t-36.5 -44t-37.5 -68.5t-39 -89q20 5 44 13.5t47 20.5t44.5 26.5t37.5 32.5q13 16 21 36t6.5 39t-13.5 32.5t-38 15.5z" />
    <glyph glyph-name="J" unicode="J" horiz-adv-x="937" 
d="M163 -213q-58 -2 -93.5 16.5t-52.5 48.5t-16.5 68t15.5 76.5t42.5 74t65.5 59.5q41 26 90 43t100 29.5t101.5 22.5t94.5 21q25 65 50.5 134t51 137.5t51 134.5t51.5 124q-87 -19 -177.5 -38t-174.5 -50t-158.5 -80t-129.5 -127q2 -10 -6 -23.5t-19 -11.5q-7 1 -8 7.5
t1 14t7.5 14t12.5 6.5q57 81 133.5 131t163 82t179 51.5t182.5 39.5q24 54 49 99t49.5 77t50 49t51.5 16q31 -2 46.5 -17.5t18.5 -38t-5.5 -47.5t-26.5 -44q-17 -19 -40 -34.5t-48.5 -27.5t-51 -21t-47.5 -15q-23 -56 -46 -120.5t-47.5 -132.5t-50.5 -137t-53 -135
q94 27 193 75.5t206 134.5l8 -11q-110 -90 -214 -139t-199 -76q-18 -43 -41.5 -93.5t-52 -101.5t-62 -98.5t-72 -84t-81.5 -59t-91 -23.5zM504 231q-42 -11 -90.5 -20t-98 -21t-96.5 -28.5t-86 -41.5q-35 -22 -61.5 -55t-41.5 -69t-16.5 -71.5t13 -63.5t48 -45t87.5 -16
q41 2 79 25.5t71 59.5t62 81.5t53 92.5t43.5 92t33.5 80zM921 1020q-18 1 -36 -14.5t-36.5 -44t-37.5 -68.5t-39 -89q20 5 44 13.5t47.5 20.5t45 26.5t36.5 32.5q13 16 21 36t6.5 39t-13.5 32.5t-38 15.5z" />
    <glyph glyph-name="K" unicode="K" horiz-adv-x="1249" 
d="M1361 -176q-52 -15 -90.5 -7t-68 32t-53 61.5t-46.5 82t-47.5 93.5t-55.5 96.5t-72 90t-97 74.5q-36 -81 -73.5 -158t-70.5 -140.5t-58.5 -110.5t-36.5 -68l-55 7q10 20 36 68t60.5 114.5t74.5 146.5t79 164q-29 13 -62.5 22.5t-71.5 14.5l1 13q39 4 82.5 13.5t89.5 25.5
q40 92 70.5 179t44 157t4.5 115.5t-49 55.5q-34 8 -93.5 -1.5t-132.5 -26.5t-154 -38t-159.5 -35.5t-148 -19t-119 11t-73.5 55.5t-12 114q-2 3 -3 10.5t0.5 15.5t6 14t14.5 6q11 0 12.5 -6.5t-1.5 -14.5t-8 -15.5t-7 -8.5q-12 -70 11.5 -107t72 -51.5t117 -9.5t145 19.5
t156.5 35t152.5 38t131.5 27.5t94 3q34 -7 53.5 -29.5t26.5 -57.5t3 -81t-16.5 -99.5t-32.5 -112.5t-44 -120q90 38 180 94t165 126t129.5 150.5t74.5 166.5q11 2 12 -3.5t0 -7.5q-11 -55 -41 -110t-73 -108.5t-97 -103.5t-114 -93.5t-123 -79t-125 -60.5l-32 -76
q84 -38 138.5 -97t92 -124.5t65 -129.5t56.5 -111.5t66 -71t95 -7.5zM814 431q-21 -6 -41.5 -11t-40.5 -8q17 -3 33.5 -7.5t32.5 -9.5q5 9 8.5 18t7.5 18z" />
    <glyph glyph-name="L" unicode="L" horiz-adv-x="921" 
d="M1212 -50q-33 -58 -82 -81t-109.5 -22.5t-129 20.5t-139.5 48t-142.5 60.5t-137.5 57.5q-47 -84 -97 -127.5t-107 -45.5q-43 -1 -71 14t-42 38.5t-13.5 52.5t15.5 55.5t44 47.5t72 29q38 7 83 2t94 -19q22 50 44.5 109t45 122t44.5 127.5t45 125.5q-62 -8 -120.5 -13
t-113.5 -12.5t-105.5 -21.5t-96 -41t-86 -70t-74.5 -109q2 -5 0.5 -11.5t-5 -12.5t-9 -10t-11.5 -3t-7.5 7t1 13.5t7.5 13.5t12 8q35 69 76.5 113.5t88.5 72.5t99 42t108 22t116.5 12.5t124.5 13.5q35 96 69.5 177t69.5 139.5t71 91t74 32.5q54 -1 80.5 -29.5t28 -72
t-20.5 -96t-65.5 -101.5t-107.5 -88.5t-145 -56.5q-22 -64 -45.5 -131.5t-48 -133.5t-50 -127.5t-52.5 -113.5q69 -22 142.5 -52.5t145.5 -58.5t138.5 -49t122.5 -25t98.5 14t65.5 68q3 0 7.5 -3.5t-0.5 -11.5zM919 1004q-27 0 -53.5 -30.5t-54 -86t-56.5 -131.5t-61 -167
q78 18 136.5 55.5t97 83.5t57.5 94.5t18.5 88.5t-22 66t-62.5 27zM434 47q-45 16 -85 24t-75 5q-39 -3 -65 -19.5t-39.5 -39.5t-14 -49t11.5 -47.5t38 -35.5t65 -12q42 2 83 46.5t81 127.5z" />
    <glyph glyph-name="M" unicode="M" horiz-adv-x="2325" 
d="M2362 462q-32 -25 -82.5 -70t-111 -97t-125.5 -106t-124 -97.5t-108 -70t-77 -24.5q-36 3 -43.5 31.5t5.5 75.5t42 109t65 131.5t74.5 143t71 143t55 132t26 110.5t-16.5 78t-72 34q-54 3 -114.5 -26t-123.5 -81.5t-127 -122.5t-124.5 -149t-116.5 -161.5t-103 -158.5
q-3 -9 -16 -36.5t-30.5 -64.5t-37.5 -77t-38.5 -73.5t-32.5 -54t-20 -18.5q-7 2 -4.5 15t10.5 32.5t19.5 42t22.5 42.5t19.5 34.5t10.5 18.5q17 44 33.5 92.5t29.5 96t20.5 90.5t6 76.5t-13 54.5t-37.5 23q-42 1 -83 -21.5t-80 -61.5t-76 -90.5t-71 -106t-64 -109t-56 -100
t-46.5 -78t-34.5 -44.5q-5 -5 -13.5 -5.5t-18.5 0.5t-19.5 3t-15.5 3q12 22 40 75t64 124t76 155t75 169.5t62 166t36.5 145.5t-1.5 108t-52 53q-34 8 -93.5 -1.5t-132.5 -26.5t-154 -38t-159.5 -35.5t-148 -19t-119 11t-73.5 55.5t-12 114q-2 3 -3 10.5t0.5 15.5t6 14
t14.5 6q11 0 12.5 -6.5t-1.5 -14.5t-8 -15.5t-7 -8.5q-12 -70 11.5 -107t72 -51.5t117 -9.5t145 19.5t156.5 35t152.5 38t131.5 27.5t94 3q52 -10 73 -50.5t19.5 -102t-21 -138.5t-50 -159t-67.5 -164.5t-72.5 -155t-65.5 -129.5t-47 -89q11 8 29.5 39t43 76t55 100
t65 110.5t73 107.5t79 91t83 61.5t85.5 19.5t65 -25t28.5 -57t-0.5 -80.5t-22 -94.5q48 75 104 154.5t115.5 154.5t121.5 141t123.5 114.5t120 75.5t111.5 24q65 -4 95.5 -34t35 -78.5t-12.5 -112t-47.5 -134.5t-69 -145t-77.5 -144.5t-73 -133t-55.5 -109.5t-25.5 -75.5
t18 -29.5q26 -2 74 25t106.5 70.5t123 97t124.5 105.5t110 96.5t81 68.5z" />
    <glyph glyph-name="N" unicode="N" horiz-adv-x="1951" 
d="M596 -30q12 22 40 75t64 124t76 155t75 169.5t62 166t36.5 145.5t-1.5 108t-52 53q-34 8 -93.5 -1.5t-132.5 -26.5t-154 -38t-159.5 -35.5t-148 -19t-119 11t-73.5 55.5t-12 114q-2 3 -3 10.5t0.5 15.5t6 14t14.5 6q11 0 12.5 -6.5t-1.5 -14.5t-8 -15.5t-7 -8.5
q-12 -70 11.5 -107t72 -51.5t117 -9.5t145 19.5t156.5 35t152.5 38t131.5 27.5t94 3q51 -10 72 -51t19.5 -102.5t-22 -139.5t-51 -161t-68 -166.5t-73.5 -157t-66.5 -132t-48.5 -91.5q37 45 80.5 113.5t91.5 150.5t101.5 171t111 175t120 163.5t128.5 134.5t136 89t144 28
q65 -4 95.5 -34t35.5 -78.5t-12.5 -112t-47.5 -134.5t-68.5 -145t-77.5 -144.5t-73 -133t-55.5 -109.5t-25.5 -75.5t18 -29.5q26 -2 74 25t106.5 70.5t122.5 97t124 105.5t110 96.5t81 68.5l9 -11q-32 -25 -82.5 -69.5t-111 -97t-125.5 -106.5t-124 -97.5t-108 -70
t-77 -24.5q-36 3 -43.5 31.5t5.5 75.5t42 109t64.5 131.5t74.5 143t71.5 143t55 132t25.5 110.5t-17 78t-72 34q-74 4 -145 -32t-138.5 -99t-131.5 -146.5t-123 -174t-112 -181.5t-100 -168.5t-87 -135.5t-72 -82q-3 -3 -11.5 -3t-18 1.5t-18.5 3t-14 2.5z" />
    <glyph glyph-name="O" unicode="O" horiz-adv-x="1239" 
d="M33 308q2 -5 0.5 -11.5t-5 -12.5t-9 -10t-11.5 -3t-7.5 7.5t1 14t7.5 14t12 7.5q33 59 78.5 100t99.5 68.5t115 44t124 27.5q47 96 107.5 182t128 150.5t139.5 103t143 40.5q62 1 99.5 -21t53 -58t9.5 -81.5t-30 -91.5q41 -37 50.5 -97t-5.5 -133t-51.5 -153t-87 -157
t-112 -146t-127 -118.5t-131.5 -75t-125 -16.5t-97 41t-57 80.5t-21 110.5t10 131.5t37 144.5t60 149q-61 -11 -119 -27t-109.5 -42.5t-94.5 -66t-75 -95.5zM507 551q-37 -74 -66 -148.5t-46.5 -144t-22.5 -131.5t6.5 -110.5t41.5 -80.5t81 -41q56 -9 119.5 16t127 73
t123.5 115t110 142t86 152.5t52 148.5t8 129t-46 94q-27 -46 -67 -77.5t-88.5 -53t-102 -35t-108.5 -22t-108 -14t-100 -12.5zM956 824q77 -4 121 -38q22 42 27.5 84t-8 74.5t-48 52.5t-92.5 19q-50 -1 -107.5 -36.5t-116 -97t-114.5 -143t-104 -173.5q45 6 96.5 11.5
t105 14t105.5 21.5t99 34t85.5 52t64.5 75q-20 16 -48 25t-65 11q-7 -8 -23 -8t-21 11q-3 6 2 10.5t12.5 6t16 0.5t12.5 -6z" />
    <glyph glyph-name="P" unicode="P" horiz-adv-x="1567" 
d="M537 -123q10 19 34 63t55.5 105t69 135t74.5 153q-32 -6 -56.5 -17.5t-35.5 -31.5q3 -4 3.5 -11t-2 -14t-6.5 -12t-10 -5q-7 0 -9.5 5.5t-2 13t3.5 15t9 10.5q12 27 43 41t69 20q33 71 63 142t53.5 137.5t38.5 125t17.5 103.5t-10 74t-42.5 37q-34 8 -93.5 -1.5
t-132.5 -26.5t-154 -38t-159.5 -35.5t-148 -19t-119 11t-73.5 55.5t-12 114q-2 3 -3 10.5t0.5 15.5t6 14t14.5 6q11 0 12.5 -6.5t-1.5 -14.5t-8 -15.5t-7 -8.5q-12 -70 11.5 -107t72 -51.5t117 -9.5t145 19.5t156.5 35t152.5 38t131.5 27.5t94 3q40 -8 60 -37.5t23.5 -75.5
t-7.5 -105.5t-31.5 -127t-48.5 -139.5t-60 -144h14q41 83 85.5 165.5t91 158.5t95 141t98 112.5t99.5 73.5t100 23q67 -4 107 -34.5t54.5 -78t5 -107.5t-41 -122.5t-84 -122.5t-124.5 -108t-162 -78.5t-196 -34.5q-29 -1 -58.5 -0.5t-59.5 0.5q-45 -91 -85 -174t-74 -147.5
t-61 -104t-45 -43.5l-1 -2zM975 355q90 4 169 33.5t144 75t115 102.5t82.5 116t46 116t6 102.5t-37.5 74.5t-85 33q-48 3 -96.5 -22t-96 -70.5t-94 -108.5t-91.5 -136.5t-88 -154.5t-84 -162q28 1 55.5 0t54.5 1zM828 339q-33 -73 -66.5 -142.5t-64.5 -128.5t-55.5 -105.5
t-39.5 -73.5q16 12 40 52.5t54.5 101.5t67 137t77.5 160h-6.5t-6.5 -1z" />
    <glyph glyph-name="Q" unicode="Q" horiz-adv-x="1224" 
d="M264 124q28 22 60 36q4 86 32 183.5t75 195.5q-61 -11 -119 -27t-109.5 -42.5t-94.5 -66t-75 -95.5q2 -5 0.5 -11.5t-5 -12.5t-8.5 -10t-11 -3q-7 1 -8 7.5t1 14t7.5 14t11.5 7.5q33 59 78.5 100t99.5 68.5t115 44t124 27.5q47 96 107 181.5t127.5 149.5t139.5 102
t142 40q62 1 99.5 -20.5t53.5 -57t10.5 -80.5t-29.5 -91q38 -34 49 -87t1 -118t-39 -137.5t-71 -144t-95 -139t-111 -122.5q85 -44 168 -85.5t159.5 -63.5t142.5 -17t117 54l5.5 -5.5t-2.5 -10.5q-43 -42 -90.5 -60t-98.5 -18t-105 15t-109 39.5t-111.5 56t-111.5 63.5
q-36 -30 -73 -54t-73.5 -39.5t-72 -21.5t-68.5 -1q-48 8 -82 30.5t-55 57t-30.5 79t-8.5 95.5q-23 -9 -46 -27q1 -5 -2 -11t-9 -11t-13 -7t-12 1t-4.5 8.5t4.5 11t10.5 10t12.5 5.5zM377 174q47 6 98.5 -3t106.5 -29t112.5 -47.5t115.5 -57.5q57 53 109 118.5t93.5 135.5
t71 140.5t40.5 133.5t1.5 115t-44.5 85q-27 -46 -67 -77.5t-88.5 -53t-102 -35t-108.5 -22t-108 -14t-100 -12.5q-48 -97 -82.5 -194t-47.5 -183zM956 824q77 -4 121 -38q22 42 27.5 83.5t-9 73.5t-49 51.5t-92.5 18.5q-50 -1 -107 -36t-115 -96t-114 -142t-103 -173
q45 6 96.5 11.5t104.5 14t105 21.5t99 34t85.5 52t64.5 75q-20 16 -48 25t-65 11q-7 -8 -23 -8t-21 11q-3 6 2 10.5t12.5 6t16 0.5t12.5 -6zM774 6q-54 31 -107.5 60.5t-104 51t-97.5 32.5t-90 7q-6 -52 -3 -96.5t18 -79t42 -57t69 -29.5q63 -10 133 21t140 90z" />
    <glyph glyph-name="R" unicode="R" horiz-adv-x="1500" 
d="M537 -123q11 21 38 71.5t63.5 120t78 153.5t80.5 171q-22 5 -45 8.5t-49 5.5q-7 1 -5.5 7.5t5.5 5.5q55 1 109 6q43 97 77 189.5t49.5 167t7.5 124t-50 59.5q-34 8 -93.5 -1.5t-132.5 -26.5t-154 -38t-159.5 -35.5t-148 -19t-119 11t-73.5 55.5t-12 114q-2 3 -3 10.5
t0.5 15.5t6 14t14.5 6q11 0 12.5 -6.5t-1.5 -14.5t-8 -15.5t-7 -8.5q-12 -70 11.5 -107t72 -51.5t117 -9.5t145 19.5t156.5 35t152.5 38t131.5 27.5t94 3q55 -11 72.5 -61t8.5 -126t-39.5 -170t-71.5 -193l18 3q58 116 121.5 224t130 190.5t135.5 130.5t138 44
q81 -1 124.5 -27t56 -67t-5 -94t-59.5 -108t-106 -108t-145.5 -96t-177.5 -70.5t-202 -31.5q-5 -9 -8 -15.5t-8 -15.5q68 -17 120 -52t92 -80.5t71 -97.5t57 -102t50 -95t50.5 -77t57.5 -46.5t72 -4.5q2 -2 3.5 -7t-6.5 -7q-53 -13 -92.5 -0.5t-71 43.5t-57.5 76t-51.5 95.5
t-53.5 103t-63.5 98.5t-80.5 81.5t-106 52.5q-47 -97 -89.5 -186.5t-78 -158.5t-63.5 -111.5t-47 -44.5zM1410 1008q-67 3 -133 -43t-130 -125.5t-125.5 -184t-118.5 -218.5q87 4 168.5 30.5t153.5 66t131 89t101 101t64 100.5t18.5 88.5t-34.5 65.5t-95 30zM846 380
q-35 -79 -71.5 -154.5t-69.5 -140.5t-60 -116t-43 -81q16 12 41.5 56t58.5 110t72 149t83 173q-3 2 -11 4zM862 418l-8 -19q3 -1 6.5 -1.5t6.5 -2.5l12 25q-5 0 -8.5 -0.5t-8.5 -1.5zM804 407l2 6q-7 -1 -13.5 -1.5t-13.5 -0.5q6 -2 12 -2.5t13 -1.5z" />
    <glyph glyph-name="S" unicode="S" horiz-adv-x="928" 
d="M607 421q-2 25 -5.5 49.5t-8.5 49.5q-24 -11 -66 -24t-92 -24t-103 -17t-99.5 -1t-81.5 23t-49 54q-5 1 -8 7t-4 13.5t1 14.5t8 10t10.5 -1t7 -11t2 -14.5t-3.5 -13.5q12 -34 46 -50t79.5 -19.5t97.5 3t100.5 17.5t89 24t62.5 22q-12 55 -24.5 110t-16 107t7 99.5
t43.5 87.5q17 21 46 38.5t63 29t69.5 15.5t66.5 -3t53.5 -25.5t31.5 -52.5q11 -43 2 -85t-31 -81t-53.5 -74t-67 -64.5t-71.5 -53t-66 -38.5l3 -12q5 -24 8.5 -48t5.5 -49q135 29 301 45l2 -14q-85 -8 -159.5 -19.5t-141.5 -25.5q6 -101 -15 -199.5t-71.5 -179.5
t-131.5 -135.5t-194 -67.5q-53 -6 -100.5 3t-82.5 31t-53.5 57t-11.5 81q8 57 42 106.5t84.5 91t112.5 75.5t126.5 61t127 46t112.5 31zM608 408q-49 -12 -109.5 -30.5t-123.5 -44.5t-124 -59.5t-111 -73.5t-83.5 -87.5t-41.5 -102.5q-6 -43 11.5 -74.5t50.5 -51t78 -26.5
t94 -1q92 12 161.5 62t115.5 126t66.5 170t15.5 193zM904 942q-10 28 -32 43.5t-50 20.5t-59 0.5t-60 -16t-53 -28t-38 -35.5q-27 -38 -31 -82.5t5 -92.5t25.5 -98t28.5 -98q31 16 67 39.5t70.5 52.5t64.5 63.5t48.5 72t23.5 77.5t-10 81z" />
    <glyph glyph-name="T" unicode="T" horiz-adv-x="833" 
d="M1 879q13 43 46.5 68.5t82 38t109.5 14.5t129.5 -2.5t141.5 -14t147 -18.5q23 33 47 53.5t48 24.5q13 2 13.5 -4t0.5 -8q-19 0 -38.5 -18.5t-39.5 -51.5q90 -12 175 -19t155 -2.5t120.5 25.5t71.5 66q2 -1 7.5 -3.5t0.5 -10.5q-29 -52 -85 -78t-129.5 -34.5t-160.5 -3.5
t-178 16q-28 -55 -56.5 -130t-59 -160t-63 -175t-67 -175.5t-71.5 -161.5t-76.5 -133t-82 -90t-88.5 -32q-45 0 -67.5 27.5t-24 70.5t16.5 95.5t53 103t86 93.5t115 67q1 5 6.5 9.5t12 7t13 2t10.5 -4.5q5 -5 2 -10.5t-9.5 -10t-14.5 -6.5t-14 1q-60 -22 -108.5 -62
t-82.5 -87.5t-53 -97t-19.5 -90.5t18.5 -67.5t61 -27.5q34 -1 67.5 31t67 88t66 130.5t65 159t65 173.5t65 174t65.5 160t66 132q-72 9 -143 18.5t-136 15.5t-122.5 6t-102 -9t-74.5 -29.5t-40 -56.5q-5 2 -9 2.5t-1 10.5z" />
    <glyph glyph-name="U" unicode="U" horiz-adv-x="1434" 
d="M1473 462q-31 -23 -70.5 -61t-83.5 -85t-90.5 -99.5t-92 -103.5t-88 -97.5t-78.5 -81.5t-63 -55t-42 -19q-30 2 -33 42.5t14 107.5t50.5 154t77.5 181q-71 -82 -142 -156.5t-136 -131.5t-120 -92t-92 -37q-49 -3 -68 24t-16 75.5t23.5 114.5t51 141t66 155.5t68.5 157.5
t59 147t36.5 125t1.5 90t-45 43q-24 4 -65.5 -3.5t-92.5 -21t-108.5 -29t-113 -25.5t-106 -12t-88.5 11t-59.5 45t-18.5 90q-4 3 -4.5 10t1 14.5t5.5 13t10 6.5q7 1 10 -4.5t3 -13t-3 -15t-9 -10.5q-2 -55 19 -84.5t58 -41t86.5 -8.5t104 13.5t111 26.5t107 29t92 21t66.5 4
q44 -11 60 -48t11.5 -92.5t-25.5 -126t-50.5 -147.5t-64 -156.5t-66 -154t-56 -139.5t-34.5 -113t-1.5 -74.5t43.5 -23.5q39 2 97 40t126.5 100.5t143 143t147.5 167.5q29 61 64.5 127t72.5 130t75.5 124.5t74.5 111.5t67.5 89t56.5 58q6 2 10 -2.5t2 -12.5
q-5 -30 -34.5 -87.5t-74 -129t-99 -150t-110.5 -150.5q-38 -75 -73.5 -150t-66 -144.5t-54 -130t-37 -105.5t-15.5 -71t11 -27q15 -1 54.5 35.5t93.5 94t116.5 127.5t124 137t116.5 122.5t93 83.5zM1402 999q-23 -26 -55 -74t-68 -107t-72.5 -123.5t-67.5 -122.5
q43 57 86 121t79.5 123t62.5 107.5t35 75.5z" />
    <glyph glyph-name="V" unicode="V" horiz-adv-x="1412" 
d="M1348 996q20 -4 16 -32t-22 -69t-45 -88t-53.5 -88.5t-46.5 -71t-24 -35.5q-6 -29 -10.5 -68.5t-2 -76.5t16.5 -65t46 -34q33 -6 87 17.5t133 87.5l8 -11q-82 -66 -138.5 -90t-91.5 -17q-33 6 -49.5 30.5t-22 58t-3 71.5t8.5 70q-57 -81 -123 -166t-134.5 -166
t-136.5 -153t-129 -126t-112 -87t-85 -35q-47 -3 -65 25t-14 78t25.5 118t52.5 145.5t67.5 160.5t71.5 163t64 152t44 128.5t12 93t-31 44.5q-22 6 -63 -1t-92 -20t-109 -29t-114.5 -27t-108 -13.5t-90.5 10.5t-61 45t-19 91q-4 3 -4.5 10t1 14.5t5.5 13t10 6.5q7 1 10 -4.5
t3 -13t-3 -15t-9 -10.5q-2 -55 19 -84.5t58 -41t86.5 -8.5t104 13.5t111 26.5t107 29t92 21t66.5 4q41 -7 54 -43t6 -92.5t-30.5 -129t-55.5 -152.5t-68.5 -163.5t-70 -161.5t-60 -146.5t-38.5 -119t-5 -79t40 -25.5q35 2 87 36.5t114 91t131 131t138 157.5t135 169.5
t122 167.5q3 17 13 52.5t24.5 79t32.5 88.5t38 81.5t40 58.5t39 18z" />
    <glyph glyph-name="W" unicode="W" horiz-adv-x="1865" 
d="M696 974q31 -17 31.5 -63t-17.5 -110t-48.5 -140t-62 -152.5t-58 -147.5t-37 -125t1.5 -85t57 -28q40 5 84 34.5t89.5 75.5t91.5 105t88.5 123.5t80.5 130.5t68 126t51 110t29 83q3 20 14.5 20t16.5 -26q6 -47 -11 -117t-47.5 -153t-69.5 -173t-77 -176t-69 -164
t-46.5 -136t-10 -91t41.5 -30q35 2 87 36.5t113.5 91t130.5 131t138 157.5t135 169.5t122 167.5q3 17 13.5 52.5t25 79t32.5 88.5t37.5 81.5t39.5 58.5t39 18q20 -4 16 -32t-22 -69t-45 -88t-53 -88.5t-46.5 -71t-24.5 -35.5q-6 -29 -10.5 -68.5t-2 -76.5t16.5 -65t46 -34
q33 -6 87 17.5t134 87.5l8 -11q-82 -66 -138.5 -90t-92.5 -17q-32 6 -48.5 30.5t-22 58t-3 71.5t7.5 70q-57 -81 -123 -166t-134.5 -166t-136.5 -153t-128.5 -126t-111.5 -87t-86 -35q-48 -3 -65.5 26t-13 81t27.5 122t55 150t70 164.5t73 165.5t62.5 153t40.5 127
q-23 -60 -61.5 -136.5t-87.5 -157t-105 -157.5t-112 -138.5t-109.5 -100t-97.5 -41.5q-48 -3 -72 17t-29.5 57t4.5 88t29 109t44.5 120.5t51.5 123t49 116.5t36.5 101t15.5 75.5t-14 40.5q-18 11 -57.5 5.5t-91 -18.5t-111.5 -29.5t-119 -29t-113.5 -17t-96 8t-65 45
t-20.5 93.5q-4 3 -4.5 10t1 14.5t5.5 13t10 6.5q7 1 10 -4.5t3 -13t-3 -15t-9 -10.5q-2 -59 21.5 -89.5t64.5 -41t95 -4.5t113.5 20t119.5 31.5t112 30.5t92 17.5t60 -7.5z" />
    <glyph glyph-name="X" unicode="X" horiz-adv-x="1131" 
d="M853 435q95 72 184 144t161 145.5t121.5 148.5t64.5 154q5 -1 9 -2.5t2 -13.5q-18 -82 -69 -159t-124 -151.5t-162.5 -147.5t-184.5 -145q5 -69 10 -136.5t12.5 -128t20 -112t32 -89t48 -59t68.5 -21.5q1 -2 0.5 -7.5t-9.5 -5.5q-47 2 -81.5 23t-59 57t-40.5 84
t-26.5 105t-16.5 120.5t-10 129.5q-90 -69 -178.5 -138.5t-165 -141.5t-137 -147.5t-94.5 -155.5q-5 2 -8 4.5t2 15.5q36 81 97 158t138 150t165.5 143t178.5 139q-6 67 -12 135.5t-13.5 132.5t-16 120t-20 98t-26 66.5t-33.5 25.5q-20 1 -60 -10t-91.5 -26t-110 -32
t-116 -27.5t-110.5 -12.5t-92.5 11.5t-62.5 47t-20 92.5q-4 3 -4.5 10t1 14.5t5.5 13t10 6.5q7 1 10 -4.5t3 -13t-3 -15t-9 -10.5q-3 -56 18.5 -87t60 -43t89.5 -9.5t107 14t114 28.5t110 32.5t93.5 26t66.5 9.5t45.5 -25.5t37 -66.5t29 -97t22.5 -116t17.5 -125t12.5 -123z
" />
    <glyph glyph-name="Y" unicode="Y" horiz-adv-x="1130" 
d="M663 476q41 2 88.5 33.5t95.5 79.5t94.5 106.5t86.5 115t70.5 105t45.5 76.5q7 8 16.5 3.5t8.5 -17.5q-4 -49 -26.5 -123.5t-60.5 -163t-88.5 -185.5t-110.5 -191q61 -30 88.5 -81.5t28.5 -115.5q4 -3 5.5 -10t0.5 -14t-4.5 -13t-9.5 -7q-6 -2 -9.5 3.5t-4.5 13t1.5 15
t7.5 11.5q-1 61 -27 109.5t-84 77.5q-60 -93 -126 -176t-134.5 -145.5t-137.5 -98t-134 -32.5q-39 2 -55 28t-12.5 66.5t25.5 91t58.5 100t87 94t111 74.5t129.5 39.5t144 -10.5q55 90 102.5 180.5t84 168.5t60 137t31.5 86q-19 -28 -48 -71t-65.5 -92t-78 -98t-85 -89
t-87 -66t-83.5 -28t-60 19t-26.5 56.5t-2 81t14.5 94t22.5 94.5t21 82.5t11.5 58.5t-7 22q-30 -1 -73.5 -11t-94 -23.5t-105 -27.5t-106.5 -22.5t-98 -8.5t-80 14.5t-53 46t-17 86.5q-4 3 -4.5 10t1 14.5t5.5 13t10 6.5q7 1 10 -4.5t3 -13t-3 -15t-9 -10.5
q-2 -55 18.5 -84.5t56.5 -41.5t84.5 -9t102.5 13.5t109 26t105 29t91 21t66 3.5q19 -10 23.5 -37t-0.5 -65t-16.5 -83.5l-23 -91t-20.5 -88t-9 -75t12 -51.5t41 -17zM344 -134q57 -3 118.5 34t123.5 100.5t122.5 147.5t116.5 175q-69 17 -133.5 7t-121.5 -38t-105 -70.5
t-84 -89t-58.5 -93.5t-28.5 -85t5.5 -62.5t44.5 -25.5z" />
    <glyph glyph-name="Z" unicode="Z" horiz-adv-x="771" 
d="M284 573q-2 53 4.5 108t22.5 107t42.5 98t64.5 80t87.5 53t112.5 17q56 -2 90.5 -27t50 -63t13.5 -83.5t-20 -87.5q-26 -60 -67.5 -113t-94 -98t-112.5 -81.5t-123 -64.5q34 5 63.5 1t48.5 -22q20 -19 28 -45.5t6 -58.5q67 29 140.5 70.5t160.5 109.5l8 -11
q-90 -70 -165 -112.5t-144 -71.5q-4 -44 -22.5 -93.5t-48 -97.5t-67.5 -92t-82 -76.5t-91.5 -50.5t-95.5 -14q-57 8 -81 50t-6 96q13 38 41 69.5t65 57t81 46t89 38t88 32.5t78 28q5 36 -1 65t-25 48q-14 14 -38 15t-53 -4.5t-59 -14.5t-54 -16q-18 -5 -21 1.5t0 11.5
q66 19 138.5 53t139.5 84t123.5 116t92.5 149q16 39 23.5 80.5t1 77t-31 58.5t-70.5 24q-61 1 -108.5 -17.5t-83.5 -50.5t-61 -76t-40 -93.5t-21 -102.5t-4 -104q4 -3 6.5 -9.5t2.5 -13.5t-3 -13.5t-9 -8.5t-10 3t-5.5 12.5t-0.5 15t6 12.5zM20 -4q-17 -48 4 -85t72 -44
q37 0 75.5 17.5t75 47.5t69.5 69t59.5 82.5t44.5 88t26 84.5q-34 -13 -75 -27t-84.5 -31t-85.5 -37t-78 -44.5t-63.5 -54.5t-39.5 -66z" />
    <glyph glyph-name="bracketleft" unicode="[" horiz-adv-x="395" 
d="M227 778q-37 -179 -81 -354t-86 -352h61t44 -1l-1 -21q-21 0 -45 1t-68 1q-23 -5 -26 1q44 183 90 364t84 368q4 9 6 11t13 2h74.5t46.5 -1l-1 -22q-21 1 -44.5 2t-66.5 1z" />
    <glyph glyph-name="backslash" unicode="\" horiz-adv-x="438" 
d="M-92 705q6 1 12 3.5t12 3t11.5 -2.5t10.5 -12q92 -174 193.5 -341.5t199.5 -338.5q-4 0 -10.5 -2t-13.5 -2t-14 3t-13 12q-98 170 -198.5 338t-189.5 339z" />
    <glyph glyph-name="bracketright" unicode="]" horiz-adv-x="449" 
d="M137 69q37 179 81 354t86 352h-61t-44 1l1 21q21 0 45 -1t68 -1q23 5 26 -1q-44 -183 -90 -364t-84 -368q-4 -9 -6 -11t-13 -2h-43h-32t-25 0.5t-21 0.5l1 22q21 -1 44.5 -2t66.5 -1z" />
    <glyph glyph-name="asciicircum" unicode="^" horiz-adv-x="649" 
d="M307 725q11 -10 30 -34.5t41 -55t45 -64.5t42 -62.5t31 -49t12 -24.5l-18 -1q0 2 -12.5 20.5t-31.5 46t-42 59.5t-44 61t-37.5 50.5t-23.5 27.5q-7 -6 -23.5 -27.5t-38 -50.5t-44 -61t-41.5 -59.5t-32 -46t-13 -20.5l-18 1q0 4 12 24.5t31 49.5t42 63t45.5 65t41 55
t29.5 34q7 5 9 5t8 -6z" />
    <glyph glyph-name="underscore" unicode="_" horiz-adv-x="487" 
d="M57 295h338q10 0 15.5 -4t6.5 -8.5t-4.5 -8t-17.5 -3.5h-338q-12 0 -17 3.5t-4 8t6.5 8.5t14.5 4z" />
    <glyph glyph-name="grave" unicode="`" horiz-adv-x="229" 
d="M118 629q-10 -5 -21.5 -1.5t-22.5 12.5t-20 22t-15 27l38 2q8 -19 16 -36t25 -26z" />
    <glyph glyph-name="a" unicode="a" horiz-adv-x="515" 
d="M218 501q-9 -12 -23 -33.5t-28 -46.5t-25.5 -50.5t-15.5 -46.5t3 -34t29 -13q33 1 79.5 17t99 43t107 62t102.5 74l8 -11q-48 -40 -103 -75.5t-108 -62.5t-101 -43t-83 -17q-30 -1 -44.5 12t-18.5 34t2.5 48t18.5 55q-16 -17 -34.5 -29.5t-38.5 -15.5q-22 0 -32.5 13
t-11.5 32t7.5 41t24.5 40t38.5 28t49.5 5q10 -2 23 -9t18 -25l9 12q7 8 17.5 6.5t30.5 -10.5zM152 480q-2 17 -10.5 24.5t-17.5 7.5q-26 1 -46 -19t-31.5 -44.5t-13 -46t9.5 -21.5q15 -1 31 10t31 26.5t27 33t20 29.5z" />
    <glyph glyph-name="b" unicode="b" horiz-adv-x="551" 
d="M163 312q-21 8 -29 30t-4.5 45t17 41t35.5 17q21 0 33.5 -11.5t17 -29.5t1 -41t-13.5 -46q43 1 93 15.5t99.5 37t94 49.5t75.5 54l8 -11q-41 -32 -88 -61t-96.5 -50.5t-99 -34t-93.5 -12.5q-16 -29 -42 -54t-57 -42t-63.5 -26t-61.5 -7q-29 3 -39.5 23.5t-8 50t14.5 65.5
t26.5 69.5t29.5 61.5t23 43q29 51 64 109.5t73.5 114.5t80.5 106t86.5 85t90.5 50.5t92 2.5q40 -11 56.5 -38.5t8 -67t-43.5 -90t-98 -107.5q-50 -45 -99 -79t-97 -59t-95 -43.5t-94 -33.5q-7 -13 -20.5 -35.5t-27 -49.5t-26 -55.5t-17.5 -52t-1 -39t23 -17.5q29 0 56 12
t49.5 31t39.5 40.5t27 39.5zM437 664q62 57 94.5 105t39 84.5t-9.5 59t-52 27.5q-39 2 -78.5 -19.5t-79 -59t-78 -87t-74.5 -104t-68.5 -110t-60.5 -104.5q95 31 185.5 78.5t181.5 129.5zM169 324q21 40 22.5 69.5t-12.5 31.5q-12 1 -21 -12.5t-12 -31.5t2 -35t21 -22z" />
    <glyph glyph-name="c" unicode="c" horiz-adv-x="355" 
d="M130 443q13 10 20.5 22t10.5 22.5t1.5 18t-7.5 9.5q-20 3 -41.5 -12.5t-40 -40t-32 -54.5t-18 -55.5t1.5 -42.5t27 -16q36 1 83.5 22t95 49.5t89.5 58t66 49.5l9 -11q-28 -22 -73.5 -54t-96.5 -62t-100.5 -51t-85.5 -20q-28 1 -41.5 22.5t-14 52t11.5 65.5t34.5 62.5
t55 43t73.5 8.5q8 -2 14.5 -8t8.5 -16.5t-2 -26t-17 -36.5q-5 -8 -16 -8t-16 9z" />
    <glyph glyph-name="d" unicode="d" horiz-adv-x="670" 
d="M701 473l8 -11q-28 -23 -71.5 -53t-95.5 -62t-108.5 -63t-111 -55.5t-103 -39.5t-84.5 -16q-22 0 -32.5 11t-14 29t0 42t11 49.5t18 51t20.5 47.5q-11 -11 -25 -21t-28.5 -18.5t-28 -14.5t-23.5 -7q-22 -2 -31 12t-6.5 37t14 49.5t31 49.5t44.5 37.5t54 12.5q6 0 13 -2.5
t13 -8.5t10.5 -16.5t5.5 -27.5q29 51 64.5 109.5t75 115.5t82 107.5t87 86t90 51t90.5 1.5q39 -12 55.5 -39.5t8.5 -66.5t-42.5 -88.5t-95.5 -105.5q-50 -45 -99 -79.5t-98 -60t-96.5 -44.5t-94.5 -34q-7 -13 -20.5 -36t-27.5 -50t-26.5 -55.5t-18 -52t-1.5 -39.5t23 -18
q29 -2 74.5 12t98.5 38t110.5 55t110 63.5t97.5 63t73 54.5zM588 667q60 54 92 101.5t38.5 84t-9.5 59.5t-52 28q-39 2 -78.5 -19.5t-79 -59t-78 -87t-74.5 -104t-68.5 -110t-60.5 -104.5q95 31 187 80.5t183 130.5zM157 442l11 21q3 32 -5.5 47.5t-18.5 14.5
q-18 -1 -35 -14t-32 -32t-26.5 -40.5t-18 -40.5t-7.5 -31t6 -12q11 0 27.5 7.5t34 19.5t35 27.5t29.5 32.5z" />
    <glyph glyph-name="e" unicode="e" horiz-adv-x="368" 
d="M54 293q38 -4 85.5 14.5t95 47.5t91 61.5t73.5 56.5l8 -11q-29 -23 -72 -55.5t-92 -62t-98.5 -50t-90.5 -19.5q-29 3 -44.5 23.5t-19 49.5t5 62t28.5 60t51.5 44t73.5 14q21 -2 29 -18.5t-3.5 -36t-44 -36.5t-91.5 -20q-5 -12 -9 -32t-3.5 -39.5t6.5 -35t21 -17.5z
M149 515q-14 1 -28 -6t-27.5 -18.5t-25 -27t-21.5 -31.5q42 2 69 14.5t39 27.5t10 27.5t-16 13.5z" />
    <glyph glyph-name="f" unicode="f" horiz-adv-x="399" 
d="M22 226q19 -65 14 -130t-25 -118.5t-51 -87.5t-65 -37q-33 -2 -51 19t-22.5 59t3.5 89.5t27 110.5t47.5 122.5t64.5 125.5q52 89 106 155.5t107.5 109t103 60t92.5 8.5q19 -6 31 -23t9.5 -41t-21.5 -53t-61 -58.5t-110 -57t-168 -48.5q-22 -30 -50.5 -83t-56.5 -115
t-51 -126.5t-33 -117t-3 -86t39 -35.5q27 1 54.5 32t46 81t23 114t-14.5 130q-26 -1 -37.5 5.5t-13.5 15t4.5 17t16 10t21.5 -5.5t21 -28q42 6 84 22t90.5 44t106 69.5t130.5 98.5l9 -11q-80 -62 -141 -105t-110 -71t-89 -42t-77 -18zM376 688q-25 6 -54 -4t-59 -30.5
t-60 -48t-56.5 -56.5t-49 -56.5t-37.5 -47.5q88 19 149.5 43t101.5 49t60.5 50t26 46t-1 35.5t-20.5 19.5z" />
    <glyph glyph-name="g" unicode="g" horiz-adv-x="449" 
d="M161 290q79 25 161 74t157 109l9 -11q-35 -28 -76 -56.5t-84 -53.5t-87 -45t-85 -31q-37 -91 -86 -169.5t-104.5 -135t-115 -87.5t-116.5 -27q-53 4 -76.5 32t-19.5 69t36.5 90t92 95.5t147 85t201.5 58.5q17 48 32 91.5t26 81.5q-14 -14 -31.5 -29t-35.5 -27t-35.5 -20
t-30.5 -8q-22 0 -30 14.5t-4.5 36.5t16 47t32 45.5t44.5 32.5t52 7q10 -2 23 -13t17 -33l3 18q9 3 19.5 5t18 1t11.5 -6.5t0 -16.5q-38 -119 -81 -224zM109 272q-112 -21 -195 -58.5t-139 -81t-86 -89t-34 -83t16 -61t63 -24.5q52 1 107 36.5t105.5 92.5t93 127.5
t69.5 140.5zM154 544q-18 1 -35 -10t-32 -28.5t-27 -37.5t-18.5 -37.5t-7.5 -29.5t6 -12q12 0 30 8.5t38 23t39.5 32t33.5 35.5q2 5 1 14t-5 18t-10 16t-13 8z" />
    <glyph glyph-name="h" unicode="h" horiz-adv-x="616" 
d="M28 488q29 51 64 109.5t73.5 114.5t80.5 106t86.5 85t90 50.5t92.5 2.5q40 -11 56.5 -38.5t8 -67t-43 -90t-97.5 -107.5q-50 -45 -99 -79t-97 -59t-95.5 -43.5t-94.5 -33.5q-17 -31 -35.5 -64t-32.5 -65q18 20 46 49.5t58 56.5t59.5 44.5t51.5 13.5q24 -5 26 -29
t-7.5 -57.5t-24.5 -70.5t-24 -68t-5.5 -50t30.5 -17q19 2 56 21.5t82.5 48t95 62.5t93.5 66t77.5 57.5t47.5 36.5l8 -11q-15 -12 -48.5 -38t-77.5 -58t-93 -66t-95 -62.5t-85 -48t-61 -21.5q-35 -4 -48 16t-11.5 51.5t12 69.5t21.5 71.5t19 56.5t3 25q-23 0 -53 -21.5
t-60.5 -51.5t-59.5 -61.5t-49 -50.5q-16 -3 -18.5 11t3 36.5t17 49.5t23.5 52t22 43.5t12 22.5zM430 664q62 57 94.5 105t39.5 84.5t-9.5 59t-52.5 27.5q-39 2 -78.5 -19.5t-79 -59t-78 -87t-74.5 -104t-68.5 -110t-60.5 -104.5q95 31 185.5 78.5t181.5 129.5z" />
    <glyph glyph-name="i" unicode="i" horiz-adv-x="401" 
d="M80 482q-9 -12 -19 -32t-19.5 -42.5t-16 -45.5t-7.5 -42t5 -31t21 -12q33 1 79.5 17t99 43t107 62t102.5 74l8 -11q-48 -40 -103 -75.5t-108.5 -62.5t-101.5 -43t-82 -17q-40 -1 -52 23.5t-8.5 59t16.5 71t25 57.5q10 19 25 16t29 -9zM94 588q20 -5 10 -24
q-5 -8 -14.5 -12.5t-18.5 -2.5t-12 9t2 15t14.5 12.5t18.5 2.5z" />
    <glyph glyph-name="j" unicode="j" horiz-adv-x="297" 
d="M10 291q78 26 160 74t158 108l8 -11q-35 -28 -75 -55.5t-82.5 -52.5t-87.5 -45.5t-88 -33.5q-37 -91 -86 -169t-104.5 -134.5t-114.5 -87.5t-116 -27q-53 4 -76.5 32t-19.5 69t36 90t92 95.5t147 85t201 58.5q22 56 38.5 107t28.5 91q5 14 21 12t29 -17q-33 -99 -69 -189
zM-43 272q-112 -21 -195 -58.5t-139 -81t-86 -89t-34 -83t16 -61t63 -24.5q52 1 107 36.5t105.5 92.5t93 127.5t69.5 140.5zM90 588q20 -5 10 -24q-5 -8 -14.5 -12.5t-18.5 -2.5t-12 9t2 15t14.5 12.5t18.5 2.5z" />
    <glyph glyph-name="k" unicode="k" horiz-adv-x="543" 
d="M-12 309q33 36 64 68t60.5 55t56.5 35.5t51 9.5q18 -2 24.5 -14t-2.5 -27.5t-34.5 -32t-70.5 -28.5q-15 -23 -23.5 -55t-7.5 -60t12 -47t35 -16q19 2 54 20t77 45t87.5 59.5t86 62.5t71.5 54t45 35q2 -3 4 -5.5t4 -5.5q-15 -12 -46.5 -36.5t-71.5 -54.5t-85 -62
t-87.5 -59t-79 -45.5t-59.5 -20.5q-36 -3 -56.5 17.5t-26 52.5t3.5 69.5t31 67.5q24 5 48.5 15t41.5 21t23.5 20.5t-4.5 13.5q-20 4 -46 -9.5t-57 -40t-66 -62.5t-74 -76q-16 -2 -18.5 10.5t2.5 33.5t16 46.5t23 50t23 45t16 29.5q29 51 63.5 109.5t73 114.5t80.5 106
t86.5 85t90 50.5t92.5 2.5q40 -11 56 -39t8 -67.5t-41.5 -88.5t-93.5 -101q-101 -90 -199.5 -141t-192.5 -81q-2 -3 -10.5 -19.5t-20 -37.5t-22 -41.5t-15.5 -30.5zM439 671q59 54 90.5 101t38 82.5t-9.5 58t-52 27.5q-39 2 -78.5 -19.5t-79 -59t-78 -87t-74.5 -104
t-69 -110t-61 -104.5q95 31 189 82t184 133z" />
    <glyph glyph-name="l" unicode="l" horiz-adv-x="533" 
d="M563 473l8 -11q-26 -22 -69.5 -52t-96 -61.5t-111 -62.5t-114 -55.5t-105.5 -39.5t-86 -16q-30 0 -41 19.5t-9 49.5t14 66.5t27 71.5t30 63.5t23 43.5q29 51 64 109t73.5 114.5t80.5 106t86.5 84.5t90 50.5t92.5 2.5q40 -11 56.5 -38.5t8 -67t-43.5 -90t-98 -107.5
q-50 -45 -99 -79t-97 -59t-95.5 -43.5t-93.5 -33.5q-7 -13 -20 -35.5t-27 -49.5t-25.5 -55.5t-16.5 -52t-1 -39t23 -17.5q29 -2 76 12.5t103 39t115 56t113 63.5t97.5 61.5t67.5 51.5zM434 664q62 57 94.5 105t39.5 84.5t-9 59t-52 27.5q-39 2 -78.5 -19.5t-79 -59t-78 -87
t-74.5 -104t-68.5 -110t-60.5 -104.5q94 31 185 78.5t181 129.5z" />
    <glyph glyph-name="m" unicode="m" horiz-adv-x="737" 
d="M400 241q19 2 49.5 17t67 37t75 48.5t73 52t62 46t41.5 31.5l8 -11q-15 -12 -42.5 -33t-62 -46t-72.5 -51.5t-75 -48.5t-69.5 -37t-54.5 -17q-36 -4 -47.5 10.5t-9 38.5t14 53.5t23.5 55t19 43t-1 18.5q-18 2 -45.5 -16.5t-55.5 -43t-51.5 -48l-32.5 -32.5q-5 -5 -16 -3
t-14 12q1 8 14.5 29.5t32 50t39.5 59.5t36.5 58t22.5 47t-2 25q-19 9 -46.5 -1.5t-58.5 -33.5t-63.5 -54.5t-63 -63.5t-56.5 -61t-43 -47q-17 -3 -20.5 10t2.5 36t20 52.5t33 61.5q6 10 20 15.5t34 -10.5q-9 -12 -30 -45.5t-40 -76.5q17 17 41.5 44t53.5 56.5t60.5 57.5
t61.5 47.5t57 27t48 -3.5q17 -8 17 -30.5t-11.5 -52t-30.5 -63.5t-41 -65q42 35 73.5 56.5t55.5 19.5q27 -3 30.5 -21t-5 -43.5t-22.5 -54t-23 -52t-7 -38t27 -12.5z" />
    <glyph glyph-name="n" unicode="n" horiz-adv-x="522" 
d="M88 487q-5 -6 -13 -18t-17.5 -28.5t-20.5 -36.5t-20 -42q12 13 30 32t38.5 39t42 40t42 35t38 23t29.5 5q24 -7 21.5 -32t-18 -58.5t-37 -71t-35.5 -68t-13 -49.5t30 -16q19 2 49.5 17t67 37t75 48.5t73 52t62 46t41.5 31.5l8 -11q-15 -12 -42.5 -33t-62 -46t-72.5 -51.5
t-75 -48.5t-69.5 -37t-54.5 -17q-39 -2 -49 18.5t-3.5 52t24.5 69.5t35.5 71.5t29 56t6.5 24.5q-13 4 -40.5 -16t-60.5 -51t-67 -66.5t-60 -62.5q-21 -3 -22 16t8.5 46t25 56t27.5 47q8 11 22.5 11t26.5 -14z" />
    <glyph glyph-name="o" unicode="o" horiz-adv-x="341" 
d="M125 560q21 -9 31.5 -26t13 -39t-3.5 -47.5t-19 -50.5q30 0 61.5 6t61.5 16t56 24t46 30l8 -11q-22 -18 -50.5 -32.5t-60 -25t-65.5 -16t-66 -4.5q-24 -35 -49 -52t-47.5 -20t-39 6.5t-24 28t-2.5 44t26 55.5q-9 24 -2 48.5t25.5 42.5t44.5 25.5t55 -2.5zM72 466
q-5 -3 -10 -8.5t-10.5 -12t-9.5 -12.5t-6 -8q20 -16 46.5 -22t50.5 -7q13 24 19.5 47.5t5 44.5t-10.5 36.5t-25 22.5q-23 8 -44.5 2.5t-37 -19.5t-23 -34t-4.5 -39q2 2 6 8.5t9 11.5q8 6 24 3t20 -14zM28 414q-26 -37 -24 -60t20 -28.5t46 8t54 49.5q-24 2 -50 8.5t-46 22.5
z" />
    <glyph glyph-name="p" unicode="p" horiz-adv-x="514" 
d="M86 512q-8 -18 -23.5 -54t-36.5 -83q36 50 63.5 79.5t49 45t37.5 20t30 4.5q34 -2 46 -31t5.5 -69.5t-29.5 -83t-59 -70.5q50 2 101.5 23t100 51.5t93 65t81.5 63.5l8 -11q-42 -33 -89.5 -70t-99 -68t-106 -50t-109.5 -17q-13 -8 -35.5 -15t-40.5 -5q-19 1 -27.5 10.5
t-8 19t11 16t28.5 2.5l28 -8t28 -5q19 15 35 39t28.5 50t20 52.5t8.5 48t-5 35t-21 13.5q-26 1 -51.5 -17.5t-51 -48t-50 -64.5t-48.5 -67q-23 -51 -46 -105t-45.5 -104.5t-44.5 -93.5t-42 -73t-38.5 -42.5t-33.5 -1.5q-14 10 -3 46t36.5 83.5t59 100t65.5 94.5q20 43 39 85
t35 78.5t28.5 66.5t20.5 48q4 10 9 14t11.5 5t15 -0.5t21.5 -1.5zM-242 -95q9 -1 26 28.5t36.5 72t39.5 89.5t35 81q-32 -44 -60.5 -89.5t-48 -84t-28 -65.5t-0.5 -32zM116 260q-11 2 -21.5 4.5t-21.5 5.5q-7 2 -10.5 -0.5t-4 -6.5t3.5 -8t12 -5q11 -2 22.5 2t19.5 8z" />
    <glyph glyph-name="q" unicode="q" horiz-adv-x="491" 
d="M121 242q54 7 108.5 32.5t106 59t98.5 70.5t88 69l8 -11q-32 -25 -78.5 -62t-100.5 -72.5t-112.5 -64t-114.5 -36.5q32 -51 35.5 -106.5t-13.5 -103t-50 -80t-73 -37.5q-29 -1 -37 25.5t-1 70t25 98.5t42 112.5t50.5 112t48.5 95.5q-35 -32 -57.5 -46t-49.5 -15
q-25 0 -35.5 14.5t-9.5 35.5t12.5 45.5t31.5 44t46.5 30.5t56.5 6q9 -2 23.5 -9t19.5 -26l5 12q2 4 8 6.5t13.5 2.5t15 -2.5t13.5 -7.5q-38 -74 -67.5 -138t-59.5 -125h4zM107 222q-11 -21 -25 -52t-27.5 -65t-24 -67.5t-15.5 -60t-2 -42.5t17 -16q33 3 61.5 34.5t43 76.5
t10 96.5t-37.5 95.5zM146 512q-17 1 -33 -9t-29.5 -26t-23.5 -35t-15 -35t-5 -27.5t7 -11.5q12 -2 28 5t33.5 21t35 33.5t32.5 41.5q3 6 1.5 13t-6 13.5t-11.5 11t-14 5.5z" />
    <glyph glyph-name="r" unicode="r" horiz-adv-x="436" 
d="M57 216q25 5 60 22.5t74.5 41.5t81 51.5t78.5 54.5t67.5 50t48.5 37l8 -11q-21 -17 -53 -41t-70 -51t-79 -54.5t-81 -51t-75.5 -40.5t-61.5 -23q-31 -6 -43 6t-12 34.5t9.5 52t22 59.5t26 56.5t21.5 43.5q3 9 2 19.5t-4 21.5q-10 -9 -20 -17.5t-21 -16.5q-2 3 -4.5 5
t-4.5 5l22.5 18t23.5 20q-12 32 -11.5 57t8.5 41.5t21.5 23t28.5 2.5q15 -5 21 -17t3 -28.5t-15 -36t-32 -38.5q8 -19 16.5 -41t3.5 -44q-5 -12 -17 -33.5t-26 -46.5t-26 -50.5t-17 -44.5t0 -30t26 -6zM116 617q-9 0 -15.5 -8.5t-10 -22t-3.5 -30t5 -30.5q35 34 39.5 61
t-15.5 30z" />
    <glyph glyph-name="s" unicode="s" horiz-adv-x="360" 
d="M137 390q33 2 66.5 6t66 13t63.5 24.5t58 39.5l8 -11q-31 -27 -63 -42.5t-65.5 -24.5t-68 -12.5t-68.5 -5.5q-29 -122 -87 -186t-129 -67q-34 -2 -55 15.5t-27 44.5t4.5 60t41 63t82.5 52t128 28q6 30 10.5 63t8.5 70l-73 -59l-9 10q7 6 14 11.5t16.5 13t22.5 18.5t33 28
q4 42 15 69.5t25 44t29.5 23.5t28.5 7t23.5 -9t8.5 -27t-21.5 -45t-67.5 -63q-2 -42 -6.5 -80t-12.5 -72zM89 374q-67 -6 -114 -25.5t-75.5 -45.5t-40.5 -55t-9 -52.5t20 -39t45 -14.5q66 5 108 60.5t66 171.5zM213 672q-7 1 -16 -6t-17 -21t-14.5 -35t-7.5 -48
q31 24 47.5 44.5t21.5 35t0.5 22.5t-14.5 8z" />
    <glyph glyph-name="t" unicode="t" horiz-adv-x="535" 
d="M566 473l8 -11q-26 -22 -69.5 -52t-96 -61.5t-111 -62.5t-114 -55.5t-105.5 -39.5t-86 -16q-30 0 -41 19.5t-9 49.5t14 66.5t27 71.5t30 63.5t23 43.5q32 57 70.5 121t82.5 125q-48 5 -81 2t-44 -25q-13 1 -12.5 11.5t4.5 14.5q9 9 26.5 12t37.5 2.5t40.5 -2.5t37.5 -3
l24 33q10 12 21.5 15t43.5 -7q-21 -24 -36 -46q42 -3 82 -6t72.5 -2.5t55 6t30.5 17.5q5 -2 8.5 -10t-4.5 -15q-14 -11 -40.5 -14t-60 -1.5t-73 5.5t-80.5 8q-33 -45 -62 -90.5t-52.5 -85t-41 -70.5t-26.5 -46q-7 -13 -19.5 -35.5t-26 -49.5t-25.5 -55.5t-17 -52t-0.5 -39
t23.5 -17.5q29 -2 76 13t102 39.5t114 55.5t112.5 63t97.5 62t70 51z" />
    <glyph glyph-name="u" unicode="u" horiz-adv-x="483" 
d="M245 501q-9 -12 -23 -33.5t-28.5 -46.5t-26 -50.5t-15 -46.5t3 -34t29.5 -13q33 1 78.5 24t92.5 54.5t89 64t68 53.5l9 -11q-18 -14 -43.5 -34t-55.5 -42t-62 -43.5t-63 -38.5t-60 -28t-52 -12q-32 -1 -47 13.5t-17 38t6 53.5t22 60q-15 -16 -31 -30.5t-32.5 -25.5
t-32.5 -17t-30 -6q-21 1 -27 17t0 40t22 51.5t40 52.5q6 6 21 2.5t19 -14.5q-3 -3 -12 -14t-20 -25.5t-22 -30.5t-17.5 -30t-6.5 -23t11 -10q22 -2 63.5 31.5t92.5 96.5l9 11q7 8 17.5 6.5t30.5 -10.5z" />
    <glyph glyph-name="v" unicode="v" horiz-adv-x="415" 
d="M30 472q7 6 19 16t24.5 19t25 15.5t20.5 5.5q10 -2 17 -13.5t-6 -37.5q-15 -28 -33.5 -66t-33.5 -72t-23 -57t-1 -20q18 7 45.5 30.5t58 54t61.5 64t55 61.5q-8 15 -4.5 30.5t13 27t22 17.5t21.5 1q15 -7 2.5 -27.5t-36.5 -50.5q14 -14 36.5 -19t47.5 -3.5t48 8.5t37 17
l8 -11q-16 -11 -41 -18.5t-52 -9t-52 4.5t-41 21q-29 -34 -65.5 -72t-71.5 -70.5t-63.5 -55t-40.5 -23.5q-15 -2 -17.5 14t2.5 41.5t16 56.5t23.5 60.5t24.5 54t19 35.5q-3 1 -11 -4.5t-17 -12.5t-17.5 -14t-11.5 -9z" />
    <glyph glyph-name="w" unicode="w" horiz-adv-x="545" 
d="M79 475q-3 -3 -13 -14t-22 -26t-24.5 -31.5t-20 -30.5t-8.5 -23t10 -9q14 0 37 16t48.5 37.5t50.5 44.5t42 38q10 8 23.5 8t22.5 -16q-2 -3 -16 -19.5t-32 -40.5t-36 -51.5t-29 -50.5t-11 -38t19 -15q24 0 59 24t73 57.5t73 71t59 64.5q-8 15 -4.5 30.5t13 27.5t22 17.5
t21.5 1.5q15 -8 2.5 -28.5t-36.5 -50.5q14 -14 37.5 -18.5t49 -3t49 8.5t37.5 17l8 -11q-16 -11 -41.5 -19t-53.5 -9.5t-53.5 4.5t-41.5 21q-28 -33 -65 -71.5t-76 -72t-75.5 -55.5t-62.5 -21q-21 1 -29 12.5t-8 29t7 39t17.5 42t22.5 38t22 26.5q-14 -11 -34 -28t-41 -33
t-41.5 -27.5t-36.5 -11.5q-23 0 -27.5 16.5t4.5 41t27.5 52t41.5 50.5q6 6 21 3t19 -14z" />
    <glyph glyph-name="x" unicode="x" horiz-adv-x="404" 
d="M77 527q-1 -26 -3 -50.5t-4 -47.5q70 63 125 94t95 17q2 -1 2 -2.5t-3 -11.5q-36 14 -92.5 -18.5t-128.5 -98.5q-5 -55 4.5 -91t36.5 -38q21 -1 49.5 10t60 29t64 40t62 44t53 40.5t37.5 29.5l8 -11q-26 -20 -68.5 -53t-90.5 -65.5t-95.5 -56t-81.5 -23.5
q-30 0 -49.5 24.5t-26.5 87.5q-34 -30 -60 -55.5t-47 -43.5t-38 -26t-32 -4q-2 1 -2.5 2.5t1.5 11.5q14 -6 30 2t37 26.5t48 45t62 58.5q-4 48 0 118q2 11 13 16t34 0z" />
    <glyph glyph-name="y" unicode="y" horiz-adv-x="491" 
d="M204 290q90 31 165.5 76t152.5 107l9 -11q-34 -27 -76 -56t-87 -55t-88.5 -46t-80.5 -29q-37 -91 -86 -169.5t-104.5 -135t-115 -87.5t-116.5 -27q-53 4 -76.5 32t-19.5 69t36.5 90t92 95.5t147 85t201.5 58.5q20 54 36 103t28 89q-22 -28 -45 -58.5t-47.5 -56t-50 -41.5
t-52.5 -15q-17 1 -26.5 15t-10 38.5t10 57.5t34.5 71q5 7 19.5 6.5t27.5 -7.5q-3 -3 -11 -16.5t-17 -31.5t-17.5 -38.5t-13 -38t-3 -29t12.5 -11.5q18 0 39.5 13t42.5 34t41 46t36.5 48t28 41t15.5 25q9 3 19.5 5t18 1t11.5 -6.5t0 -16.5q-38 -119 -81 -224zM152 272
q-112 -21 -195 -58.5t-139 -81t-86 -89t-34 -83t16 -61t63 -24.5q52 1 107 36.5t105.5 92.5t93 127.5t69.5 140.5z" />
    <glyph glyph-name="z" unicode="z" horiz-adv-x="504" 
d="M25 468q12 10 30 24t38.5 26t42.5 19.5t42 6.5q33 -3 52 -20t25 -42t-1 -54t-25.5 -56t-48 -48t-69.5 -30q37 -10 52 -33q45 19 89.5 39t90.5 45t93.5 56t98.5 72l8 -11q-51 -41 -99 -72t-94 -56t-91 -45.5t-90 -39.5q10 -23 2.5 -57.5t-27 -74t-49 -79.5t-63.5 -75
t-70.5 -61t-69.5 -36q-58 -18 -92.5 0t-39 57t25 91t99.5 102q22 16 54 34.5t66.5 37t67 34.5t56.5 26q-7 15 -20 24t-40 10q0 4 -0.5 7t-0.5 7q38 7 66 27t46 46t26 54t7.5 51.5t-10 39t-26.5 16.5q-18 1 -38 -6.5t-39.5 -19t-37 -25t-30.5 -23.5q-4 8 -7 12zM-113 -111
q28 11 58.5 35.5t59 56.5t53.5 68t43 70.5t27 65t5 50.5q-24 -10 -55 -25t-64 -32.5t-63.5 -36t-52.5 -33.5q-65 -45 -94.5 -93t-28.5 -83t30 -49.5t82 6.5z" />
    <glyph glyph-name="braceleft" unicode="{" horiz-adv-x="303" 
d="M343 770q-19 0 -35.5 -19.5t-32 -50t-29.5 -67t-28 -70t-27.5 -59t-28.5 -34.5q9 -23 4 -61.5t-13.5 -82.5t-16 -88t-3.5 -76q3 -23 13 -36.5t25 -18t32 -1t34 13.5q3 -3 5.5 -9t-9.5 -11q-19 -9 -41 -11t-41.5 4.5t-33.5 22t-18 39.5q-6 31 2 71.5t19 82t20 81t6 68.5
q-20 -11 -31 -0.5t-13.5 27t3.5 31t19 12.5q11 -2 20 -15t13 -23q13 17 23 45t19 60t19.5 65t25.5 60t36 45.5t51 21.5q12 1 12 -6.5v-10.5z" />
    <glyph glyph-name="bar" unicode="|" horiz-adv-x="318" 
d="M224 817q-17 -101 -35.5 -225t-36.5 -252t-36 -252t-33 -225l-34 3q15 101 33 225t36 252.5t36.5 252t35.5 224.5z" />
    <glyph glyph-name="braceright" unicode="}" horiz-adv-x="328" 
d="M-15 93q19 -1 35.5 19t32 50.5t29.5 67t28 70t27.5 59t28.5 34.5q-6 15 -5.5 37.5t5 49.5t10.5 57t11 59t7.5 56t0.5 49q-3 23 -13 36.5t-25 18t-32.5 1t-33.5 -13.5q-3 3 -5.5 9t9.5 11q19 9 40.5 11t41 -4.5t34 -22t18.5 -39.5q6 -32 -2 -72t-19 -81.5t-20 -81
t-6 -68.5q20 10 31 0t13.5 -26.5t-3.5 -31t-19 -12.5q-11 2 -20 15t-13 23q-13 -17 -23 -45t-19 -60t-19.5 -65t-25.5 -60t-36 -45.5t-51 -21.5q-12 -1 -12 6.5v10.5z" />
    <glyph glyph-name="asciitilde" unicode="~" horiz-adv-x="652" 
d="M306 342q-26 24 -58.5 37t-68 10.5t-71 -24t-65.5 -67.5q-2 -3 -10 -3.5t-5 7.5q25 49 62.5 77.5t79 37t83 -3.5t76.5 -42q25 -21 51.5 -32.5t53.5 -8t54.5 23.5t54.5 61q6 2 9 -2.5t-1 -11.5q-30 -47 -63 -70.5t-65 -28.5t-62 6t-55 34z" />
    <glyph glyph-name="caron" unicode="&#x2c7;" horiz-adv-x="235" 
d="M197 690q-24 -13 -45.5 -38t-35.5 -45q-8 -5 -13.5 -3.5t-7.5 3.5q-4 10 -8 22t-10 23.5t-14 21.5t-20 16q15 4 27 -1t20.5 -14t13.5 -19t8 -14q9 10 20.5 20.5t22.5 18.5t22 11t20 -2z" />
    <glyph glyph-name="hungarumlaut" unicode="&#x2dd;" horiz-adv-x="246" 
d="M39 629q17 9 25 26t16 36l38 -2q-6 -14 -15 -27t-20 -22t-22.5 -12.5t-21.5 1.5zM115 629q17 9 25 26t16 36l38 -2q-6 -14 -15 -27t-20 -22t-22.5 -12.5t-21.5 1.5z" />
    <glyph glyph-name="Euro" unicode="&#x20ac;" horiz-adv-x="453" 
d="M83 353h50q4 13 8.5 25t9.5 25h-68q-6 0 -7 5t1.5 11.5t7 11.5t8.5 5h74q18 35 40 65.5t46 52t50.5 32t53.5 6.5q26 -5 37.5 -32t5.5 -69q-1 -7 -9 -15t-23 -3q5 12 9 29.5t4 33t-5.5 27.5t-20.5 14q-18 2 -37 -8t-38 -29.5t-36.5 -46t-32.5 -57.5h54q5 0 6.5 -5t0 -11.5
t-6 -11.5t-10.5 -5h-59q-5 -13 -10 -25t-10 -25h79q5 0 6.5 -5t0 -11.5t-6 -11.5t-10.5 -5h-80q-12 -40 -17.5 -77t-3.5 -64.5t12.5 -42.5t32.5 -12q15 2 27.5 13t23.5 26.5t19.5 34.5t14.5 38q9 2 14 -2.5t7 -12t1.5 -15t-2.5 -10.5q-24 -42 -52 -63.5t-55 -24.5
q-32 -3 -50.5 13.5t-25.5 46t-3.5 69.5t15.5 83h-50q-6 0 -7 5t1.5 11.5t7 11.5t8.5 5z" />
    </font>
</defs>
</svg>
