<?xml version="1.0" encoding="UTF-8"?>
<svg width="298px" height="218px" viewBox="0 0 298 218" version="1.1" xmlns="http://www.w3.org/2000/svg" xmlns:xlink="http://www.w3.org/1999/xlink">
    <!-- Generator: Sketch 51.3 (57544) - http://www.bohemiancoding.com/sketch -->
    <title>Group</title>
    <desc>Created with Sketch.</desc>
    <defs></defs>
    <g id="Page-1" stroke="none" stroke-width="1" fill="none" fill-rule="evenodd" stroke-linecap="round" stroke-linejoin="round">
        <g id="Desktop-HD-Copy-3" transform="translate(-1042.000000, -74.000000)" stroke="#7D977B" stroke-width="3">
            <g id="Group" transform="translate(1044.000000, 76.000000)">
                <path d="M268,13 C258.693248,47.4766102 213.193569,76.3661017 176.655949,93.4 C124.090032,117.928814 48.2572347,130.19322 14.6495177,174.072542 C4.99807074,186.745763 0,199.146441 0,214" id="Shape"></path>
                <path d="M75.6520113,130.123288 C85.2107853,120.39726 93.9005799,106.561644 90.0770703,93.1369863 C89.7294785,93.1369863 89.5556826,93 89.2080909,93 C71.307114,100.123288 68.7001756,118.479452 72.5236852,133" id="Shape"></path>
                <path d="M58.5971731,140 C76.6042403,142.183128 93.745583,149.960522 105,161.2855 C85.6077739,164.696638 64.3109541,155.554789 56,141.091564" id="Shape"></path>
                <path d="M108,119 C119.566775,130.259001 141.14658,140.043608 161,137.630965 C151.677524,124.6295 127.508143,119.268071 108,119" id="Shape"></path>
                <path d="M140.364318,108 C141.755343,96.3858521 153.231304,79.0996785 147.319446,66 C134.452459,75.9935691 135.495728,94.6302251 140.364318,108" id="Shape"></path>
                <path d="M165,98.5137053 C182.920904,104.155259 204.977401,113.236784 226,108.83362 C209.285311,99.4768974 185.677966,96.72492 165,98.5137053" id="Shape"></path>
                <path d="M206.774473,76.8639241 C209.0719,63.8006329 208.895175,45.5664557 199.528739,34 C197.054586,48.2879747 196.52441,64.4810127 206.244297,77" id="Shape"></path>
                <path d="M233,59.6263083 C247.978022,53.4568174 264.333333,55.7002687 280,62.2904067 C264.677656,65.7957992 247.978022,63.4121323 233,59.6263083" id="Shape"></path>
                <path d="M254.815522,35.7931034 C256.211716,23.3793103 249.754321,8.34482759 233,6 C233.698097,18 241.028112,30.2758621 252.19766,38" id="Shape"></path>
                <path d="M268.038462,11.5257732 C274.788462,4.95876289 283.615385,0.268041237 293.307692,0 C293.307692,0 294,1.20618557 294,1.20618557 C287.25,7.37113402 277.211538,11.7938144 267,13" id="Shape"></path>
            </g>
        </g>
    </g>
</svg>