<?xml version="1.0" encoding="UTF-8"?>
<svg width="210px" height="495px" viewBox="0 0 210 495" version="1.1" xmlns="http://www.w3.org/2000/svg" xmlns:xlink="http://www.w3.org/1999/xlink">
    <!-- Generator: Sketch 51.3 (57544) - http://www.bohemiancoding.com/sketch -->
    <title>Group</title>
    <desc>Created with Sketch.</desc>
    <defs></defs>
    <g id="Page-1" stroke="none" stroke-width="1" fill="none" fill-rule="evenodd" stroke-linecap="round" stroke-linejoin="round">
        <g id="Desktop-HD-Copy-3" transform="translate(-23.000000, -472.000000)" stroke="#58595B" stroke-width="2">
            <g id="Group" transform="translate(128.000000, 719.500000) scale(-1, 1) translate(-128.000000, -719.500000) translate(24.000000, 473.000000)">
                <path d="M0,493 C1.7781954,491.81016 2.8724695,488.637255 3.82995933,486.257576 C5.744939,481.101604 6.97599735,475.54902 8.20705571,469.996435 C10.3956039,460.081105 13.6784262,449.570856 17.781954,440.845365 C21.3383448,433.508021 27.0832838,427.360517 32.0075173,421.807932 C35.8374766,417.445187 39.6674359,412.487522 43.6341795,408.323084 C47.3273546,404.555258 51.0205297,400.787433 54.7137047,397.019608 C59.5011539,392.26025 63.741466,386.905971 68.1185624,381.551693 C76.4624024,371.636364 84.6694581,360.332888 91.0983184,347.839572 C95.2018463,340.105615 99.7157269,332.966578 103.819255,325.23262 C107.51243,318.688503 111.205605,312.144385 115.309133,305.996881 C119.959798,298.659537 125.704737,292.908645 130.081833,285.174688 C133.364655,279.22549 135.416419,271.888146 137.878536,265.145722 C139.109594,261.77451 140.340653,258.601604 141.434927,255.032086 C143.076338,249.479501 144.033828,243.72861 145.264886,237.977718 C148.137356,224.49287 151.146609,211.206328 154.155863,197.919786 C155.113353,193.557041 156.344411,189.392602 157.438685,185.029857 C158.532959,180.468806 159.216881,175.709447 160.037586,170.950089 C161.13186,163.612745 164.00433,157.266934 164.825036,149.92959 C165.645741,141.005793 167.560721,132.47861 168.518211,123.753119 C169.4757,114.631016 170.569975,105.707219 171.664249,96.5851159 C172.211386,92.2223708 172.895307,87.6613191 173.032091,83.1002674 C173.30566,78.5392157 173.30566,73.978164 173.716013,69.4171123 C174.399934,62.2780749 173.579228,55.337344 173.989581,48" id="Shape"></path>
                <path d="M12.7435896,444.485797 C8.29444786,431.695554 5.82270245,418.403734 5.08117882,404.610335 C4.83400428,399.343765 5.08117882,393.826406 6.81140061,389.061413 C8.29444786,385.048788 12.4964151,379.782218 15.4625095,385.550366 C17.934255,390.06457 16.9455568,396.334296 17.1927313,401.350078 C17.6870804,407.619804 18.1814295,413.387953 17.934255,419.657679 C17.6870804,424.92425 17.6870804,430.19082 16.6983822,435.45739 C15.7096841,439.971594 13.9794623,444.485797 12.7435896,449" id="Shape"></path>
                <path d="M34.0054293,423 C28.9423805,412.007953 28.4360756,401.015906 27.6766183,389.274401 C27.4234659,384.028197 26.6640086,378.781993 27.1703134,373.535789 C27.6766183,370.038319 29.195533,361.544465 33.7522769,361.044826 C42.8657647,359.79573 39.3216306,385.027474 39.3216306,389.77404 C39.3216306,400.016629 38.3090208,409.010122 35.0180391,418.753073" id="Shape"></path>
                <path d="M55.5535988,398 C50.2085276,397.746139 51.4233165,388.099437 50.9374009,384.291528 C50.2085276,378.706595 48.9937386,373.375523 48.5078231,367.79059 C48.0219075,362.713378 47.7789497,357.636166 48.2648653,352.812815 C48.5078231,349.258767 50.6944431,341.389089 54.3388099,340.119786 C58.9550078,338.596622 58.2261345,352.051233 58.4690922,354.8437 C58.9550078,359.667051 58.71205,364.490402 58.71205,369.313753 C58.71205,377.437292 60.1697967,386.068552 56.52543,393.68437" id="Shape"></path>
                <path d="M76.9203259,369.977477 C75.0081485,371.255631 74.7691263,371.511262 73.5740154,369.466215 C72.6179267,367.93243 72.3789045,366.143014 71.6618379,364.609229 C70.466727,362.052921 69.9886827,360.519136 69.2716161,357.707197 C68.7935718,355.406519 67.5984608,352.850211 67.3594387,350.549533 C67.1204165,349.015748 67.5984608,347.481963 67.3594387,345.948178 C67.1204165,344.670024 66.4033499,343.903131 66.1643278,342.624977 C65.6862834,338.534884 66.4033499,333.933529 66.4033499,329.843435 C66.4033499,325.24208 69.9886827,322.17451 74.5301041,323.197034 C75.2471707,327.798389 75.9642372,332.144113 76.6813038,336.489837 C77.3983703,341.346823 76.6813038,346.715071 76.6813038,351.572056 C76.6813038,357.962827 76.6813038,364.609229 76.6813038,371" id="Shape"></path>
                <path d="M82.8692835,358 C83.8670116,351.303776 83.8670116,345.895287 81.8715554,339.456609 C80.3749632,334.820761 79.8760991,330.184914 79.377235,325.549066 C78.6289389,315.762276 78.6289389,304.430204 82.8692835,295.416056 C86.361332,288.204737 90.3522445,293.870773 91.5994047,299.021715 C93.844293,307.520769 93.594861,316.792465 94.3431571,325.291519 C94.8420211,331.730196 95.8397493,339.199062 93.594861,345.380192 C92.3477008,348.728305 89.6039484,351.561323 88.1073562,354.651888" id="Shape"></path>
                <path d="M106.850973,318 C106.609124,318 106.367275,318 105.883576,317.748534 C104.43248,313.222155 102.497685,308.695776 101.046589,304.169397 C99.3536431,299.391553 98.1443962,294.362243 96.9351494,289.332933 C95.4840533,283.800692 94.7585052,278.016985 94.2748065,272.233278 C94.0329571,267.706899 93.307409,261.420262 95.967752,257.648279 C100.56289,251.110176 103.948781,265.946641 104.43248,268.712761 C105.641726,275.50233 106.367275,282.543364 107.576521,289.584398 C108.302069,294.362243 108.302069,299.391553 109.269467,304.420863 C110.236864,308.947242 111.204262,313.222155 110.962412,318" id="Shape"></path>
                <path d="M123.288087,287.694676 C120.440433,284.920334 118.779302,282.145992 117.118171,278.362797 C114.270517,272.057474 110.948255,266.004363 109.049819,259.194614 C107.625992,254.402568 107.388688,249.862735 107.625992,244.818476 C107.625992,242.044133 107.625992,239.017578 107.388688,236.243236 C107.151384,234.225532 106.43947,231.198977 107.863297,229.433486 C112.372082,224.137014 117.355475,234.982171 117.830084,238.260939 C119.253911,246.836179 119.016606,255.411419 120.203129,263.986659 C121.626955,273.822964 124,284.163695 124,294" id="Shape"></path>
                <path d="M143,262.182441 C138.828978,263.436316 137.356852,260.677791 134.657956,257.919267 C133.18583,256.414617 131.468351,255.160742 130.24158,253.154543 C127.788037,248.640593 126.80662,243.875869 125.579849,239.111145 C124.107724,233.844871 123.371661,228.578596 123.371661,223.061547 C123.371661,217.293723 122.390244,210.773574 123.617015,205.00575 C127.051974,204.754975 128.278746,212.779774 128.769454,214.785974 C129.750871,218.046048 131.222997,221.055348 131.959059,224.315422 C132.449768,226.572397 132.940476,229.080146 133.676539,231.086346 C134.657956,233.594096 136.62079,235.85107 137.111498,238.35882 C137.847561,242.621994 138.338269,246.634394 138.338269,250.897568 C138.338269,254.408417 137.356852,259.674692 138.583624,262.934766 C139.319686,263.185541 139.565041,262.683991 139.319686,261.931666" id="Shape"></path>
                <path d="M146.521997,228 C141.256336,217.54781 136.742913,206.075894 133.984709,194.603978 C133.232472,191.289869 128.719048,166.306586 136.492167,168.091106 C141.507082,169.365764 144.265285,178.543296 145.017523,183.132063 C146.020506,188.995486 146.521997,194.85891 147.274235,200.722334 C148.277218,208.88014 148.026472,217.802742 147.775726,225.960548" id="Shape"></path>
                <path d="M160,184 C154.919971,183.24612 152.88796,180.230598 150.855948,175.958609 C148.315934,170.932739 145.267917,165.90687 142.981904,160.881 C140.44189,155.603837 139.933887,149.572794 139.171882,143.793044 C138.917881,141.028816 136.377867,129.72061 139.679885,128.212849 C144.505913,126.202501 149.077938,139.018468 149.33194,142.03399 C150.093944,147.562446 151.363951,152.337022 152.633958,157.614185 C154.66597,166.158163 154.919971,175.456022 157.459986,184" id="Shape"></path>
                <path d="M163.804098,145 C158.06377,132.411848 152.562622,120.337498 150.64918,106.464841 C150.170819,103.125127 145.387212,76.9212193 154.715245,81.5454383 C159.259672,83.8575479 159.977213,92.5921839 160.455574,96.9595019 C161.412295,102.611325 162.129836,108.52005 162.608197,114.171873 C163.564918,123.934113 165,133.696353 165,143.458594" id="Shape"></path>
                <path d="M172,104 C170.219657,98.9153287 168.439314,93.5764239 166.658971,88.4917527 C165.132962,84.4240156 163.098284,80.8647458 161.572276,77.0512423 C160.046268,72.9835053 160.046268,68.9157683 159.791933,64.5937977 C159.537598,62.0514621 157.757255,54.1702217 160.554937,52.3905867 C166.150301,48.8313168 167.930644,70.6954032 168.184979,73.4919724 C168.693649,77.5597094 168.184979,81.6274465 168.947983,85.6951835 C169.710987,89.5086869 171.236996,93.3221904 171.745665,97.3899274" id="Shape"></path>
                <path d="M171.764724,50.9778689 C169.772967,46.1227463 167.781211,41.2676236 167.283272,35.9014354 C167.034302,30.79078 167.532242,25.6801245 167.283272,20.5694691 C167.283272,15.4588137 166.287394,10.0926255 168.030181,5.23750284 C169.275028,1.1489785 173.009571,-2.93954585 174.752358,2.9377079 C177.242054,11.3702894 176.993084,21.5916002 176.993084,30.2797144 C176.993084,37.9456976 176.495145,44.5895496 174.752358,52" id="Shape"></path>
                <path d="M14.2400931,448.40516 C22.6433505,443.902672 30.5664218,440.822022 40.1701445,440.111103 C47.6130297,439.637157 54.5757287,438.689264 61.7785207,437.267426 C72.1025227,435.134668 79.3053148,446.272402 68.9813128,452.433702 C63.9393584,455.514352 58.1771247,455.751325 52.4148911,455.988298 C45.9323782,455.988298 38.7295861,456.225271 32.2470733,454.566459 C28.8857703,453.618567 25.7645604,451.722783 22.4032574,450.77489 C18.5617683,449.590025 15.6806515,448.168187 14,444.376618" id="Shape"></path>
                <path d="M33,419.839627 C44.6473841,413.542738 56.2947681,412.031484 69.1554213,412.031484 C73.2805365,412.031484 78.1336132,411.527733 81.5307669,414.55024 C84.6852667,417.320871 86.1411897,422.610258 83.9573052,426.388391 C81.0454592,431.174027 73.7658442,432.181529 68.9127675,432.68528 C64.3023446,433.189031 59.6919218,433.189031 55.0814989,431.929653 C47.3165762,429.914649 41.735538,423.61776 33.9706153,421.602756" id="Shape"></path>
                <path d="M60.1806028,392.250817 C71.4350434,387.279609 82.9341458,384.202194 95.4118952,383.255297 C99.8158067,382.781849 114.984835,382.071676 112.78288,390.357024 C111.559571,395.091508 104.46438,397.222026 100.30513,398.168923 C93.6992629,399.825992 86.6040721,400.299441 79.753543,399.825992 C72.1690287,399.352544 64.8291761,397.222026 57.2446618,396.275129 C57.2446618,396.038405 57.2446618,395.801681 57,395.328232" id="Shape"></path>
                <path d="M77,368.628806 C86.5956848,368.389385 95.4716932,366.713438 104.827486,366.474017 C106.986515,366.474017 108.905652,365.516333 111.064681,365.276912 C112.743926,365.037491 113.703494,364.558649 115.382739,364.319228 C118.261445,363.600965 122.339611,364.319228 125.458208,364.319228 C128.576806,364.319228 132.654972,363.600965 135.773569,364.558649 C135.773569,366.952859 137.212922,368.389385 136.97303,370.783595 C136.493246,374.374911 133.134756,375.572016 130.256051,377.008542 C123.299179,380.360436 116.102415,378.92391 109.145544,376.769121 C106.986515,376.050858 104.587594,375.332595 102.428565,374.374911 C99.5498592,373.177806 96.9110459,372.938385 94.0323405,372.220121 C92.5929878,371.9807 91.1536351,371.9807 89.7142823,371.741279 C88.7547139,371.501858 88.2749296,370.783595 87.3153611,370.544174 C84.4366557,370.065332 82.0377345,371.023016 79.3989212,369.58649" id="Shape"></path>
                <path d="M108.682702,320.359414 C108.682702,321.099099 107.721158,321.099099 107,320.852537 C109.40386,318.14036 111.567335,314.688497 114.692353,312.716004 C119.259688,309.757265 125.269339,308.031334 130.557832,306.551964 C135.365552,305.319156 141.134817,303.593225 145.942538,304.086348 C150.269487,304.579471 152.913733,308.771018 149.307943,312.222881 C145.461766,315.921305 139.692501,316.414428 134.644394,317.154113 C131.038604,317.647236 127.432813,318.386921 123.827023,318.14036 C120.94239,317.893798 118.298144,318.14036 115.413511,318.386921 C113.009651,318.633483 110.365405,318.633483 108.20193,319.373168" id="Shape"></path>
                <path d="M126,290.629126 C129.345014,288.182524 133.167887,284.512621 137.229689,283.28932 C140.096844,282.31068 142.486139,281.087379 145.353294,280.842718 C148.698307,280.842718 151.804392,280.353398 154.910476,280.108738 C157.77763,279.864078 160.883715,280.108738 163.750869,280.108738 C164.945517,280.108738 167.095883,279.864078 168.290531,280.108738 C169.724108,280.598058 169.485178,282.31068 169.724108,283.533981 C169.963037,285.001942 170.201967,286.469903 169.724108,287.937864 C168.76839,290.139806 165.901235,290.873786 163.989799,291.607767 C155.388335,294.543689 146.070082,294.054369 137.229689,293.809709 C135.079323,293.809709 133.167887,293.809709 131.017521,293.809709 C130.061802,293.809709 129.106084,293.809709 128.150366,293.565049 C127.433577,293.320388 126.955718,292.831068 126,292.586408" id="Shape"></path>
                <path d="M140,257.701026 C140.72913,254.871213 142.916518,253.327678 145.34695,251.784144 C150.207815,248.95433 155.554765,247.410796 160.901716,246.896284 C166.734752,246.124517 173.053876,245.610006 178.886913,246.381773 C181.803431,246.639029 185.206036,247.410796 185.935166,251.012377 C186.664295,255.900236 181.074301,258.730049 177.671697,260.016328 C172.567789,261.817118 166.977796,262.33163 161.630845,262.846141 C157.499111,263.103397 153.367376,263.103397 149.235642,262.33163 C146.80521,261.817118 144.374778,261.302607 141.944346,261.045351 C141.944346,260.788095 141.944346,260.788095 141.944346,260.53084" id="Shape"></path>
                <path d="M149,225.222998 C155.450053,216.604163 166.200142,210.33592 175.994667,207.201798 C179.100248,206.157091 200.600426,201.194731 195.105936,210.858273 C192.239246,216.081809 186.266974,219.477108 181.250266,221.827699 C176.71134,223.917114 171.933523,225.222998 167.155705,226.267705 C161.422325,227.573589 156.166726,228.618296 150.194454,227.573589" id="Shape"></path>
                <path d="M159.493967,183.340821 C159.246983,183.340821 159.246983,183.340821 159,183.340821 C166.656485,176.704105 176.288837,173.622773 185.92119,170.304415 C189.378957,169.119287 193.577675,167.460108 197.282425,168.171185 C199.752259,168.645236 201.728127,170.778466 200.740193,173.385747 C198.764326,177.415182 192.589741,179.074361 188.638007,180.259489 C184.192306,181.444617 179.746605,182.392719 175.300904,183.340821 C172.337103,184.051898 169.620286,184.525949 166.656485,184.525949 C164.186651,184.525949 162.210784,184.525949 159.987934,185" id="Shape"></path>
                <path d="M164,143.548862 C167.89182,134.358324 178.837563,129.279342 187.837396,126.618923 C190.269784,125.893354 192.702171,125.167785 195.134559,124.684073 C196.83723,124.20036 198.78314,123.716648 200.485811,124.20036 C203.891153,125.409642 203.161437,130.73048 202.188482,133.390899 C200.485811,137.502455 195.864275,138.228024 191.729216,139.195449 C188.080635,139.921018 184.675293,141.614012 181.026712,141.855868 C177.864608,142.097725 174.945743,141.614012 171.78364,142.823294 C169.108014,143.790719 166.918865,145 164,145" id="Shape"></path>
                <path d="M173.444248,95.3829803 C172.722124,95.6259814 172.481416,95.3829803 172.240708,94.8969783 C177.776993,87.8499483 187.405316,84.9339359 195.348682,82.2609245 C197.755762,81.5319214 201.607091,79.8309142 203.292048,82.2609245 C205.217712,84.9339359 202.810632,88.5789514 200.884967,90.5229597 C198.477887,92.709969 195.58939,95.1399793 192.941601,96.8409866 C190.534521,98.2989928 187.646024,98.5419938 184.998235,98.5419938 C180.66549,98.7849948 176.332745,99.2709969 172,100" id="Shape"></path>
                <path d="M174.238794,65.1494868 C175.432766,60.4850105 179.01468,56.8570846 181.880211,53.4882962 C186.178508,48.3055449 190.954394,43.3819311 195.730279,38.7174549 C198.118222,36.3852168 201.222548,33.2755659 204.804462,33.0164284 C208.147582,32.7572908 208.386376,35.6078041 207.669993,38.4583173 C204.804462,49.6012327 193.819925,54.0065714 186.178508,60.4850105 C182.3578,63.8537989 179.253474,68 174,68" id="Shape"></path>
                <path d="M90,349.952808 C95.7210193,347.21862 101.203663,345.478683 107.401434,344.235871 C113.360829,343.241621 119.320224,342.247371 125.041243,340.507433 C128.140129,339.761746 133.622772,337.524683 136.00653,340.507433 C138.390288,343.490183 136.00653,348.21287 133.861148,350.449933 C127.425001,357.409682 115.267835,356.415432 106.924682,354.924057 C100.726911,353.681245 95.7210193,350.698495 90.4767516,347.467183" id="Shape"></path>
            </g>
        </g>
    </g>
</svg>